<svg xmlns="http://www.w3.org/2000/svg" width="506.632" height="367.848" viewBox="0 0 506.632 367.848">
  <g id="Group_2008" data-name="Group 2008" transform="translate(-1988.618 -722.552)">
    <path id="Path_9126" data-name="Path 9126" d="M2005.119,889.971a16.5,16.5,0,1,0,16.5,16.5A16.52,16.52,0,0,0,2005.119,889.971Zm0,29a12.5,12.5,0,1,1,12.5-12.5A12.517,12.517,0,0,1,2005.119,918.973Z" fill="#fff"/>
    <path id="Path_9127" data-name="Path 9127" d="M2236,906.472a2,2,0,0,0-2-2H2035.462a2,2,0,0,0,0,4H2234A2,2,0,0,0,2236,906.472Z" fill="#fff"/>
    <path id="Path_9128" data-name="Path 9128" d="M2468.5,889.971a16.5,16.5,0,1,0,16.5,16.5A16.519,16.519,0,0,0,2468.5,889.971Zm0,29a12.5,12.5,0,1,1,12.5-12.5A12.516,12.516,0,0,1,2468.5,918.973Z" fill="#fff"/>
    <path id="Path_9129" data-name="Path 9129" d="M2491.753,893.239a2,2,0,1,0-3.475,1.981,22.815,22.815,0,0,1,1.6,19.063,2,2,0,1,0,3.758,1.373,26.821,26.821,0,0,0-1.879-22.417Z" fill="#55f4f0"/>
    <path id="Path_9130" data-name="Path 9130" d="M2439.466,904.472H2290.929a2,2,0,0,0,0,4h148.537a2,2,0,0,0,0-4Z" fill="#fff"/>
    <path id="Path_9131" data-name="Path 9131" d="M2084.443,797.529a16.5,16.5,0,1,0-3.65-23.049A16.42,16.42,0,0,0,2084.443,797.529Zm-.414-20.7a12.419,12.419,0,0,1,8.159-5,12.773,12.773,0,0,1,1.982-.156,12.5,12.5,0,1,1-10.141,5.156Z" fill="#fff"/>
    <path id="Path_9132" data-name="Path 9132" d="M2118.186,804.12l120.075,87.239a2,2,0,1,0,2.351-3.236l-120.075-87.239a2,2,0,1,0-2.351,3.236Z" fill="#fff"/>
    <path id="Path_9133" data-name="Path 9133" d="M2414.578,996.593a16.5,16.5,0,1,0,3.651,23.049A16.521,16.521,0,0,0,2414.578,996.593Zm.415,20.7a12.5,12.5,0,1,1-2.766-17.461A12.514,12.514,0,0,1,2414.993,1017.29Z" fill="#fff"/>
    <path id="Path_9134" data-name="Path 9134" d="M2382.567,991.26l-95.9-69.675a2,2,0,0,0-2.352,3.236l95.9,69.675a2,2,0,1,0,2.351-3.236Z" fill="#fff"/>
    <path id="Path_9135" data-name="Path 9135" d="M2227.668,799.382a16.5,16.5,0,1,0,12.591.991A16.521,16.521,0,0,0,2227.668,799.382Zm10.774,4.556a12.408,12.408,0,1,1-5.662-1.37A12.409,12.409,0,0,1,2238.442,803.938Z" fill="#fff"/>
    <path id="Path_9136" data-name="Path 9136" d="M2213.634,800.472a2,2,0,0,0,1.512-.691,23.4,23.4,0,0,1,17.623-8.041,2,2,0,0,0,0-4,27.393,27.393,0,0,0-20.646,9.422,2,2,0,0,0,1.511,3.31Z" fill="#55f4f0"/>
    <path id="Path_9137" data-name="Path 9137" d="M2241.48,841.891a2,2,0,0,0-1.284,2.52l11.57,35.609a2,2,0,1,0,3.8-1.237L2244,843.175A2,2,0,0,0,2241.48,841.891Z" fill="#fff"/>
    <path id="Path_9138" data-name="Path 9138" d="M2292.983,962.643a16.5,16.5,0,1,0-7.508,31.211,16.562,16.562,0,0,0,5.117-.816,16.5,16.5,0,0,0,2.391-30.4Zm-3.628,26.59a12.5,12.5,0,1,1,8.026-15.751A12.4,12.4,0,0,1,2289.355,989.233Z" fill="#fff"/>
    <path id="Path_9139" data-name="Path 9139" d="M2275.136,951.945a2,2,0,1,0,3.8-1.236l-5.778-17.784a2,2,0,0,0-3.805,1.236Z" fill="#fff"/>
    <path id="Path_9140" data-name="Path 9140" d="M2262.568,880.467a2,2,0,0,0,2-2V859.026a2,2,0,0,0-4,0v19.441A2,2,0,0,0,2262.568,880.467Z" fill="#55f4f0"/>
    <path id="Path_9141" data-name="Path 9141" d="M2262.568,933.4a2,2,0,0,0-2,2v18.7a2,2,0,0,0,4,0V935.4A2,2,0,0,0,2262.568,933.4Z" fill="#55f4f0"/>
    <path id="Path_9142" data-name="Path 9142" d="M2293.676,864.471a2,2,0,0,0-2.794.442l-12.694,17.472a2,2,0,1,0,3.236,2.351l12.694-17.471A2,2,0,0,0,2293.676,864.471Z" fill="#55f4f0"/>
    <path id="Path_9143" data-name="Path 9143" d="M2234.178,946.362a2,2,0,0,0,2.794-.442l10.99-15.128a2,2,0,1,0-3.236-2.352l-10.991,15.128A2,2,0,0,0,2234.178,946.362Z" fill="#55f4f0"/>
    <path id="Path_9144" data-name="Path 9144" d="M2289.765,899.384l20.987-6.82a2,2,0,0,0-1.236-3.8l-20.988,6.819a2,2,0,1,0,1.237,3.8Z" fill="#55f4f0"/>
    <path id="Path_9145" data-name="Path 9145" d="M2234.386,913.171l-17.783,5.778a2,2,0,1,0,1.236,3.805l17.783-5.778a2,2,0,0,0-1.236-3.8Z" fill="#55f4f0"/>
    <path id="Path_9146" data-name="Path 9146" d="M2289.683,917.084l17.8,5.785a2,2,0,0,0,1.237-3.8l-17.805-5.785a2,2,0,1,0-1.236,3.8Z" fill="#55f4f0"/>
    <path id="Path_9147" data-name="Path 9147" d="M2238.062,898.208a2,2,0,0,0-1.285-2.52l-17.784-5.779a2,2,0,0,0-1.236,3.8l17.784,5.778a2,2,0,0,0,2.521-1.284Z" fill="#55f4f0"/>
    <path id="Path_9148" data-name="Path 9148" d="M2291.537,948.225a2,2,0,0,0,1.616-3.176l-12.078-16.625a2,2,0,1,0-3.236,2.351l12.078,16.625A2,2,0,0,0,2291.537,948.225Z" fill="#55f4f0"/>
    <path id="Path_9149" data-name="Path 9149" d="M2247.171,885.161a2,2,0,0,0,.442-2.794l-10.991-15.128a2,2,0,1,0-3.236,2.352l10.991,15.128a2,2,0,0,0,2.794.442Z" fill="#55f4f0"/>
    <path id="Path_9150" data-name="Path 9150" d="M2311.763,754.746a16.5,16.5,0,1,0-9.6-8.2A16.553,16.553,0,0,0,2311.763,754.746Zm-6.79-19.556A12.5,12.5,0,1,1,2313,750.941,12.524,12.524,0,0,1,2304.973,735.19Z" fill="#fff"/>
    <path id="Path_9151" data-name="Path 9151" d="M2270.642,881.3a2,2,0,0,0,2.52-1.284l36.631-112.737a2,2,0,0,0-3.8-1.236l-36.631,112.736A2,2,0,0,0,2270.642,881.3Z" fill="#fff"/>
    <path id="Path_9152" data-name="Path 9152" d="M2213.166,1058.2a16.5,16.5,0,1,0,9.6,8.2A16.4,16.4,0,0,0,2213.166,1058.2Zm6.789,19.557a12.493,12.493,0,1,1-11.9-16.37,12.517,12.517,0,0,1,11.9,16.37Z" fill="#fff"/>
    <path id="Path_9153" data-name="Path 9153" d="M2254.286,931.641a2,2,0,0,0-2.52,1.284l-36.63,112.736a2,2,0,1,0,3.8,1.236l36.63-112.736A2,2,0,0,0,2254.286,931.641Z" fill="#fff"/>
    <path id="Path_9154" data-name="Path 9154" d="M2381.413,836.562a16.493,16.493,0,1,0-13.371-6.8A16.428,16.428,0,0,0,2381.413,836.562Zm-12.369-18.452a12.509,12.509,0,0,1,12.321-10.547,12.654,12.654,0,0,1,1.982.156,12.5,12.5,0,1,1-14.3,10.391Z" fill="#fff"/>
    <path id="Path_9155" data-name="Path 9155" d="M2283.874,890.917a2,2,0,0,0,2.794.442l72.21-52.463a2,2,0,0,0-2.352-3.237l-72.21,52.464A2,2,0,0,0,2283.874,890.917Z" fill="#fff"/>
    <path id="Path_9156" data-name="Path 9156" d="M2159.238,962.06a16.5,16.5,0,1,0,23.049,3.65A16.52,16.52,0,0,0,2159.238,962.06Zm22.047,15.3a12.5,12.5,0,1,1-12.374-14.46,12.549,12.549,0,0,1,1.983.158,12.5,12.5,0,0,1,10.391,14.3Z" fill="#fff"/>
    <path id="Path_9157" data-name="Path 9157" d="M2161.081,994.954a21.111,21.111,0,0,1-12.425-13.842,2,2,0,0,0-3.851,1.082,25.109,25.109,0,0,0,14.788,16.473,2,2,0,0,0,1.488-3.713Z" fill="#55f4f0"/>
    <path id="Path_9158" data-name="Path 9158" d="M2240.612,924.821a2,2,0,1,0-2.351-3.236l-47.95,34.837a2,2,0,1,0,2.351,3.236Z" fill="#fff"/>
    <path id="Path_9159" data-name="Path 9159" d="M2262.537,922.973a16.5,16.5,0,1,0-16.5-16.5A16.52,16.52,0,0,0,2262.537,922.973Zm0-29a12.5,12.5,0,1,1-12.5,12.5A12.515,12.515,0,0,1,2262.537,893.971Z" fill="#fff"/>
  </g>
</svg>
