<svg xmlns="http://www.w3.org/2000/svg" width="455.876" height="240.755" viewBox="0 0 455.876 240.755">
  <g id="Group_2006" data-name="Group 2006" transform="translate(-1971.262 -46.872)">
    <path id="Path_9090" data-name="Path 9090" d="M2209.557,109.78a16.5,16.5,0,1,0-16.5-16.5A16.52,16.52,0,0,0,2209.557,109.78Zm0-29a12.5,12.5,0,1,1-12.5,12.5A12.517,12.517,0,0,1,2209.557,80.778Z" fill="#fff"/>
    <path id="Path_9091" data-name="Path 9091" d="M1976.723,87.447a2,2,0,0,0,1.679.914H2069a2,2,0,0,0,1.872-1.3,16.5,16.5,0,0,0-17.1-22.211,18.148,18.148,0,0,0-3,.667A21.094,21.094,0,0,0,2029.234,53a24.894,24.894,0,0,0-6.585,1.821,27.474,27.474,0,0,0-22.183-7.811c-14.572,1.46-26.32,14.616-26.189,29.327l0,.2C1974.3,79.062,1974.339,83.759,1976.723,87.447Zm24.141-36.454a23.5,23.5,0,0,1,19.844,7.579,2.006,2.006,0,0,0,2.357.444,23,23,0,0,1,6.568-2.033,17.134,17.134,0,0,1,18.059,11.653,2,2,0,0,0,2.564,1.25,23.05,23.05,0,0,1,3.918-1.053,12.505,12.505,0,0,1,13.684,11.193,12.36,12.36,0,0,1-.32,4.335h-87.967c-1.249-2.6-1.275-5.835-1.292-7.856l0-.2C1978.164,63.607,1988.3,52.252,2000.864,50.993Z" fill="#fff"/>
    <path id="Path_9092" data-name="Path 9092" d="M2207.557,119.617v16a2,2,0,1,0,4,0v-16a2,2,0,0,0-4,0Z" fill="#fff"/>
    <path id="Path_9093" data-name="Path 9093" d="M2209.557,69.617a2,2,0,0,0,2-2v-16a2,2,0,0,0-4,0v16A2,2,0,0,0,2209.557,69.617Z" fill="#fff"/>
    <path id="Path_9094" data-name="Path 9094" d="M2226.527,110.588a2,2,0,0,0,0,2.828l11.314,11.313a2,2,0,0,0,2.828-2.828l-11.314-11.313A2,2,0,0,0,2226.527,110.588Z" fill="#55f4f0"/>
    <path id="Path_9095" data-name="Path 9095" d="M2189.758,76.646a2,2,0,1,0,2.828-2.828l-11.314-11.313a2,2,0,0,0-2.828,2.828Z" fill="#55f4f0"/>
    <path id="Path_9096" data-name="Path 9096" d="M2233.557,93.617a2,2,0,0,0,2,2h16a2,2,0,0,0,0-4h-16A2,2,0,0,0,2233.557,93.617Z" fill="#fff"/>
    <path id="Path_9097" data-name="Path 9097" d="M2167.557,95.617h16a2,2,0,0,0,0-4h-16a2,2,0,0,0,0,4Z" fill="#fff"/>
    <path id="Path_9098" data-name="Path 9098" d="M2227.941,77.232a1.99,1.99,0,0,0,1.414-.586l11.314-11.313a2,2,0,0,0-2.828-2.828l-11.314,11.313a2,2,0,0,0,1.414,3.414Z" fill="#55f4f0"/>
    <path id="Path_9099" data-name="Path 9099" d="M2189.758,110.588,2178.444,121.9a2,2,0,1,0,2.828,2.828l11.314-11.313a2,2,0,0,0-2.828-2.828Z" fill="#55f4f0"/>
    <path id="Path_9100" data-name="Path 9100" d="M2414.638,99.792a13.122,13.122,0,0,0-2.609.346,24.51,24.51,0,0,0-36.367-10.986,35.345,35.345,0,0,0-64.3,8.779,12.5,12.5,0,0,0-15.817,17.5,2,2,0,0,0,1.757,1.044h127.4a2,2,0,0,0,1.916-1.426c.057-.189.108-.344.153-.481a6.225,6.225,0,0,0,.371-2.276A12.514,12.514,0,0,0,2414.638,99.792Zm8.5,12.683H2298.581a8.5,8.5,0,0,1,7.95-11.512,8.426,8.426,0,0,1,4.707,1.419l.3.212a2,2,0,0,0,3.127-1.241,31.343,31.343,0,0,1,58.594-8.316,2,2,0,0,0,3.051.622,20.508,20.508,0,0,1,32.567,9.483,2,2,0,0,0,2.484,1.3,15.562,15.562,0,0,1,3.281-.646,8.51,8.51,0,0,1,8.5,8.5C2423.138,112.36,2423.138,112.421,2423.137,112.475Z" fill="#fff"/>
    <path id="Path_9101" data-name="Path 9101" d="M2064.011,258.075a2,2,0,0,0-2-2h-83.264c-1.461-1.967-3.485-5.381-3.485-12a9.636,9.636,0,0,1,9.625-9.625,9.526,9.526,0,0,1,5.884,2.007,2,2,0,0,0,3.108-.576A14.631,14.631,0,0,1,2021,238.718a2,2,0,0,0,2.465,1.4,8.142,8.142,0,0,1,9.67,4.693,2,2,0,0,0,1.8,1.224,2.02,2.02,0,0,0,1.854-1.141c.329-.692,8.286-16.944,27.1-16.944a30.135,30.135,0,0,1,22.709,10.329,2,2,0,1,0,3.013-2.629,34.13,34.13,0,0,0-25.722-11.7c-16.339,0-25.421,10.758-28.966,16.194a12.1,12.1,0,0,0-9.284-4.319,12.513,12.513,0,0,0-1.358.075,18.633,18.633,0,0,0-32.821-3.766,13.476,13.476,0,0,0-6.571-1.684,13.641,13.641,0,0,0-13.625,13.625c0,8.954,3.327,13.2,4.926,15.235a2,2,0,0,0,1.574.765h84.249A2,2,0,0,0,2064.011,258.075Z" fill="#fff"/>
    <path id="Path_9102" data-name="Path 9102" d="M2126.9,261.134a21.44,21.44,0,0,0-3.353.264,28.807,28.807,0,0,0-25.04-14.763,28.433,28.433,0,0,0-26.079,16.831q-.264-.006-.528-.006c-7.225,0-13.664,2.546-17.667,6.984-3.569,3.959-5.122,9.281-4.488,15.389a2,2,0,0,0,1.989,1.794h94.333a2,2,0,0,0,1.994-1.837c.607-7.428-1.237-13.7-5.332-18.145A21.138,21.138,0,0,0,2126.9,261.134Zm-73.292,22.493a14.625,14.625,0,0,1,3.6-10.5c3.245-3.6,8.6-5.663,14.7-5.663.557,0,1.107.025,1.634.075a2,2,0,0,0,2.051-1.262,24.472,24.472,0,0,1,22.922-15.638,24.769,24.769,0,0,1,22.157,13.887,2.007,2.007,0,0,0,2.262,1.075,18.243,18.243,0,0,1,16.861,4.757c2.989,3.245,4.488,7.806,4.381,13.273Z" fill="#fff"/>
    <path id="Path_9103" data-name="Path 9103" d="M2401.843,245.645a37.382,37.382,0,0,0-72.057,12.117,11.747,11.747,0,0,0-8.1,1.212,18.625,18.625,0,0,0-34.239,10.153,18.555,18.555,0,0,0,1.211,6.618,2,2,0,0,0,1.869,1.289h123.794a2,2,0,0,0,1.786-1.1c1.416-2.8,2.076-8.311,2.076-11.154A19.264,19.264,0,0,0,2401.843,245.645Zm11.125,27.389h-121a14.629,14.629,0,0,1,27.246-10.319,2,2,0,0,0,2.972.782,2.016,2.016,0,0,0,.24-.2,7.743,7.743,0,0,1,8.3-1,2.006,2.006,0,0,0,3.027-1.85c-.009-.312-.014-.627-.014-.943a33.381,33.381,0,0,1,64.721-11.489,2,2,0,0,0,1.747,1.46,15.288,15.288,0,0,1,13.965,15.31A31.543,31.543,0,0,1,2412.968,273.034Z" fill="#fff"/>
    <path id="Path_9104" data-name="Path 9104" d="M2147.314,135.2a8.421,8.421,0,0,0-14.2-.324l-52.725,78.711a2,2,0,1,0,3.324,2.226l52.725-78.71a4.421,4.421,0,0,1,7.445.154l82.338,138.8a2,2,0,1,0,3.439-2.041Z" fill="#fff"/>
    <path id="Path_9105" data-name="Path 9105" d="M2318.387,238.034a2,2,0,0,0,1.593-3.206l-55.55-73.462a8.776,8.776,0,0,0-7.047-3.51h-.008a8.771,8.771,0,0,0-7.039,3.491l-42.367,55.3a2,2,0,0,0,3.176,2.432l42.372-55.312a4.8,4.8,0,0,1,3.858-1.915h0a4.807,4.807,0,0,1,3.859,1.922l55.551,73.462A2,2,0,0,0,2318.387,238.034Z" fill="#fff"/>
    <path id="Path_9106" data-name="Path 9106" d="M1983.834,79.2c.051,0,.1.006.151.006a2,2,0,0,0,1.993-1.851c.517-6.907,3.195-15.554,13.01-17.527a2,2,0,1,0-.789-3.922c-9.575,1.925-15.332,9.437-16.21,21.151A2,2,0,0,0,1983.834,79.2Z" fill="#55f4f0"/>
    <path id="Path_9107" data-name="Path 9107" d="M2395.578,252.539a2,2,0,0,0,.285,3.99c3.188-.231,5.706.507,7.494,2.179a9.767,9.767,0,0,1,2.778,7.321,2,2,0,0,0,1.991,2.009h.009a2,2,0,0,0,2-1.991,13.7,13.7,0,0,0-4.045-10.261C2403.491,253.355,2399.853,252.241,2395.578,252.539Z" fill="#55f4f0"/>
    <path id="Path_9108" data-name="Path 9108" d="M2344.366,80.492c-12.839,0-22.084,7.755-26.032,21.835a2,2,0,1,0,3.852,1.08c3.469-12.374,11.139-18.915,22.18-18.915a2,2,0,0,0,0-4Z" fill="#55f4f0"/>
    <path id="Path_9109" data-name="Path 9109" d="M2095.714,254.257c-7.279,1.764-12.539,5.766-16.554,12.6a2,2,0,0,0,3.449,2.027c3.475-5.913,7.807-9.225,14.046-10.737a2,2,0,1,0-.941-3.887Z" fill="#55f4f0"/>
    <path id="Path_9110" data-name="Path 9110" d="M2243.318,188.074a2,2,0,0,0-2.8.372l-28.164,36.766a2,2,0,1,0,3.175,2.432l28.164-36.766A2,2,0,0,0,2243.318,188.074Z" fill="#55f4f0"/>
  </g>
</svg>
