<svg xmlns="http://www.w3.org/2000/svg" width="549" height="243.274" viewBox="0 0 549 243.274">
  <g id="Group_2007" data-name="Group 2007" transform="translate(-1954.431 -319.888)">
    <path id="Path_9111" data-name="Path 9111" d="M2457.822,441.525c0-25.807-24.041-49.915-67.694-67.881-43.09-17.735-100.337-27.5-161.2-27.5-42.035,0-83.114,4.753-118.795,13.745q-1.746.439-3.47.891a2,2,0,1,0,1.014,3.869q1.705-.445,3.431-.881c35.369-8.913,76.111-13.624,117.82-13.624,60.349,0,117.056,9.66,159.675,27.2,42.055,17.308,65.216,40.1,65.216,64.182s-23.161,46.873-65.216,64.183c-42.619,17.54-99.326,27.2-159.675,27.2-43.207,0-85.193-5.031-121.417-14.55-35.142-9.233-63.3-22.217-81.428-37.55-14.629-12.372-22.047-25.589-22.047-39.283,0-17.343,12.229-34.286,35.365-48.994,1.684-1.072,3.453-2.147,5.258-3.2a2,2,0,1,0-2.01-3.459c-1.85,1.075-3.667,2.179-5.4,3.279-24.348,15.479-37.218,33.588-37.218,52.369,0,14.925,7.9,29.169,23.464,42.337,18.581,15.715,47.279,28.982,82.994,38.366,36.552,9.6,78.889,14.68,122.434,14.68,60.86,0,118.107-9.766,161.2-27.5C2433.781,491.44,2457.822,467.333,2457.822,441.525Z" fill="#fff"/>
    <path id="Path_9112" data-name="Path 9112" d="M1987.948,406.313a2,2,0,1,0-2.775-2.88c-12.445,11.991-18.755,24.807-18.755,38.092,0,8.872,2.868,17.64,8.523,26.059a2,2,0,0,0,3.321-2.23c-5.2-7.749-7.844-15.765-7.844-23.829C1970.418,429.368,1976.316,417.521,1987.948,406.313Z" fill="#55f4f0"/>
    <path id="Path_9113" data-name="Path 9113" d="M2308.521,339.09a2.062,2.062,0,0,0,.27.017,2,2,0,0,0,.264-3.982,597.241,597.241,0,0,0-65.577-5.069h-.047a2,2,0,0,0-.045,4A593.359,593.359,0,0,1,2308.521,339.09Z" fill="#55f4f0"/>
    <path id="Path_9114" data-name="Path 9114" d="M2167.865,414.311a1.993,1.993,0,0,0-2.349-1.575,217,217,0,0,0-21.189,5.233c-4.081,1.244-7.942,2.587-11.478,3.989a2,2,0,1,0,1.474,3.719c3.436-1.364,7.194-2.669,11.171-3.882a213.208,213.208,0,0,1,20.8-5.135A2,2,0,0,0,2167.865,414.311Z" fill="#55f4f0"/>
    <path id="Path_9115" data-name="Path 9115" d="M2052.283,450.059a2,2,0,0,0,3.819-1.19,24.658,24.658,0,0,1-1.139-7.344c0-12.172,9.391-24.114,27.158-34.532a159.416,159.416,0,0,1,26.557-12.118,260.707,260.707,0,0,1,28.951-8.418c27.408-6.371,58.979-9.738,91.3-9.738,46.766,0,90.7,6.9,123.717,19.436,32.405,12.3,50.25,28.415,50.25,45.37,0,13.152-10.822,25.894-31.295,36.849-14.831,7.936-34.484,14.657-56.837,19.439-26.051,5.573-55.733,8.518-85.835,8.518-40.774,0-80.456-5.431-111.738-15.29a2,2,0,0,0-1.2,3.814c31.66,9.98,71.77,15.476,112.941,15.476,30.38,0,60.349-2.977,86.671-8.606,22.715-4.86,42.732-11.714,57.887-19.824,21.857-11.7,33.409-25.657,33.409-40.376,0-18.734-18.761-36.175-52.83-49.109-33.457-12.7-77.9-19.7-125.137-19.7-32.622,0-64.507,3.4-92.208,9.842a264.891,264.891,0,0,0-29.4,8.55,163.322,163.322,0,0,0-27.227,12.431c-19.061,11.177-29.135,24.312-29.135,37.983A28.659,28.659,0,0,0,2052.283,450.059Z" fill="#fff"/>
    <path id="Path_9116" data-name="Path 9116" d="M2313.218,490.454a2,2,0,0,0,1.964,1.633,2.03,2.03,0,0,0,.369-.034,177.37,177.37,0,0,0,52.536-18.629,2,2,0,0,0-1.887-3.528,173.45,173.45,0,0,1-51.384,18.225A2,2,0,0,0,2313.218,490.454Z" fill="#55f4f0"/>
    <path id="Path_9117" data-name="Path 9117" d="M2264.646,400.355c-11.553-1.085-23.569-1.636-35.715-1.636a350,350,0,0,0-66.414,6.017,216.956,216.956,0,0,0-21.19,5.233,128.689,128.689,0,0,0-19.662,7.62c-13.976,6.956-21.362,15.233-21.362,23.936,0,24,56.5,42.806,128.628,42.806s128.628-18.8,128.628-42.806c0-9.627-8.917-18.618-25.788-26a2,2,0,0,0-1.6,3.664c15.084,6.6,23.392,14.535,23.392,22.337,0,21.036-57.073,38.806-124.628,38.806S2104.3,462.561,2104.3,441.525c0-7.083,6.62-14.122,19.145-20.356a124.663,124.663,0,0,1,19.046-7.374,213.256,213.256,0,0,1,20.8-5.135,345.923,345.923,0,0,1,65.641-5.941c12.021,0,23.912.545,35.34,1.619a2,2,0,0,0,.375-3.983Z" fill="#fff"/>
    <path id="Path_9118" data-name="Path 9118" d="M2185.626,423.631c-4.946.683-9.6,1.489-13.826,2.393a107.94,107.94,0,0,0-12.854,3.494c-9.648,3.367-14.541,7.407-14.541,12.007,0,12.272,34.273,17.268,49.008,18.846a2,2,0,0,0,.426-3.976c-29.827-3.2-45.434-9.9-45.434-14.87,0-2.562,4.434-5.639,11.86-8.23a103.568,103.568,0,0,1,12.371-3.358c4.134-.885,8.688-1.673,13.538-2.343a318.761,318.761,0,0,1,42.757-2.714c49.89,0,80.525,9.7,80.525,16.645,0,5.241-16.691,12.14-48.593,15.189a2,2,0,0,0,.189,3.991c.063,0,.128,0,.192-.009,12.248-1.171,52.212-6.013,52.212-19.171,0-13.41-43.55-20.645-84.525-20.645A322.939,322.939,0,0,0,2185.626,423.631Z" fill="#fff"/>
    <path id="Path_9119" data-name="Path 9119" d="M2447.943,368.006c-34.706-20.281-84.031-35.51-138.888-42.881a603.9,603.9,0,0,0-80.124-5.237c-73.058,0-141.775,12.505-193.491,35.21-52.24,22.934-81.009,53.629-81.009,86.427s28.769,63.493,81.009,86.427c51.716,22.706,120.433,35.21,193.491,35.21a593.45,593.45,0,0,0,95.281-7.49,2,2,0,1,0-.645-3.947,589.589,589.589,0,0,1-94.636,7.437c-149.155,0-270.5-52.771-270.5-117.637s121.345-117.637,270.5-117.637a599.9,599.9,0,0,1,79.59,5.2c54.346,7.3,103.144,22.348,137.4,42.37,35,20.455,53.506,44.684,53.506,70.065,0,18.505-9.726,36.258-28.906,52.768-18.539,15.958-45.665,30.122-78.446,40.961a2,2,0,0,0,1.256,3.8c33.273-11,60.868-25.43,79.8-41.726,19.82-17.06,30.3-36.355,30.3-55.8C2503.431,414.642,2484.243,389.219,2447.943,368.006Z" fill="#fff"/>
    <path id="Path_9120" data-name="Path 9120" d="M2358.044,529.216a16.5,16.5,0,1,0,16.5,16.5A16.519,16.519,0,0,0,2358.044,529.216Zm0,29a12.5,12.5,0,1,1,12.5-12.5A12.516,12.516,0,0,1,2358.044,558.219Z" fill="#fff"/>
    <path id="Path_9121" data-name="Path 9121" d="M2074.545,389.609a16.5,16.5,0,1,0-16.5-16.5A16.519,16.519,0,0,0,2074.545,389.609Zm0-29a12.5,12.5,0,1,1-12.5,12.5A12.516,12.516,0,0,1,2074.545,360.606Z" fill="#fff"/>
    <path id="Path_9122" data-name="Path 9122" d="M2317.184,407.182a16.5,16.5,0,1,0-16.5,16.5A16.52,16.52,0,0,0,2317.184,407.182Zm-29,0a12.5,12.5,0,1,1,12.5,12.5A12.515,12.515,0,0,1,2288.182,407.182Z" fill="#fff"/>
    <path id="Path_9123" data-name="Path 9123" d="M2080.252,493.327a16.5,16.5,0,1,0-16.5-16.5A16.519,16.519,0,0,0,2080.252,493.327Zm0-29a12.5,12.5,0,1,1-12.5,12.5A12.516,12.516,0,0,1,2080.252,464.325Z" fill="#fff"/>
    <path id="Path_9124" data-name="Path 9124" d="M2089.807,456.345a2,2,0,1,0,1.693-3.623,26.357,26.357,0,0,0-11.248-2.491,26.76,26.76,0,0,0-26.285,22.533,2,2,0,0,0,1.674,2.279,1.965,1.965,0,0,0,.3.023,2,2,0,0,0,1.974-1.7,22.734,22.734,0,0,1,22.332-19.138A22.393,22.393,0,0,1,2089.807,456.345Z" fill="#55f4f0"/>
    <path id="Path_9125" data-name="Path 9125" d="M2212.43,460.17a16.5,16.5,0,1,0,16.5-16.5A16.519,16.519,0,0,0,2212.43,460.17Zm29,0a12.5,12.5,0,1,1-12.5-12.5A12.516,12.516,0,0,1,2241.432,460.17Z" fill="#fff"/>
  </g>
</svg>
