<svg xmlns="http://www.w3.org/2000/svg" width="549" height="244" viewBox="0 0 549 244">
  <g id="Group_2009" data-name="Group 2009" transform="translate(-2439.466 -442.904)">
    <path id="Path_9160" data-name="Path 9160" d="M2729.343,521.823a94.736,94.736,0,0,0-23.742-15.681,2,2,0,1,0-1.678,3.63,90.7,90.7,0,1,1-121.567,46.983,2,2,0,1,0-3.681-1.563,94.113,94.113,0,0,0-7.492,36.985,94.407,94.407,0,0,0,26.022,65.215,94.73,94.73,0,0,0,132.064,5.2,94.676,94.676,0,0,0,.074-140.774Z" fill="#fff"/>
    <path id="Path_9161" data-name="Path 9161" d="M2613.3,517.811a1.989,1.989,0,0,0,1.134-.355,90.205,90.205,0,0,1,51.476-16.006,91.877,91.877,0,0,1,9.279.469,2,2,0,1,0,.405-3.981,96.4,96.4,0,0,0-9.684-.488,94.176,94.176,0,0,0-53.748,16.715,2,2,0,0,0,1.138,3.646Z" fill="#fff"/>
    <path id="Path_9162" data-name="Path 9162" d="M2690.5,521a2,2,0,0,0,2-2V444.9a2,2,0,1,0-4,0V519A2,2,0,0,0,2690.5,521Z" fill="#fff"/>
    <path id="Path_9163" data-name="Path 9163" d="M2706.5,487.9h45.934c4.217,0,7.649-4.206,7.649-9.375v-26.25c0-5.169-3.432-9.375-7.649-9.375H2706.5a2,2,0,0,0,0,4h45.934c1.978,0,3.649,2.462,3.649,5.375v26.25c0,2.913-1.671,5.375-3.649,5.375H2706.5a2,2,0,0,0,0,4Z" fill="#fff"/>
    <path id="Path_9164" data-name="Path 9164" d="M2584.166,545.437a6.7,6.7,0,0,0,4.374,1.47c3.906,0,8.684-2.611,12.484-7.206,5.422-6.553,6.51-14.3,2.479-17.636h0c-4.031-3.338-11.439-.817-16.859,5.736S2580.133,542.1,2584.166,545.437Zm5.559-15.085c3.123-3.775,6.916-5.764,9.389-5.764a2.825,2.825,0,0,1,1.838.559c1.94,1.605,1.065,7.08-3.01,12s-9.291,6.809-11.226,5.2S2585.65,535.275,2589.725,530.352Z" fill="#fff"/>
    <path id="Path_9165" data-name="Path 9165" d="M2629.183,663.771a20.433,20.433,0,0,0,10.972,3.757c2.972,0,5.446-1.015,6.823-3.071,1.512-2.257,1.442-5.269-.2-8.478a23.219,23.219,0,0,0-17.087-11.446c-3.6-.3-6.4.785-7.916,3.042C2618.864,651.924,2622.117,659.037,2629.183,663.771ZM2625.1,649.8c.569-.852,1.811-1.317,3.465-1.317.256,0,.523.012.8.035a19.277,19.277,0,0,1,13.854,9.279c.936,1.833,1.095,3.448.437,4.431-1.4,2.093-6.935,1.774-12.246-1.783S2623.7,651.894,2625.1,649.8Z" fill="#fff"/>
    <path id="Path_9166" data-name="Path 9166" d="M2729.655,565.06a6.756,6.756,0,0,0,4.49-1.54c2.066-1.764,2.812-4.682,2.1-8.215a23.222,23.222,0,0,0-13.355-15.641c-3.378-1.256-6.377-.976-8.444.789s-2.812,4.682-2.1,8.215a21.508,21.508,0,0,0,4.853,9.38C2721.025,562.53,2725.774,565.06,2729.655,565.06Zm-12.611-21.566a2.909,2.909,0,0,1,1.925-.6,7.387,7.387,0,0,1,2.527.518,19.278,19.278,0,0,1,10.828,12.68c.406,2.017.123,3.616-.777,4.385-1.914,1.631-7.157-.168-11.308-5.029a17.721,17.721,0,0,1-3.972-7.571C2715.86,545.861,2716.144,544.263,2717.044,543.494Z" fill="#fff"/>
    <path id="Path_9167" data-name="Path 9167" d="M2645.825,573.93a16.5,16.5,0,1,0-16.5,16.5A16.519,16.519,0,0,0,2645.825,573.93Zm-29,0a12.5,12.5,0,1,1,12.5,12.5A12.516,12.516,0,0,1,2616.823,573.93Z" fill="#fff"/>
    <path id="Path_9168" data-name="Path 9168" d="M2701.1,615.735a16.5,16.5,0,1,0-16.5-16.5A16.52,16.52,0,0,0,2701.1,615.735Zm0-29a12.5,12.5,0,1,1-12.5,12.5A12.517,12.517,0,0,1,2701.1,586.733Z" fill="#fff"/>
    <path id="Path_9169" data-name="Path 9169" d="M2971.074,623.874a2,2,0,0,0-2.828,2.828l8.5,8.5a2,2,0,1,0,2.828-2.828Z" fill="#fff"/>
    <path id="Path_9170" data-name="Path 9170" d="M2939.47,592.27a2,2,0,0,0-2.828,2.828l9.562,9.562a2,2,0,1,0,2.828-2.828Z" fill="#fff"/>
    <path id="Path_9171" data-name="Path 9171" d="M2958.107,628.072a2,2,0,0,0-2,2v12.022a2,2,0,0,0,4,0V630.072A2,2,0,0,0,2958.107,628.072Z" fill="#55f4f0"/>
    <path id="Path_9172" data-name="Path 9172" d="M2958.107,583.378a2,2,0,0,0-2,2V598.9a2,2,0,0,0,4,0V585.378A2,2,0,0,0,2958.107,583.378Z" fill="#55f4f0"/>
    <path id="Path_9173" data-name="Path 9173" d="M2945.142,623.874l-8.5,8.5a2,2,0,1,0,2.828,2.828l8.5-8.5a2,2,0,0,0-2.828-2.828Z" fill="#fff"/>
    <path id="Path_9174" data-name="Path 9174" d="M2970.012,604.66l9.562-9.562a2,2,0,0,0-2.828-2.828l-9.562,9.562a2,2,0,1,0,2.828,2.828Z" fill="#fff"/>
    <path id="Path_9175" data-name="Path 9175" d="M2943.771,613.735a2,2,0,0,0-2-2H2929.75a2,2,0,0,0,0,4h12.021A2,2,0,0,0,2943.771,613.735Z" fill="#55f4f0"/>
    <path id="Path_9176" data-name="Path 9176" d="M2986.466,611.735h-13.524a2,2,0,0,0,0,4h13.524a2,2,0,0,0,0-4Z" fill="#55f4f0"/>
    <path id="Path_9177" data-name="Path 9177" d="M2871.493,528.586a2,2,0,0,0-2.828,2.828l8.5,8.5a2,2,0,1,0,2.828-2.828Z" fill="#55f4f0"/>
    <path id="Path_9178" data-name="Path 9178" d="M2839.889,496.981a2,2,0,1,0-2.828,2.829l9.562,9.562a2,2,0,0,0,2.828-2.828Z" fill="#55f4f0"/>
    <path id="Path_9179" data-name="Path 9179" d="M2858.526,532.785a2,2,0,0,0-2,2v12.021a2,2,0,0,0,4,0V534.785A2,2,0,0,0,2858.526,532.785Z" fill="#fff"/>
    <path id="Path_9180" data-name="Path 9180" d="M2858.526,488.09a2,2,0,0,0-2,2v13.523a2,2,0,0,0,4,0V490.09A2,2,0,0,0,2858.526,488.09Z" fill="#fff"/>
    <path id="Path_9181" data-name="Path 9181" d="M2845.561,528.586l-8.5,8.5a2,2,0,1,0,2.828,2.828l8.5-8.5a2,2,0,0,0-2.828-2.828Z" fill="#55f4f0"/>
    <path id="Path_9182" data-name="Path 9182" d="M2870.431,509.372l9.562-9.562a2,2,0,1,0-2.828-2.829l-9.562,9.563a2,2,0,1,0,2.828,2.828Z" fill="#55f4f0"/>
    <path id="Path_9183" data-name="Path 9183" d="M2844.189,518.448a2,2,0,0,0-2-2h-12.02a2,2,0,0,0,0,4h12.02A2,2,0,0,0,2844.189,518.448Z" fill="#fff"/>
    <path id="Path_9184" data-name="Path 9184" d="M2886.885,516.448h-13.524a2,2,0,0,0,0,4h13.524a2,2,0,0,0,0-4Z" fill="#fff"/>
    <path id="Path_9185" data-name="Path 9185" d="M2544.2,492.09a2,2,0,0,0-2.828,2.828l8.5,8.5a2,2,0,0,0,2.828-2.828Z" fill="#fff"/>
    <path id="Path_9186" data-name="Path 9186" d="M2512.591,460.485a2,2,0,0,0-2.828,2.828l9.562,9.563a2,2,0,0,0,2.828-2.828Z" fill="#fff"/>
    <path id="Path_9187" data-name="Path 9187" d="M2531.229,496.289a2,2,0,0,0-2,2V510.31a2,2,0,0,0,4,0V498.289A2,2,0,0,0,2531.229,496.289Z" fill="#55f4f0"/>
    <path id="Path_9188" data-name="Path 9188" d="M2531.229,451.594a2,2,0,0,0-2,2v13.523a2,2,0,1,0,4,0V453.594A2,2,0,0,0,2531.229,451.594Z" fill="#55f4f0"/>
    <path id="Path_9189" data-name="Path 9189" d="M2518.263,492.09l-8.5,8.5a2,2,0,1,0,2.828,2.828l8.5-8.5a2,2,0,0,0-2.828-2.828Z" fill="#fff"/>
    <path id="Path_9190" data-name="Path 9190" d="M2543.133,472.876l9.562-9.563a2,2,0,0,0-2.828-2.828l-9.562,9.563a2,2,0,1,0,2.828,2.828Z" fill="#fff"/>
    <path id="Path_9191" data-name="Path 9191" d="M2516.893,481.952a2,2,0,0,0-2-2h-12.022a2,2,0,0,0,0,4h12.022A2,2,0,0,0,2516.893,481.952Z" fill="#55f4f0"/>
    <path id="Path_9192" data-name="Path 9192" d="M2559.587,479.952h-13.524a2,2,0,0,0,0,4h13.524a2,2,0,0,0,0-4Z" fill="#55f4f0"/>
    <path id="Path_9193" data-name="Path 9193" d="M2482.79,666.154a2,2,0,0,0-2.828,2.828l8.5,8.5a2,2,0,0,0,2.828-2.828Z" fill="#55f4f0"/>
    <path id="Path_9194" data-name="Path 9194" d="M2451.186,634.55a2,2,0,0,0-2.829,2.828l9.563,9.562a2,2,0,0,0,2.828-2.828Z" fill="#55f4f0"/>
    <path id="Path_9195" data-name="Path 9195" d="M2469.824,670.353a2,2,0,0,0-2,2v12.021a2,2,0,0,0,4,0V672.353A2,2,0,0,0,2469.824,670.353Z" fill="#fff"/>
    <path id="Path_9196" data-name="Path 9196" d="M2469.824,625.658a2,2,0,0,0-2,2v13.524a2,2,0,0,0,4,0V627.658A2,2,0,0,0,2469.824,625.658Z" fill="#fff"/>
    <path id="Path_9197" data-name="Path 9197" d="M2456.857,666.154l-8.5,8.5a2,2,0,0,0,2.829,2.828l8.5-8.5a2,2,0,0,0-2.829-2.828Z" fill="#55f4f0"/>
    <path id="Path_9198" data-name="Path 9198" d="M2481.728,646.94l9.562-9.562a2,2,0,0,0-2.828-2.828l-9.563,9.562a2,2,0,0,0,2.829,2.828Z" fill="#55f4f0"/>
    <path id="Path_9199" data-name="Path 9199" d="M2455.486,656.016a2,2,0,0,0-2-2h-12.02a2,2,0,0,0,0,4h12.02A2,2,0,0,0,2455.486,656.016Z" fill="#fff"/>
    <path id="Path_9200" data-name="Path 9200" d="M2498.182,654.016h-13.524a2,2,0,0,0,0,4h13.524a2,2,0,0,0,0-4Z" fill="#fff"/>
    <path id="Path_9201" data-name="Path 9201" d="M2567.834,618.01a2,2,0,1,0-3.9.869,94.556,94.556,0,0,0,23.756,44.525,2,2,0,1,0,2.9-2.754A90.575,90.575,0,0,1,2567.834,618.01Z" fill="#55f4f0"/>
    <path id="Path_9202" data-name="Path 9202" d="M2738.366,515.553a2,2,0,1,0-2.679,2.97,90.756,90.756,0,0,1,19.679,25.367,2,2,0,0,0,1.774,1.072,1.975,1.975,0,0,0,.925-.229,2,2,0,0,0,.844-2.7A94.713,94.713,0,0,0,2738.366,515.553Z" fill="#55f4f0"/>
    <path id="Path_9203" data-name="Path 9203" d="M2753.754,645.552a2,2,0,0,0-2.743.688,90.994,90.994,0,0,1-17.206,20.893,2,2,0,1,0,2.675,2.972,94.967,94.967,0,0,0,17.962-21.81A2,2,0,0,0,2753.754,645.552Z" fill="#55f4f0"/>
    <path id="Path_9204" data-name="Path 9204" d="M2726.082,476.75a2,2,0,0,0,2,2h21.375a2,2,0,0,0,0-4h-21.375A2,2,0,0,0,2726.082,476.75Z" fill="#55f4f0"/>
    <path id="Path_9205" data-name="Path 9205" d="M2726.113,451.688H2706.66a2,2,0,0,0,0,4h19.453a2,2,0,0,0,0-4Z" fill="#55f4f0"/>
  </g>
</svg>
