<svg id="Group_591" data-name="Group 591" xmlns="http://www.w3.org/2000/svg" width="230" height="230.327" viewBox="0 0 230 230.327">
  <circle id="Ellipse_86" data-name="Ellipse 86" cx="115" cy="115" r="115" transform="translate(0 0.327)" fill="none"/>
  <g id="Group_556" data-name="Group 556" transform="translate(0)">
    <path id="Path_2758" data-name="Path 2758" d="M1482.6,4321.189l.149.638c1.447-.34,2.9-.717,4.33-1.123l-.179-.63C1485.484,4320.477,1484.037,4320.853,1482.6,4321.189Z" transform="translate(-1345.533 -4112.534)" fill="#f2f2f2"/>
    <path id="Path_2759" data-name="Path 2759" d="M1460.316,4323.489c-.979.182-1.969.344-2.96.5a14.832,14.832,0,0,0-.294-1.854l-.639.146a14.25,14.25,0,0,1,.285,1.8c-.259.038-.519.081-.776.117l.09.648c.245-.034.491-.074.736-.11.011.231.019.463.02.7h.655c0-.265-.009-.529-.022-.794,1.013-.155,2.026-.321,3.027-.506Z" transform="translate(-1327.596 -4113.919)" fill="#f2f2f2"/>
    <path id="Path_2760" data-name="Path 2760" d="M1508.7,4312.958l.208.62c1.406-.471,2.822-.982,4.207-1.521l-.237-.61C1511.5,4311.981,1510.093,4312.489,1508.7,4312.958Z" transform="translate(-1363.084 -4106.732)" fill="#f2f2f2"/>
    <path id="Path_2761" data-name="Path 2761" d="M1433.409,4330.65l-.061-.652c-1.466.135-2.957.237-4.433.306l.03.653C1430.431,4330.889,1431.933,4330.786,1433.409,4330.65Z" transform="translate(-1309.426 -4119.209)" fill="#f2f2f2"/>
    <path id="Path_2762" data-name="Path 2762" d="M1533.989,4302.36l.266.6c1.358-.6,2.719-1.242,4.048-1.905l-.292-.586C1536.69,4301.126,1535.338,4301.764,1533.989,4302.36Z" transform="translate(-1380.094 -4099.348)" fill="#f2f2f2"/>
    <path id="Path_2763" data-name="Path 2763" d="M1602.956,4257.436l.419.5c1.14-.948,2.275-1.937,3.373-2.94l-.441-.483C1605.216,4255.512,1604.089,4256.494,1602.956,4257.436Z" transform="translate(-1426.479 -4068.443)" fill="#f2f2f2"/>
    <path id="Path_2764" data-name="Path 2764" d="M1581.319,4274.472l.371.54c1.224-.841,2.445-1.721,3.629-2.617l-.4-.522C1583.747,4272.762,1582.535,4273.636,1581.319,4274.472Z" transform="translate(-1411.927 -4080.115)" fill="#f2f2f2"/>
    <path id="Path_2765" data-name="Path 2765" d="M1473.708,3747.573c-1.447-.339-2.92-.648-4.38-.919l-.119.644c1.45.27,2.913.577,4.35.913Z" transform="translate(-1336.525 -3726.874)" fill="#f2f2f2"/>
    <path id="Path_2766" data-name="Path 2766" d="M1378.976,4328.989c-1.467-.133-2.953-.3-4.417-.5l-.089.647c1.474.2,2.97.375,4.447.509Z" transform="translate(-1272.808 -4118.191)" fill="#f2f2f2"/>
    <path id="Path_2767" data-name="Path 2767" d="M1558.268,4289.491l.319.57c1.3-.723,2.592-1.487,3.854-2.271l-.345-.557C1560.842,4288.013,1559.554,4288.772,1558.268,4289.491Z" transform="translate(-1396.424 -4090.448)" fill="#f2f2f2"/>
    <path id="Path_2768" data-name="Path 2768" d="M1442.318,3743.563c1.468.134,2.955.3,4.417.506l.089-.648c-1.472-.2-2.968-.375-4.447-.51Z" transform="translate(-1318.44 -3724.357)" fill="#f2f2f2"/>
    <path id="Path_2769" data-name="Path 2769" d="M1287.428,3767.5l-.265-.6c-1.358.6-2.719,1.244-4.047,1.908l.293.585C1284.728,3768.732,1286.08,3768.094,1287.428,3767.5Z" transform="translate(-1211.367 -3740.489)" fill="#f2f2f2"/>
    <path id="Path_2770" data-name="Path 2770" d="M1347.6,4324.177c1.449.339,2.923.647,4.38.917l.12-.644c-1.448-.268-2.911-.575-4.351-.911Z" transform="translate(-1254.738 -4114.866)" fill="#f2f2f2"/>
    <path id="Path_2771" data-name="Path 2771" d="M1321.311,4316.76c1.406.471,2.845.916,4.275,1.32l.179-.63c-1.42-.4-2.849-.844-4.247-1.311Z" transform="translate(-1237.055 -4109.889)" fill="#f2f2f2"/>
    <path id="Path_2772" data-name="Path 2772" d="M1312.507,3757.625l-.209-.621c-1.406.473-2.822.985-4.206,1.523l.237.61C1309.7,3758.6,1311.11,3758.094,1312.507,3757.625Z" transform="translate(-1228.165 -3733.835)" fill="#f2f2f2"/>
    <path id="Path_2773" data-name="Path 2773" d="M1338.464,3750.158l-.15-.639c-1.443.34-2.9.718-4.33,1.126l.18.629C1335.585,3750.87,1337.031,3750.494,1338.464,3750.158Z" transform="translate(-1245.579 -3728.801)" fill="#f2f2f2"/>
    <path id="Path_2774" data-name="Path 2774" d="M1295.83,4306.942c1.357.6,2.747,1.174,4.134,1.711l.237-.61c-1.377-.534-2.759-1.105-4.105-1.7Z" transform="translate(-1219.917 -4103.299)" fill="#f2f2f2"/>
    <path id="Path_2775" data-name="Path 2775" d="M1360.7,3745.288c.985-.184,1.983-.348,2.983-.5a14.97,14.97,0,0,0,.323,2.158l.638-.147a14.19,14.19,0,0,1-.313-2.109c.251-.037.5-.079.753-.114l-.09-.648c-.232.032-.464.071-.7.1,0-.129-.011-.259-.012-.389l-.655,0c0,.162.009.323.015.485-1.027.158-2.054.326-3.066.516Z" transform="translate(-1263.463 -3724.848)" fill="#f2f2f2"/>
    <path id="Path_2776" data-name="Path 2776" d="M1387.625,3736.4l.06.652c1.464-.135,2.955-.238,4.434-.307l-.031-.654c-1.2.056-2.407.14-3.6.24a8.12,8.12,0,0,1,.611-2.861l-.6-.25a8.772,8.772,0,0,0-.663,3.165Z" transform="translate(-1281.656 -3717.84)" fill="#f2f2f2"/>
    <path id="Path_2777" data-name="Path 2777" d="M1706.221,4068.915l.648.089c.2-1.472.375-2.967.509-4.446l-.652-.059C1706.593,4065.967,1706.422,4067.453,1706.221,4068.915Z" transform="translate(-1495.931 -3940.645)" fill="#f2f2f2"/>
    <path id="Path_2778" data-name="Path 2778" d="M1708.787,4037.408c0,1.47-.034,2.957-.1,4.42l.655.029c.066-1.473.1-2.97.1-4.449v-.023Z" transform="translate(-1497.589 -3922.408)" fill="#f2f2f2"/>
    <path id="Path_2779" data-name="Path 2779" d="M1704.675,3983.043l-.644.12c.269,1.448.508,2.922.711,4.386l.649-.091C1705.187,3985.985,1704.946,3984.5,1704.675,3983.043Z" transform="translate(-1494.458 -3885.86)" fill="#f2f2f2"/>
    <path id="Path_2780" data-name="Path 2780" d="M1550.434,3774.706c-1.3-.725-2.629-1.428-3.956-2.089l-.292.585c1.318.658,2.64,1.356,3.929,2.076Z" transform="translate(-1388.297 -3744.335)" fill="#f2f2f2"/>
    <path id="Path_2781" data-name="Path 2781" d="M1525.736,3763.28c-1.357-.6-2.748-1.176-4.133-1.714l-.237.611c1.376.534,2.758,1.106,4.105,1.7Z" transform="translate(-1371.605 -3736.903)" fill="#f2f2f2"/>
    <path id="Path_2782" data-name="Path 2782" d="M1596.154,3804.175c-1.142-.95-2.322-1.885-3.505-2.781l-.4.522c1.176.89,2.347,1.818,3.482,2.762Z" transform="translate(-1419.281 -3763.69)" fill="#f2f2f2"/>
    <path id="Path_2783" data-name="Path 2783" d="M1708.056,4014.588l.654-.03c-.068-1.486-.171-2.987-.306-4.464l-.652.061C1707.886,4011.621,1707.988,4013.112,1708.056,4014.588Z" transform="translate(-1496.96 -3904.054)" fill="#f2f2f2"/>
    <path id="Path_2784" data-name="Path 2784" d="M1635.734,3841.552c-.949-1.141-1.937-2.276-2.939-3.374l-.484.441c.995,1.09,1.977,2.218,2.919,3.351Z" transform="translate(-1446.223 -3788.43)" fill="#f2f2f2"/>
    <path id="Path_2785" data-name="Path 2785" d="M1623,4238.538l.463.463c1.051-1.053,2.09-2.141,3.089-3.236l-.484-.441C1625.077,4236.412,1624.045,4237.493,1623,4238.538Z" transform="translate(-1439.96 -4055.535)" fill="#f2f2f2"/>
    <path id="Path_2786" data-name="Path 2786" d="M1616.8,3821.951c-1.051-1.05-2.139-2.09-3.236-3.09l-.441.484c1.089.994,2.171,2.027,3.214,3.069Z" transform="translate(-1433.317 -3775.438)" fill="#f2f2f2"/>
    <path id="Path_2787" data-name="Path 2787" d="M1701.269,4095.74l.637.148c.339-1.446.647-2.92.918-4.38l-.644-.119C1701.912,4092.839,1701.605,4094.3,1701.269,4095.74Z" transform="translate(-1492.601 -3958.729)" fill="#f2f2f2"/>
    <path id="Path_2788" data-name="Path 2788" d="M1573.973,3788.379c-1.223-.839-2.484-1.663-3.746-2.446l-.345.557c1.254.777,2.506,1.6,3.72,2.428Z" transform="translate(-1404.234 -3753.292)" fill="#f2f2f2"/>
    <path id="Path_2789" data-name="Path 2789" d="M1671.951,4172.3l.572.32c.724-1.3,1.426-2.628,2.089-3.958l-.586-.292C1673.367,4169.694,1672.669,4171.016,1671.951,4172.3Z" transform="translate(-1472.883 -4010.507)" fill="#f2f2f2"/>
    <path id="Path_2790" data-name="Path 2790" d="M1657.649,4195.793l.54.371c.838-1.222,1.662-2.483,2.446-3.746l-.557-.346C1659.3,4193.327,1658.482,4194.58,1657.649,4195.793Z" transform="translate(-1463.264 -4026.445)" fill="#f2f2f2"/>
    <path id="Path_2791" data-name="Path 2791" d="M1665.576,3881.71l-.557.345c.778,1.253,1.537,2.541,2.256,3.829l.572-.319C1667.123,3884.269,1666.359,3882.971,1665.576,3881.71Z" transform="translate(-1468.22 -3817.708)" fill="#f2f2f2"/>
    <path id="Path_2792" data-name="Path 2792" d="M1650.184,3859.186l-.522.4c.891,1.177,1.766,2.39,2.6,3.6l.54-.37C1651.962,3861.593,1651.081,3860.372,1650.184,3859.186Z" transform="translate(-1457.892 -3802.559)" fill="#f2f2f2"/>
    <path id="Path_2793" data-name="Path 2793" d="M1641.283,4217.934l.5.417c.951-1.144,1.886-2.324,2.78-3.5l-.523-.4C1643.157,4215.624,1642.228,4216.8,1641.283,4217.934Z" transform="translate(-1452.256 -4041.496)" fill="#f2f2f2"/>
    <path id="Path_2794" data-name="Path 2794" d="M1693.862,4122.063l.621.208c.47-1.4.915-2.843,1.321-4.275l-.63-.18C1694.771,4119.239,1694.329,4120.668,1693.862,4122.063Z" transform="translate(-1487.619 -3976.503)" fill="#f2f2f2"/>
    <path id="Path_2795" data-name="Path 2795" d="M1698.471,3956.449l-.63.179c.4,1.418.777,2.865,1.114,4.3l.637-.149C1699.253,3959.333,1698.876,3957.876,1698.471,3956.449Z" transform="translate(-1490.295 -3867.974)" fill="#f2f2f2"/>
    <path id="Path_2796" data-name="Path 2796" d="M1500.086,3754.21c-1.412-.474-2.85-.918-4.275-1.323l-.179.63c1.415.4,2.844.843,4.246,1.313Z" transform="translate(-1354.297 -3731.066)" fill="#f2f2f2"/>
    <path id="Path_2797" data-name="Path 2797" d="M1689.831,3930.549l-.611.236c.534,1.377,1.042,2.784,1.509,4.179l.621-.208C1690.88,3933.352,1690.369,3931.936,1689.831,3930.549Z" transform="translate(-1484.497 -3850.555)" fill="#f2f2f2"/>
    <path id="Path_2798" data-name="Path 2798" d="M1678.832,3905.563l-.586.292c.659,1.319,1.294,2.672,1.891,4.021l.6-.265C1680.135,3908.254,1679.495,3906.892,1678.832,3905.563Z" transform="translate(-1477.116 -3833.75)" fill="#f2f2f2"/>
    <path id="Path_2799" data-name="Path 2799" d="M1684.061,4147.657l.6.264c.6-1.357,1.176-2.749,1.713-4.134l-.611-.236C1685.229,4144.927,1684.657,4146.308,1684.061,4147.657Z" transform="translate(-1481.027 -3993.812)" fill="#f2f2f2"/>
    <path id="Path_2800" data-name="Path 2800" d="M1263.445,3779.686l-.32-.572c-1.294.724-2.591,1.489-3.854,2.274l.346.556C1260.871,3781.164,1262.159,3780.4,1263.445,3779.686Z" transform="translate(-1195.33 -3748.705)" fill="#f2f2f2"/>
    <path id="Path_2801" data-name="Path 2801" d="M1240.759,3794.077l-.371-.54c-1.22.838-2.44,1.719-3.627,2.619l.4.522C1238.335,3795.784,1239.547,3794.909,1240.759,3794.077Z" transform="translate(-1180.19 -3758.406)" fill="#f2f2f2"/>
    <path id="Path_2802" data-name="Path 2802" d="M1120.389,4051.241l-.654.03c.069,1.487.173,2.99.309,4.463l.652-.06C1120.561,4054.21,1120.458,4052.719,1120.389,4051.241Z" transform="translate(-1101.483 -3931.728)" fill="#f2f2f2"/>
    <path id="Path_2803" data-name="Path 2803" d="M1144.617,4156.574c.6,1.36,1.244,2.721,1.906,4.047l.586-.293c-.658-1.316-1.3-2.669-1.894-4.02Z" transform="translate(-1118.218 -4002.393)" fill="#f2f2f2"/>
    <path id="Path_2804" data-name="Path 2804" d="M1122.244,4078.347c.2,1.474.446,2.959.718,4.415l.644-.12c-.27-1.446-.509-2.921-.713-4.385Z" transform="translate(-1103.171 -3949.897)" fill="#f2f2f2"/>
    <path id="Path_2805" data-name="Path 2805" d="M1134.728,4131.226c.472,1.405.983,2.821,1.522,4.206l.61-.236c-.534-1.376-1.043-2.782-1.511-4.178Z" transform="translate(-1111.567 -3985.383)" fill="#f2f2f2"/>
    <path id="Path_2806" data-name="Path 2806" d="M1121.793,3996.886l-.648-.089c-.2,1.467-.372,2.962-.507,4.446l.652.06C1121.424,3999.829,1121.593,3998.344,1121.793,3996.886Z" transform="translate(-1102.09 -3895.111)" fill="#f2f2f2"/>
    <path id="Path_2807" data-name="Path 2807" d="M1127.25,4105.073c.339,1.442.717,2.9,1.124,4.33l.63-.179c-.4-1.422-.78-2.868-1.116-4.3Z" transform="translate(-1106.537 -3967.833)" fill="#f2f2f2"/>
    <path id="Path_2808" data-name="Path 2808" d="M1120.07,4028.416c0-1.451.033-2.922.1-4.372l-.654-.029c-.065,1.459-.1,2.94-.1,4.4v.075h.655Z" transform="translate(-1101.268 -3913.417)" fill="#f2f2f2"/>
    <path id="Path_2809" data-name="Path 2809" d="M1125.914,3970.075l-.637-.149c-.337,1.441-.645,2.915-.916,4.38l.644.12C1125.273,3972.97,1125.58,3971.507,1125.914,3970.075Z" transform="translate(-1104.594 -3877.039)" fill="#f2f2f2"/>
    <path id="Path_2810" data-name="Path 2810" d="M1200.011,3828.925l-.464-.463c-1.049,1.05-2.087,2.139-3.088,3.238l.484.441C1197.938,3831.049,1198.97,3829.968,1200.011,3828.925Z" transform="translate(-1153.085 -3781.895)" fill="#f2f2f2"/>
    <path id="Path_2811" data-name="Path 2811" d="M1182.291,3849.081l-.5-.418c-.949,1.143-1.883,2.323-2.778,3.507l.522.394C1180.421,3851.388,1181.349,3850.217,1182.291,3849.081Z" transform="translate(-1141.349 -3795.482)" fill="#f2f2f2"/>
    <path id="Path_2812" data-name="Path 2812" d="M1152.925,3894.009l-.572-.319c-.724,1.3-1.426,2.631-2.087,3.958l.587.292C1151.509,3896.622,1152.206,3895.3,1152.925,3894.009Z" transform="translate(-1122.017 -3825.765)" fill="#f2f2f2"/>
    <path id="Path_2813" data-name="Path 2813" d="M1141.545,3918.414l-.6-.265c-.6,1.36-1.176,2.751-1.71,4.135l.611.236C1140.377,3921.146,1140.949,3919.764,1141.545,3918.414Z" transform="translate(-1114.598 -3842.215)" fill="#f2f2f2"/>
    <path id="Path_2814" data-name="Path 2814" d="M1219.554,3810.539l-.419-.5c-1.141.95-2.275,1.939-3.372,2.941l.441.484C1217.3,3812.465,1218.422,3811.483,1219.554,3810.539Z" transform="translate(-1166.068 -3769.502)" fill="#f2f2f2"/>
    <path id="Path_2815" data-name="Path 2815" d="M1132.515,3943.841l-.621-.208c-.47,1.407-.914,2.846-1.319,4.276l.63.178C1131.607,3946.668,1132.048,3945.239,1132.515,3943.841Z" transform="translate(-1108.774 -3859.355)" fill="#f2f2f2"/>
    <path id="Path_2816" data-name="Path 2816" d="M1248.151,4280.482c1.223.839,2.484,1.662,3.748,2.445l.345-.557c-1.255-.778-2.508-1.595-3.722-2.428Z" transform="translate(-1187.851 -4085.544)" fill="#f2f2f2"/>
    <path id="Path_2817" data-name="Path 2817" d="M1171.243,4204c.841,1.222,1.721,2.443,2.618,3.627l.522-.4c-.891-1.177-1.766-2.389-2.6-3.6Z" transform="translate(-1136.125 -4034.22)" fill="#f2f2f2"/>
    <path id="Path_2818" data-name="Path 2818" d="M1271.373,4294.813c1.3.724,2.63,1.426,3.957,2.088l.292-.587c-1.319-.656-2.641-1.354-3.931-2.073Z" transform="translate(-1203.469 -4095.159)" fill="#f2f2f2"/>
    <path id="Path_2819" data-name="Path 2819" d="M1166.008,3870.464c-.837,1.222-1.66,2.483-2.443,3.749l.557.345c.778-1.256,1.595-2.509,2.427-3.723Z" transform="translate(-1130.961 -3810.144)" fill="#f2f2f2"/>
    <path id="Path_2820" data-name="Path 2820" d="M1226.353,4264.088c1.144.949,2.323,1.884,3.506,2.778l.395-.522c-1.175-.888-2.346-1.817-3.483-2.76Z" transform="translate(-1173.19 -4074.542)" fill="#f2f2f2"/>
    <path id="Path_2821" data-name="Path 2821" d="M1206.158,4245.77c1.052,1.05,2.141,2.089,3.237,3.089l.441-.483c-1.089-.993-2.17-2.025-3.215-3.069Z" transform="translate(-1159.608 -4062.248)" fill="#f2f2f2"/>
    <path id="Path_2822" data-name="Path 2822" d="M1187.736,4225.684c.947,1.138,1.936,2.272,2.94,3.373l.483-.441c-1-1.093-1.98-2.22-2.92-3.351Z" transform="translate(-1147.218 -4048.769)" fill="#f2f2f2"/>
    <path id="Path_2823" data-name="Path 2823" d="M1156.825,4180.9c.725,1.3,1.489,2.593,2.273,3.854l.556-.345c-.778-1.253-1.538-2.541-2.257-3.828Z" transform="translate(-1126.428 -4018.717)" fill="#f2f2f2"/>
    <path id="Path_2824" data-name="Path 2824" d="M1244.4,3860.656l.463.463.042-.043c1.02-1.019,2.08-2.023,3.149-2.981l-.437-.488c-1.079.966-2.147,1.978-3.178,3.009Z" transform="translate(-1185.329 -3801.497)" fill="#f2f2f2"/>
    <path id="Path_2825" data-name="Path 2825" d="M1557.291,4224.573c-1.143.914-2.324,1.8-3.51,2.647l.379.533c1.2-.85,2.387-1.748,3.539-2.669Z" transform="translate(-1393.406 -4048.304)" fill="#f2f2f2"/>
    <path id="Path_2826" data-name="Path 2826" d="M1348.477,4268.194c1.413.405,2.858.776,4.3,1.1l.144-.639c-1.424-.323-2.857-.69-4.259-1.093Z" transform="translate(-1255.326 -4077.218)" fill="#f2f2f2"/>
    <path id="Path_2827" data-name="Path 2827" d="M1298.529,4247.632c1.288.713,2.613,1.4,3.939,2.037l.284-.59c-1.315-.633-2.629-1.313-3.906-2.02Z" transform="translate(-1221.733 -4063.427)" fill="#f2f2f2"/>
    <path id="Path_2828" data-name="Path 2828" d="M1335.476,3807.487c1.376-.483,2.785-.933,4.186-1.336l-.182-.63c-1.413.408-2.833.862-4.221,1.349Z" transform="translate(-1246.436 -3766.466)" fill="#f2f2f2"/>
    <path id="Path_2829" data-name="Path 2829" d="M1379.345,4274.106c-1.455-.162-2.921-.366-4.355-.607l-.109.646c1.447.244,2.924.449,4.392.612Z" transform="translate(-1273.084 -4081.21)" fill="#f2f2f2"/>
    <path id="Path_2830" data-name="Path 2830" d="M1322.918,4259.317c1.359.563,2.752,1.094,4.143,1.579l.216-.618c-1.379-.482-2.761-1.009-4.108-1.567Z" transform="translate(-1238.136 -4071.265)" fill="#f2f2f2"/>
    <path id="Path_2831" data-name="Path 2831" d="M1651.234,4068.564l.646.109c.244-1.451.45-2.929.613-4.393l-.651-.072C1651.681,4065.659,1651.477,4067.125,1651.234,4068.564Z" transform="translate(-1458.949 -3940.448)" fill="#f2f2f2"/>
    <path id="Path_2832" data-name="Path 2832" d="M1264.97,3843.883c1.14-.913,2.32-1.8,3.508-2.649l-.38-.534c-1.2.853-2.387,1.752-3.537,2.672Z" transform="translate(-1198.887 -3790.125)" fill="#f2f2f2"/>
    <path id="Path_2833" data-name="Path 2833" d="M1177.237,4077.844c.245,1.448.535,2.911.863,4.347l.638-.146c-.324-1.424-.612-2.874-.855-4.31Z" transform="translate(-1140.157 -3949.547)" fill="#f2f2f2"/>
    <path id="Path_2834" data-name="Path 2834" d="M1654.2,4041.792l.654.036c.081-1.462.121-2.946.121-4.413v-.02l-.655.02C1654.323,4038.869,1654.283,4040.342,1654.2,4041.792Z" transform="translate(-1460.945 -3922.415)" fill="#f2f2f2"/>
    <path id="Path_2835" data-name="Path 2835" d="M1286.956,3829.072c1.234-.779,2.507-1.532,3.782-2.24l-.318-.573c-1.286.714-2.57,1.474-3.814,2.259Z" transform="translate(-1213.714 -3780.414)" fill="#f2f2f2"/>
    <path id="Path_2836" data-name="Path 2836" d="M1498.654,3811.152c-1.357-.563-2.751-1.1-4.142-1.583l-.216.619c1.379.482,2.761,1.01,4.108,1.569Z" transform="translate(-1353.398 -3769.189)" fill="#f2f2f2"/>
    <path id="Path_2837" data-name="Path 2837" d="M1226.883,3880.556c.908-1.138,1.862-2.269,2.836-3.359l-.489-.437c-.981,1.1-1.943,2.239-2.859,3.388Z" transform="translate(-1173.202 -3814.379)" fill="#f2f2f2"/>
    <path id="Path_2838" data-name="Path 2838" d="M1638,4116.49c-.482,1.379-1.009,2.762-1.567,4.108l.6.251c.563-1.358,1.095-2.752,1.581-4.144Z" transform="translate(-1448.996 -3975.612)" fill="#f2f2f2"/>
    <path id="Path_2839" data-name="Path 2839" d="M1610.476,4168.431l.534.379c.853-1.2,1.682-2.437,2.466-3.684l-.555-.349C1612.143,4166.013,1611.321,4167.242,1610.476,4168.431Z" transform="translate(-1431.537 -4008.088)" fill="#f2f2f2"/>
    <path id="Path_2840" data-name="Path 2840" d="M1578.407,4207.162l-.476-.449c-1.03,1.028-2.1,2.041-3.18,3.009l.437.488c1.09-.976,2.168-2,3.2-3.026Z" transform="translate(-1407.509 -4036.292)" fill="#f2f2f2"/>
    <path id="Path_2841" data-name="Path 2841" d="M1199.639,3920.839c-.713,1.289-1.4,2.614-2.035,3.938l.59.284c.632-1.313,1.311-2.627,2.018-3.907Z" transform="translate(-1153.855 -3844.025)" fill="#f2f2f2"/>
    <path id="Path_2842" data-name="Path 2842" d="M1310.554,3816.884c1.311-.634,2.66-1.24,4.009-1.8l-.251-.6c-1.36.565-2.72,1.176-4.043,1.815Z" transform="translate(-1229.629 -3772.491)" fill="#f2f2f2"/>
    <path id="Path_2843" data-name="Path 2843" d="M1596.566,4186.659c-.908,1.138-1.863,2.268-2.838,3.359l.489.435c.983-1.1,1.945-2.238,2.861-3.385Z" transform="translate(-1420.273 -4022.805)" fill="#f2f2f2"/>
    <path id="Path_2844" data-name="Path 2844" d="M1213.7,3898.3l-.534-.379c-.853,1.2-1.682,2.442-2.464,3.686l.554.349C1212.033,3900.721,1212.855,3899.491,1213.7,3898.3Z" transform="translate(-1162.665 -3828.61)" fill="#f2f2f2"/>
    <path id="Path_2845" data-name="Path 2845" d="M1183.879,4103.9l-.629.181c.406,1.412.859,2.831,1.347,4.222l.618-.217C1184.731,4106.7,1184.282,4105.294,1183.879,4103.9Z" transform="translate(-1144.201 -3967.141)" fill="#f2f2f2"/>
    <path id="Path_2846" data-name="Path 2846" d="M1206.787,4157.165c-.778-1.234-1.531-2.507-2.239-3.783l-.572.317c.713,1.288,1.473,2.571,2.258,3.814Z" transform="translate(-1158.141 -4000.424)" fill="#f2f2f2"/>
    <path id="Path_2847" data-name="Path 2847" d="M1176.569,3997.3l-.646-.109c-.243,1.449-.449,2.927-.611,4.392l.651.072C1176.124,4000.207,1176.327,3998.741,1176.569,3997.3Z" transform="translate(-1138.862 -3895.379)" fill="#f2f2f2"/>
    <path id="Path_2848" data-name="Path 2848" d="M1633.319,3936.738c-.563-1.358-1.173-2.719-1.812-4.045l-.59.285c.634,1.315,1.239,2.665,1.8,4.011Z" transform="translate(-1445.284 -3851.997)" fill="#f2f2f2"/>
    <path id="Path_2849" data-name="Path 2849" d="M1459.875,4271.491l-.145-.638c-1.418.322-2.869.609-4.311.854l.11.646C1456.982,4272.106,1458.445,4271.816,1459.875,4271.491Z" transform="translate(-1327.251 -4079.431)" fill="#f2f2f2"/>
    <path id="Path_2850" data-name="Path 2850" d="M1433.2,4275.979l-.073-.651c-1.447.163-2.922.285-4.381.367l.036.654C1430.259,4276.265,1431.745,4276.141,1433.2,4275.979Z" transform="translate(-1309.315 -4082.44)" fill="#f2f2f2"/>
    <path id="Path_2851" data-name="Path 2851" d="M1254.461,4216.512c1.1.981,2.238,1.944,3.386,2.86l.409-.513c-1.139-.908-2.269-1.863-3.359-2.837Z" transform="translate(-1192.095 -4042.553)" fill="#f2f2f2"/>
    <path id="Path_2852" data-name="Path 2852" d="M1510.917,4253.144c-1.313.635-2.663,1.239-4.01,1.8l.251.605c1.359-.564,2.719-1.175,4.043-1.813Z" transform="translate(-1361.879 -4067.52)" fill="#f2f2f2"/>
    <path id="Path_2853" data-name="Path 2853" d="M1617.913,3909.369c.778,1.234,1.531,2.508,2.237,3.783l.573-.316c-.713-1.287-1.472-2.571-2.256-3.816Z" transform="translate(-1436.538 -3836.074)" fill="#f2f2f2"/>
    <path id="Path_2854" data-name="Path 2854" d="M1174.221,4051.1c.083,1.473.207,2.959.371,4.417l.651-.074c-.162-1.446-.286-2.919-.368-4.381Z" transform="translate(-1138.128 -3931.609)" fill="#f2f2f2"/>
    <path id="Path_2855" data-name="Path 2855" d="M1485.768,4263.43c-1.373.481-2.782.93-4.187,1.334l.181.63c1.417-.408,2.838-.86,4.223-1.347Z" transform="translate(-1344.847 -4074.438)" fill="#f2f2f2"/>
    <path id="Path_2856" data-name="Path 2856" d="M1648.613,3983.84c.323,1.42.61,2.871.853,4.311l.646-.109c-.245-1.452-.534-2.915-.86-4.347Z" transform="translate(-1457.186 -3886.299)" fill="#f2f2f2"/>
    <path id="Path_2857" data-name="Path 2857" d="M1654.1,4014.789c-.082-1.471-.206-2.957-.369-4.417l-.651.073c.162,1.447.285,2.922.366,4.381Z" transform="translate(-1460.19 -3904.24)" fill="#f2f2f2"/>
    <path id="Path_2858" data-name="Path 2858" d="M1647.026,4090.83l-.639-.145c-.323,1.425-.691,2.858-1.094,4.26l.629.181C1646.329,4093.712,1646.7,4092.267,1647.026,4090.83Z" transform="translate(-1454.954 -3958.256)" fill="#f2f2f2"/>
    <path id="Path_2859" data-name="Path 2859" d="M1406.191,4277.234h.033v-.655h-.041c-1.451,0-2.917-.04-4.356-.119l-.036.653c1.45.08,2.925.12,4.394.12Z" transform="translate(-1291.183 -4083.202)" fill="#f2f2f2"/>
    <path id="Path_2860" data-name="Path 2860" d="M1187.874,3949.588c.48-1.377,1.007-2.76,1.565-4.109l-.6-.25c-.563,1.36-1.094,2.754-1.578,4.144Z" transform="translate(-1146.894 -3860.428)" fill="#f2f2f2"/>
    <path id="Path_2861" data-name="Path 2861" d="M1642.531,3962.094l.629-.181c-.407-1.415-.86-2.836-1.345-4.223l-.618.217C1641.678,3959.282,1642.127,3960.691,1642.531,3962.094Z" transform="translate(-1452.198 -3868.809)" fill="#f2f2f2"/>
    <path id="Path_2862" data-name="Path 2862" d="M1472.932,3803.195c-1.416-.408-2.861-.779-4.294-1.1l-.146.639c1.422.323,2.855.691,4.259,1.095Z" transform="translate(-1336.043 -3764.159)" fill="#f2f2f2"/>
    <path id="Path_2863" data-name="Path 2863" d="M1179.795,3975.086l.639.145c.322-1.422.689-2.856,1.091-4.259l-.629-.181C1180.49,3972.207,1180.12,3973.652,1179.795,3975.086Z" transform="translate(-1141.877 -3877.62)" fill="#f2f2f2"/>
    <path id="Path_2864" data-name="Path 2864" d="M1602.358,3887.371c.912,1.141,1.8,2.322,2.647,3.51l.534-.378c-.852-1.2-1.75-2.39-2.669-3.54Z" transform="translate(-1426.077 -3821.24)" fill="#f2f2f2"/>
    <path id="Path_2865" data-name="Path 2865" d="M1627.385,4141.577l-.59-.285c-.634,1.314-1.313,2.628-2.021,3.905l.573.317C1626.061,4144.228,1626.746,4142.9,1627.385,4141.577Z" transform="translate(-1441.154 -3992.293)" fill="#f2f2f2"/>
    <path id="Path_2866" data-name="Path 2866" d="M1442.017,3798.238c1.45.161,2.916.366,4.355.609l.109-.646c-1.451-.245-2.929-.451-4.392-.614Z" transform="translate(-1318.237 -3761.13)" fill="#f2f2f2"/>
    <path id="Path_2867" data-name="Path 2867" d="M1221.592,4179.593c-.915-1.143-1.805-2.324-2.649-3.509l-.533.38c.85,1.195,1.748,2.385,2.67,3.539Z" transform="translate(-1167.848 -4015.692)" fill="#f2f2f2"/>
    <path id="Path_2868" data-name="Path 2868" d="M1387.932,3796.849l.073.651c1.446-.162,2.92-.287,4.381-.369l-.037-.654C1390.876,3796.56,1389.39,3796.686,1387.932,3796.849Z" transform="translate(-1281.862 -3760.384)" fill="#f2f2f2"/>
    <path id="Path_2869" data-name="Path 2869" d="M1523.316,3821.98c-1.286-.713-2.61-1.4-3.937-2.039l-.285.59c1.315.634,2.629,1.314,3.9,2.021Z" transform="translate(-1370.077 -3776.164)" fill="#f2f2f2"/>
    <path id="Path_2870" data-name="Path 2870" d="M1192.2,4129.469c.564,1.359,1.175,2.719,1.815,4.043l.59-.285c-.634-1.313-1.24-2.662-1.8-4.01Z" transform="translate(-1150.221 -3984.172)" fill="#f2f2f2"/>
    <path id="Path_2871" data-name="Path 2871" d="M1414.954,3796.092v.655h.082c1.463,0,2.942.041,4.4.121l.036-.654c-1.467-.081-2.958-.123-4.433-.123Z" transform="translate(-1300.036 -3760.124)" fill="#f2f2f2"/>
    <path id="Path_2872" data-name="Path 2872" d="M1568.248,3851.6c-1.1-.98-2.236-1.943-3.385-2.861l-.409.511c1.14.911,2.27,1.866,3.357,2.838Z" transform="translate(-1400.584 -3795.535)" fill="#f2f2f2"/>
    <path id="Path_2873" data-name="Path 2873" d="M1587.972,3870.008c-.98-1.1-2.005-2.18-3.046-3.221l-.463.463c1.032,1.032,2.049,2.107,3.021,3.195Z" transform="translate(-1414.041 -3807.671)" fill="#f2f2f2"/>
    <path id="Path_2874" data-name="Path 2874" d="M1235.8,4197.051l-.488.437c.973,1.086,1.989,2.16,3.02,3.19l.029.028.463-.463-.029-.029C1237.771,4199.193,1236.764,4198.128,1235.8,4197.051Z" transform="translate(-1179.215 -4029.794)" fill="#f2f2f2"/>
    <path id="Path_2875" data-name="Path 2875" d="M1174.493,4028.478c0-1.444.04-2.9.117-4.335l-.653-.037c-.079,1.445-.119,2.916-.119,4.372v.061h.655Z" transform="translate(-1137.871 -3913.478)" fill="#f2f2f2"/>
    <path id="Path_2876" data-name="Path 2876" d="M1542.927,3833.058l-.349.554c1.234.778,2.463,1.6,3.653,2.446l.379-.533C1545.41,3834.672,1544.171,3833.842,1542.927,3833.058Z" transform="translate(-1385.871 -3784.986)" fill="#f2f2f2"/>
    <path id="Path_2877" data-name="Path 2877" d="M1534.856,4240.133c-1.233.777-2.506,1.531-3.783,2.238l.318.573c1.288-.714,2.571-1.475,3.815-2.257Z" transform="translate(-1378.133 -4058.77)" fill="#f2f2f2"/>
    <path id="Path_2878" data-name="Path 2878" d="M1275.616,4233.3c1.2.852,2.438,1.681,3.685,2.466l.349-.555c-1.237-.777-2.466-1.6-3.655-2.445Z" transform="translate(-1206.323 -4053.814)" fill="#f2f2f2"/>
    <path id="Path_2879" data-name="Path 2879" d="M1365.6,3799.5c-1.45.247-2.912.537-4.346.864l.146.638c1.422-.325,2.872-.612,4.31-.856Z" transform="translate(-1263.921 -3762.417)" fill="#f2f2f2"/>
    <path id="Path_2880" data-name="Path 2880" d="M1365.874,4215.748c-1.435-.317-2.876-.691-4.282-1.113l-.188.627c1.422.426,2.878.806,4.329,1.126Z" transform="translate(-1264.02 -4041.62)" fill="#f2f2f2"/>
    <path id="Path_2881" data-name="Path 2881" d="M1335.9,4205.59c1.344.631,2.729,1.219,4.116,1.75l.234-.612c-1.373-.523-2.743-1.106-4.072-1.729Z" transform="translate(-1246.868 -4035.139)" fill="#f2f2f2"/>
    <path id="Path_2882" data-name="Path 2882" d="M1498,3870.2c-1.293-.729-2.63-1.417-3.975-2.049l-.278.594c1.331.624,2.653,1.306,3.932,2.025Z" transform="translate(-1353.029 -3808.585)" fill="#f2f2f2"/>
    <path id="Path_2883" data-name="Path 2883" d="M1316.241,4194.077c-1.28-.719-2.549-1.5-3.774-2.308l-.362.547c1.239.82,2.522,1.6,3.815,2.332Z" transform="translate(-1230.864 -4026.241)" fill="#f2f2f2"/>
    <path id="Path_2884" data-name="Path 2884" d="M1294.351,4178.088c-1.158-.9-2.3-1.848-3.4-2.831l-.437.488c1.109.993,2.264,1.956,3.435,2.86Z" transform="translate(-1216.344 -4015.136)" fill="#f2f2f2"/>
    <path id="Path_2885" data-name="Path 2885" d="M1258,3928.775c-.864,1.208-1.695,2.462-2.469,3.728l.559.342c.766-1.253,1.587-2.494,2.443-3.688Z" transform="translate(-1192.815 -3849.361)" fill="#f2f2f2"/>
    <path id="Path_2886" data-name="Path 2886" d="M1446.649,3853.29c-1.449-.321-2.929-.593-4.4-.808l-.094.648c1.456.212,2.92.481,4.353.8Z" transform="translate(-1318.33 -3798.05)" fill="#f2f2f2"/>
    <path id="Path_2887" data-name="Path 2887" d="M1541.816,3901.794l.471-.455q-.39-.4-.787-.8c-.787-.787-1.6-1.562-2.431-2.3l-.437.487c.818.734,1.627,1.5,2.406,2.279Q1541.431,3901.394,1541.816,3901.794Z" transform="translate(-1383.217 -3828.822)" fill="#f2f2f2"/>
    <path id="Path_2888" data-name="Path 2888" d="M1493.769,4200.784l.278.594c1.341-.63,2.677-1.319,3.974-2.049l-.321-.57C1496.418,4199.481,1495.1,4200.162,1493.769,4200.784Z" transform="translate(-1353.044 -4030.943)" fill="#f2f2f2"/>
    <path id="Path_2889" data-name="Path 2889" d="M1521.276,3884.139c-1.175-.91-2.4-1.786-3.633-2.606l-.362.546c1.223.81,2.432,1.678,3.595,2.578Z" transform="translate(-1368.856 -3817.589)" fill="#f2f2f2"/>
    <path id="Path_2890" data-name="Path 2890" d="M1541.047,4166.595c-.778.778-1.586,1.543-2.4,2.275l.438.487c.824-.739,1.64-1.513,2.427-2.3q.4-.4.791-.807l-.471-.454C1541.572,4166.065,1541.311,4166.332,1541.047,4166.595Z" transform="translate(-1383.226 -4008.774)" fill="#f2f2f2"/>
    <path id="Path_2891" data-name="Path 2891" d="M1468.524,3859.018c1.4.423,2.814.9,4.188,1.428l.234-.611c-1.388-.532-2.813-1.017-4.233-1.444Z" transform="translate(-1336.065 -3802.024)" fill="#f2f2f2"/>
    <path id="Path_2892" data-name="Path 2892" d="M1258.649,4137.576c-.857-1.192-1.68-2.433-2.447-3.684l-.558.342c.775,1.266,1.607,2.518,2.473,3.725Z" transform="translate(-1192.89 -3987.316)" fill="#f2f2f2"/>
    <path id="Path_2893" data-name="Path 2893" d="M1517.294,4186.41l.362.545c1.237-.82,2.459-1.7,3.633-2.605l-.4-.519C1519.727,4184.731,1518.517,4185.6,1517.294,4186.41Z" transform="translate(-1368.866 -4020.903)" fill="#f2f2f2"/>
    <path id="Path_2894" data-name="Path 2894" d="M1335.7,3864.6l.279.593c1.331-.626,2.7-1.21,4.068-1.734l-.235-.612C1338.428,3863.376,1337.045,3863.966,1335.7,3864.6Z" transform="translate(-1246.732 -3805.02)" fill="#f2f2f2"/>
    <path id="Path_2895" data-name="Path 2895" d="M1271.923,3911.55c.938-1.127,1.931-2.235,2.952-3.295l-.472-.454c-1.031,1.07-2.035,2.19-2.983,3.33Z" transform="translate(-1203.5 -3835.256)" fill="#f2f2f2"/>
    <path id="Path_2896" data-name="Path 2896" d="M1224.245,4062.2c-.265-1.441-.481-2.912-.641-4.373l-.651.071c.053.478.113.957.177,1.435a8.13,8.13,0,0,1-3.056-.609l-.25.606a8.793,8.793,0,0,0,3.373.659h0l0-.122v-.009c.117.825.249,1.648.4,2.461Z" transform="translate(-1168.8 -3936.157)" fill="#f2f2f2"/>
    <path id="Path_2897" data-name="Path 2897" d="M1312.287,3877.345c1.224-.813,2.493-1.59,3.771-2.311l-.322-.57c-1.292.728-2.575,1.515-3.812,2.335Z" transform="translate(-1230.743 -3812.834)" fill="#f2f2f2"/>
    <path id="Path_2898" data-name="Path 2898" d="M1290.789,3892.915c1.091-.98,2.234-1.934,3.4-2.835l-.4-.518c-1.175.911-2.329,1.875-3.432,2.866Z" transform="translate(-1216.233 -3822.989)" fill="#f2f2f2"/>
    <path id="Path_2899" data-name="Path 2899" d="M1235.541,3977.2c-.478,1.4-.91,2.846-1.283,4.285l.634.165c.37-1.423.8-2.85,1.269-4.239Z" transform="translate(-1178.507 -3881.928)" fill="#f2f2f2"/>
    <path id="Path_2900" data-name="Path 2900" d="M1243.047,3956.118l.6.255c.574-1.352,1.205-2.7,1.878-4.005l-.583-.3C1244.266,3953.388,1243.627,3954.751,1243.047,3956.118Z" transform="translate(-1184.418 -3865.028)" fill="#f2f2f2"/>
    <path id="Path_2901" data-name="Path 2901" d="M1419.5,3851.327l.047-.653c-1.476-.107-2.98-.161-4.471-.161h-.065v.655h.065C1416.546,3851.168,1418.034,3851.221,1419.5,3851.327Z" transform="translate(-1300.071 -3796.726)" fill="#f2f2f2"/>
    <path id="Path_2902" data-name="Path 2902" d="M1236.225,4088.6c-.474-1.389-.9-2.812-1.274-4.234l-.634.166c.375,1.436.808,2.876,1.288,4.279Z" transform="translate(-1178.547 -3954.004)" fill="#f2f2f2"/>
    <path id="Path_2903" data-name="Path 2903" d="M1245.619,4113.9c-.674-1.3-1.307-2.651-1.882-4l-.6.256c.582,1.365,1.221,2.727,1.9,4.046Z" transform="translate(-1184.477 -3971.181)" fill="#f2f2f2"/>
    <path id="Path_2904" data-name="Path 2904" d="M1392.239,3851.017c-1.482.108-2.976.272-4.44.488l.095.647c1.449-.213,2.927-.375,4.394-.482Z" transform="translate(-1281.772 -3797.065)" fill="#f2f2f2"/>
    <path id="Path_2905" data-name="Path 2905" d="M1230,4008.119c.056-.523.123-1.049.193-1.572a8.09,8.09,0,0,1,2.523.591l.25-.6a8.743,8.743,0,0,0-2.684-.637q.158-1.086.353-2.158l-.644-.117c-.135.743-.258,1.494-.367,2.248h-.039l0,.27c-.089.637-.17,1.275-.239,1.912Z" transform="translate(-1175.207 -3899.7)" fill="#f2f2f2"/>
    <path id="Path_2906" data-name="Path 2906" d="M1271.559,4156.247c.95,1.138,1.955,2.258,2.987,3.328l.471-.456c-1.02-1.057-2.015-2.165-2.955-3.292Z" transform="translate(-1203.594 -4002.068)" fill="#f2f2f2"/>
    <path id="Path_2907" data-name="Path 2907" d="M1560.616,3921.419c-.863-1.2-1.783-2.394-2.736-3.537l-.5.42c.943,1.13,1.853,2.308,2.707,3.5Z" transform="translate(-1395.824 -3842.035)" fill="#f2f2f2"/>
    <path id="Path_2908" data-name="Path 2908" d="M1594.814,3990.143l-.634.165c.37,1.421.692,2.873.957,4.316l.644-.118C1595.513,3993.047,1595.188,3991.58,1594.814,3990.143Z" transform="translate(-1420.577 -3890.635)" fill="#f2f2f2"/>
    <path id="Path_2909" data-name="Path 2909" d="M1419.723,4221.909c-1.46.106-2.947.16-4.421.16v.655c1.489,0,2.992-.056,4.467-.162Z" transform="translate(-1300.27 -4046.513)" fill="#f2f2f2"/>
    <path id="Path_2910" data-name="Path 2910" d="M1472.982,4210.848l-.234-.612c-1.37.524-2.778,1-4.185,1.429l.189.627C1470.174,4211.863,1471.6,4211.378,1472.982,4210.848Z" transform="translate(-1336.091 -4038.661)" fill="#f2f2f2"/>
    <path id="Path_2911" data-name="Path 2911" d="M1361.363,3856.736c1.405-.423,2.844-.8,4.277-1.118l-.142-.64c-1.448.323-2.9.7-4.323,1.131Z" transform="translate(-1263.866 -3799.729)" fill="#f2f2f2"/>
    <path id="Path_2912" data-name="Path 2912" d="M1587.682,4097.379l-.619-.211c-.474,1.391-1.006,2.782-1.58,4.133l.6.256C1586.666,4100.191,1587.2,4098.784,1587.682,4097.379Z" transform="translate(-1414.727 -3962.617)" fill="#f2f2f2"/>
    <path id="Path_2913" data-name="Path 2913" d="M1446.569,4218c-1.431.318-2.894.586-4.348.8l.095.648c1.47-.215,2.948-.487,4.4-.808Z" transform="translate(-1318.375 -4043.886)" fill="#f2f2f2"/>
    <path id="Path_2914" data-name="Path 2914" d="M1586.074,3964.321l-.6.256c.575,1.352,1.106,2.74,1.58,4.13l.62-.211C1587.193,3967.091,1586.655,3965.686,1586.074,3964.321Z" transform="translate(-1414.72 -3873.268)" fill="#f2f2f2"/>
    <path id="Path_2915" data-name="Path 2915" d="M1560.626,4145.436l-.532-.382c-.855,1.194-1.766,2.372-2.706,3.5l.5.42C1558.841,4147.831,1559.762,4146.643,1560.626,4145.436Z" transform="translate(-1395.832 -3994.823)" fill="#f2f2f2"/>
    <path id="Path_2916" data-name="Path 2916" d="M1575.86,3943.96c-.678-1.317-1.416-2.628-2.192-3.9l-.559.342c.768,1.255,1.5,2.552,2.169,3.855Z" transform="translate(-1406.405 -3856.953)" fill="#f2f2f2"/>
    <path id="Path_2917" data-name="Path 2917" d="M1575.869,4122.319l-.582-.3c-.672,1.3-1.4,2.6-2.169,3.855l.559.342C1574.452,4124.95,1575.19,4123.639,1575.869,4122.319Z" transform="translate(-1406.411 -3979.331)" fill="#f2f2f2"/>
    <path id="Path_2918" data-name="Path 2918" d="M1592.767,4075.515c.062-.238.12-.478.18-.718.486.047.974.076,1.464.076h.021l-.021-.655c-.438,0-.874-.024-1.308-.064.235-1,.447-2,.631-3.006l-.644-.118c-.187,1.018-.4,2.038-.642,3.049-.394-.056-.786-.12-1.173-.208l-.144.639c.382.086.771.152,1.161.207-.053.212-.1.423-.159.634Z" transform="translate(-1418.526 -3945.037)" fill="#f2f2f2"/>
    <path id="Path_2919" data-name="Path 2919" d="M1392.559,4220.944c-1.467-.105-2.948-.266-4.4-.477l-.094.647c1.469.214,2.965.376,4.448.482Z" transform="translate(-1281.951 -4045.543)" fill="#f2f2f2"/>
    <path id="Path_2920" data-name="Path 2920" d="M1283.571,4042.038a43.551,43.551,0,0,1-.234-4.468h-.655a44.289,44.289,0,0,0,.238,4.535Z" transform="translate(-1211.075 -3922.533)" fill="#f2f2f2"/>
    <path id="Path_2921" data-name="Path 2921" d="M1484.277,4143.036a42.729,42.729,0,0,1-3.747,2.443l.328.567a43.048,43.048,0,0,0,3.8-2.481Z" transform="translate(-1344.14 -3993.466)" fill="#f2f2f2"/>
    <path id="Path_2922" data-name="Path 2922" d="M1541.169,4000.855a43.049,43.049,0,0,0-1.172-4.388l-.623.2a42.536,42.536,0,0,1,1.154,4.322Z" transform="translate(-1383.716 -3894.889)" fill="#f2f2f2"/>
    <path id="Path_2923" data-name="Path 2923" d="M1520.843,4106.443l.53.385a43.248,43.248,0,0,0,2.478-3.806l-.566-.329A42.733,42.733,0,0,1,1520.843,4106.443Z" transform="translate(-1371.253 -3966.333)" fill="#f2f2f2"/>
    <path id="Path_2924" data-name="Path 2924" d="M1300.909,3963.794a42.932,42.932,0,0,1,2.438-3.75l-.53-.385a43.557,43.557,0,0,0-2.476,3.808Z" transform="translate(-1222.952 -3870.133)" fill="#f2f2f2"/>
    <path id="Path_2925" data-name="Path 2925" d="M1308.031,4114.644a43.843,43.843,0,0,0,2.865,3.524l.486-.438a43.139,43.139,0,0,1-2.823-3.472Z" transform="translate(-1228.124 -3974.11)" fill="#f2f2f2"/>
    <path id="Path_2926" data-name="Path 2926" d="M1330.125,4137.863l.385-.53a42.916,42.916,0,0,1-3.475-2.817l-.438.487A43.634,43.634,0,0,0,1330.125,4137.863Z" transform="translate(-1240.61 -3987.735)" fill="#f2f2f2"/>
    <path id="Path_2927" data-name="Path 2927" d="M1316.633,3942.276l.487.438c.505-.562,1.033-1.119,1.569-1.654.518-.517,1.053-1.026,1.592-1.513l-.439-.487c-.547.494-1.091,1.011-1.616,1.537C1317.681,3941.141,1317.146,3941.705,1316.633,3942.276Z" transform="translate(-1233.909 -3856.279)" fill="#f2f2f2"/>
    <path id="Path_2928" data-name="Path 2928" d="M1405.964,4168.165l-.025-.654a43.428,43.428,0,0,1-4.444-.228l-.067.651a44.188,44.188,0,0,0,4.511.23Z" transform="translate(-1290.939 -4009.773)" fill="#f2f2f2"/>
    <path id="Path_2929" data-name="Path 2929" d="M1289.086,3987.89l.623.2a42.546,42.546,0,0,1,1.6-4.178l-.6-.266A43.153,43.153,0,0,0,1289.086,3987.89Z" transform="translate(-1215.382 -3886.267)" fill="#f2f2f2"/>
    <path id="Path_2930" data-name="Path 2930" d="M1283.384,4014.5l.652.067a42.845,42.845,0,0,1,.689-4.42l-.641-.135A43.539,43.539,0,0,0,1283.384,4014.5Z" transform="translate(-1211.547 -3903.999)" fill="#f2f2f2"/>
    <path id="Path_2931" data-name="Path 2931" d="M1419.569,3905.821l.068-.651a44.114,44.114,0,0,0-4.536-.234h-.05v.655h.05A43.472,43.472,0,0,1,1419.569,3905.821Z" transform="translate(-1300.101 -3833.329)" fill="#f2f2f2"/>
    <path id="Path_2932" data-name="Path 2932" d="M1296.769,4094.636a42.578,42.578,0,0,1-2.038-3.982l-.6.268a43.223,43.223,0,0,0,2.069,4.043Z" transform="translate(-1218.777 -3958.235)" fill="#f2f2f2"/>
    <path id="Path_2933" data-name="Path 2933" d="M1337.192,3925.208l.386.529a42.859,42.859,0,0,1,3.746-2.446l-.329-.567A43.628,43.628,0,0,0,1337.192,3925.208Z" transform="translate(-1247.736 -3845.292)" fill="#f2f2f2"/>
    <path id="Path_2934" data-name="Path 2934" d="M1528.263,3971.492a42.58,42.58,0,0,1,2.035,3.984l.6-.267a43.355,43.355,0,0,0-2.067-4.045Z" transform="translate(-1376.243 -3877.872)" fill="#f2f2f2"/>
    <path id="Path_2935" data-name="Path 2935" d="M1515.543,3952.3a43.8,43.8,0,0,0-2.863-3.526l-.486.438a43.345,43.345,0,0,1,2.82,3.473Z" transform="translate(-1365.436 -3862.811)" fill="#f2f2f2"/>
    <path id="Path_2936" data-name="Path 2936" d="M1455.816,4158.943a42.907,42.907,0,0,0,4.24-1.629l-.267-.6a42.323,42.323,0,0,1-4.175,1.6Z" transform="translate(-1327.382 -4002.666)" fill="#f2f2f2"/>
    <path id="Path_2937" data-name="Path 2937" d="M1545.67,4023.568l-.652.068a43.524,43.524,0,0,1,.232,4.468h.655A44.3,44.3,0,0,0,1545.67,4023.568Z" transform="translate(-1387.512 -3913.116)" fill="#f2f2f2"/>
    <path id="Path_2938" data-name="Path 2938" d="M1353.313,4152.6a42.823,42.823,0,0,1-3.985-2.032l-.327.566a43.444,43.444,0,0,0,4.046,2.063Z" transform="translate(-1255.678 -3998.531)" fill="#f2f2f2"/>
    <path id="Path_2939" data-name="Path 2939" d="M1502.58,4127.921l.439.485c.557-.5,1.107-1.026,1.634-1.552s1.068-1.1,1.576-1.66l-.487-.438c-.5.556-1.022,1.1-1.552,1.635S1503.129,4127.425,1502.58,4127.921Z" transform="translate(-1358.97 -3981.171)" fill="#f2f2f2"/>
    <path id="Path_2940" data-name="Path 2940" d="M1433.48,4165.784l-.135-.641a42.708,42.708,0,0,1-4.418.7l.068.651A43.2,43.2,0,0,0,1433.48,4165.784Z" transform="translate(-1309.433 -4008.334)" fill="#f2f2f2"/>
    <path id="Path_2941" data-name="Path 2941" d="M1495.834,3933.085a43.958,43.958,0,0,0-3.526-2.862l-.386.53a43.481,43.481,0,0,1,3.473,2.818Z" transform="translate(-1351.802 -3850.336)" fill="#f2f2f2"/>
    <path id="Path_2942" data-name="Path 2942" d="M1286.209,4064.711l-.641.135a43.205,43.205,0,0,0,1.175,4.387l.623-.2A42.652,42.652,0,0,1,1286.209,4064.711Z" transform="translate(-1213.016 -3940.787)" fill="#f2f2f2"/>
    <path id="Path_2943" data-name="Path 2943" d="M1472.618,3918.411a43.228,43.228,0,0,0-4.045-2.065l-.267.6a42.749,42.749,0,0,1,3.984,2.035Z" transform="translate(-1335.919 -3841.002)" fill="#f2f2f2"/>
    <path id="Path_2944" data-name="Path 2944" d="M1446.875,3908.97a43.161,43.161,0,0,0-4.389-1.171l-.135.641a42.4,42.4,0,0,1,4.322,1.153Z" transform="translate(-1318.462 -3835.254)" fill="#f2f2f2"/>
    <path id="Path_2945" data-name="Path 2945" d="M1387.636,3907.016a42.776,42.776,0,0,1,4.418-.7l-.069-.651a43.542,43.542,0,0,0-4.485.708Z" transform="translate(-1281.571 -3833.82)" fill="#f2f2f2"/>
    <path id="Path_2946" data-name="Path 2946" d="M1361.424,3913.649a42.426,42.426,0,0,1,4.174-1.607l-.2-.623a42.979,42.979,0,0,0-4.239,1.633Z" transform="translate(-1263.854 -3837.689)" fill="#f2f2f2"/>
    <path id="Path_2947" data-name="Path 2947" d="M1374.514,4161.66l-.2.623a43.287,43.287,0,0,0,4.39,1.168l.135-.641A42.521,42.521,0,0,1,1374.514,4161.66Z" transform="translate(-1272.702 -4005.992)" fill="#f2f2f2"/>
    <path id="Path_2948" data-name="Path 2948" d="M1535.1,4082.213a43.117,43.117,0,0,0,1.626-4.243l-.623-.2a42.4,42.4,0,0,1-1.6,4.177Z" transform="translate(-1380.442 -3949.569)" fill="#f2f2f2"/>
    <path id="Path_2949" data-name="Path 2949" d="M1544.257,4051.134l-.652-.067a42.853,42.853,0,0,1-.691,4.42l.641.135A43.775,43.775,0,0,0,1544.257,4051.134Z" transform="translate(-1386.097 -3931.611)" fill="#f2f2f2"/>
    <path id="Path_2950" data-name="Path 2950" d="M1376.457,3966.49a24.646,24.646,0,0,1,3.935-1.838l-.224-.615a25.326,25.326,0,0,0-4.039,1.887Z" transform="translate(-1273.924 -3873.077)" fill="#f2f2f2"/>
    <path id="Path_2951" data-name="Path 2951" d="M1488.5,4015a25.45,25.45,0,0,0-1.15-4.306l-.615.224a24.775,24.775,0,0,1,1.119,4.2Z" transform="translate(-1348.315 -3904.459)" fill="#f2f2f2"/>
    <path id="Path_2952" data-name="Path 2952" d="M1357.339,3979.6c.511-.512,1.05-1.006,1.6-1.468l-.422-.5c-.563.474-1.115.981-1.64,1.505s-1.035,1.08-1.511,1.647l.5.421C1356.33,3980.656,1356.826,3980.116,1357.339,3979.6Z" transform="translate(-1259.959 -3882.222)" fill="#f2f2f2"/>
    <path id="Path_2953" data-name="Path 2953" d="M1368.709,4098.871l.327-.568a24.933,24.933,0,0,1-3.554-2.494l-.421.5A25.693,25.693,0,0,0,1368.709,4098.871Z" transform="translate(-1266.479 -3961.703)" fill="#f2f2f2"/>
    <path id="Path_2954" data-name="Path 2954" d="M1453.243,3970.345a25.03,25.03,0,0,1,3.554,2.5l.421-.5a25.712,25.712,0,0,0-3.647-2.562Z" transform="translate(-1325.788 -3876.94)" fill="#f2f2f2"/>
    <path id="Path_2955" data-name="Path 2955" d="M1401.731,3960.386a25.256,25.256,0,0,1,4.329-.374v-.655a26.024,26.024,0,0,0-4.441.383Z" transform="translate(-1291.067 -3869.93)" fill="#f2f2f2"/>
    <path id="Path_2956" data-name="Path 2956" d="M1491.2,4037.413l-.655.014a25.281,25.281,0,0,1-.37,4.315l.646.112a25.961,25.961,0,0,0,.379-4.427Z" transform="translate(-1350.625 -3922.428)" fill="#f2f2f2"/>
    <path id="Path_2957" data-name="Path 2957" d="M1428.4,3961.166a24.8,24.8,0,0,1,4.2,1.117l.223-.616a25.472,25.472,0,0,0-4.309-1.146Z" transform="translate(-1309.082 -3870.713)" fill="#f2f2f2"/>
    <path id="Path_2958" data-name="Path 2958" d="M1341.776,4002.437l.615.224a24.686,24.686,0,0,1,1.837-3.935l-.567-.328A25.278,25.278,0,0,0,1341.776,4002.437Z" transform="translate(-1250.819 -3896.187)" fill="#f2f2f2"/>
    <path id="Path_2959" data-name="Path 2959" d="M1350.65,4079.139a24.949,24.949,0,0,1-2.5-3.551l-.566.329a25.686,25.686,0,0,0,2.568,3.644Z" transform="translate(-1254.723 -3948.102)" fill="#f2f2f2"/>
    <path id="Path_2960" data-name="Path 2960" d="M1337.486,4023.891a25.927,25.927,0,0,0-.382,4.431v.04l.655-.029a25.307,25.307,0,0,1,.373-4.329Z" transform="translate(-1247.677 -3913.333)" fill="#f2f2f2"/>
    <path id="Path_2961" data-name="Path 2961" d="M1445.235,4103.362a24.661,24.661,0,0,1-3.934,1.84l.224.615a25.246,25.246,0,0,0,4.039-1.889Z" transform="translate(-1317.756 -3966.782)" fill="#f2f2f2"/>
    <path id="Path_2962" data-name="Path 2962" d="M1464.163,4089.407l.422.5c.56-.473,1.108-.977,1.629-1.5s1.041-1.086,1.521-1.657l-.5-.422c-.468.557-.967,1.1-1.482,1.616S1464.709,4088.947,1464.163,4089.407Z" transform="translate(-1333.132 -3955.328)" fill="#f2f2f2"/>
    <path id="Path_2963" data-name="Path 2963" d="M1419.6,4112.405a25.174,25.174,0,0,1-4.328.376v.656a26,26,0,0,0,4.441-.387Z" transform="translate(-1300.249 -3972.864)" fill="#f2f2f2"/>
    <path id="Path_2964" data-name="Path 2964" d="M1392.966,4110.141a24.661,24.661,0,0,1-4.2-1.114l-.223.616a25.4,25.4,0,0,0,4.309,1.144Z" transform="translate(-1282.274 -3970.592)" fill="#f2f2f2"/>
    <path id="Path_2965" data-name="Path 2965" d="M1483.615,4063.679l-.615-.223a24.635,24.635,0,0,1-1.835,3.936l.567.329A25.326,25.326,0,0,0,1483.615,4063.679Z" transform="translate(-1344.566 -3939.943)" fill="#f2f2f2"/>
    <path id="Path_2966" data-name="Path 2966" d="M1340.055,4054.958a24.686,24.686,0,0,1-1.122-4.195l-.646.113a25.378,25.378,0,0,0,1.152,4.306Z" transform="translate(-1248.473 -3931.406)" fill="#f2f2f2"/>
    <path id="Path_2967" data-name="Path 2967" d="M1473.484,3987.647a24.948,24.948,0,0,1,2.5,3.552l.567-.328a25.6,25.6,0,0,0-2.566-3.646Z" transform="translate(-1339.401 -3888.673)" fill="#f2f2f2"/>
    <path id="Path_2968" data-name="Path 2968" d="M1284.955,3756.482a115.374,115.374,0,1,0,9.038,44.764A114.606,114.606,0,0,0,1284.955,3756.482Zm-25.571,125.155a113.69,113.69,0,1,1,33.3-80.391A112.946,112.946,0,0,1,1259.384,3881.637Z" transform="translate(-1063.993 -3686.246)" fill="#f2f2f2"/>
    <path id="Path_2969" data-name="Path 2969" d="M1381.3,3709.741a14.5,14.5,0,0,1,1.157-1.039l-.41-.51a15.055,15.055,0,0,0-2.342,2.355l.512.407A14.442,14.442,0,0,1,1381.3,3709.741Z" transform="translate(-1276.33 -3701.006)" fill="#f2f2f2"/>
    <path id="Path_2970" data-name="Path 2970" d="M1418.271,3699.241l.145-.639a14.989,14.989,0,0,0-3.3-.367h-.043v.655h.043A14.3,14.3,0,0,1,1418.271,3699.241Z" transform="translate(-1300.115 -3694.31)" fill="#f2f2f2"/>
    <path id="Path_2971" data-name="Path 2971" d="M1398.7,3700.027l-.147-.639a14.753,14.753,0,0,0-3.132,1.1l.286.589A14.056,14.056,0,0,1,1398.7,3700.027Z" transform="translate(-1286.902 -3695.084)" fill="#f2f2f2"/>
    <path id="Path_2972" data-name="Path 2972" d="M1372.674,3724.261l-.59-.283a14.731,14.731,0,0,0-1.089,3.138l.639.144A14.086,14.086,0,0,1,1372.674,3724.261Z" transform="translate(-1270.471 -3711.623)" fill="#f2f2f2"/>
    <path id="Path_2973" data-name="Path 2973" d="M1376.182,3765.512l.511-.41a14.149,14.149,0,0,1-1.7-2.682l-.589.286A14.866,14.866,0,0,0,1376.182,3765.512Z" transform="translate(-1272.765 -3737.478)" fill="#f2f2f2"/>
    <path id="Path_2974" data-name="Path 2974" d="M1451.341,3718.088a14.842,14.842,0,0,0-1.771-2.809l-.511.409a14.156,14.156,0,0,1,1.693,2.685Z" transform="translate(-1322.973 -3705.773)" fill="#f2f2f2"/>
    <path id="Path_2975" data-name="Path 2975" d="M1437.089,3704.476a14.894,14.894,0,0,0-2.81-1.77l-.284.59a14.176,14.176,0,0,1,2.686,1.691Z" transform="translate(-1312.842 -3697.316)" fill="#f2f2f2"/>
    <path id="Path_2976" data-name="Path 2976" d="M1458.442,3736.732a14.94,14.94,0,0,0-.37-3.3l-.638.145a14.315,14.315,0,0,1,.354,3.156Z" transform="translate(-1328.606 -3717.982)" fill="#f2f2f2"/>
    <path id="Path_2977" data-name="Path 2977" d="M1455.3,3753.153a14.137,14.137,0,0,1-1.044,3l.59.284a14.75,14.75,0,0,0,1.093-3.137Z" transform="translate(-1326.469 -3731.245)" fill="#f2f2f2"/>
    <path id="Path_2978" data-name="Path 2978" d="M1405.331,3785.8l-.144.639a14.989,14.989,0,0,0,3.28.363h.021l-.021-.656A14.278,14.278,0,0,1,1405.331,3785.8Z" transform="translate(-1293.467 -3753.199)" fill="#f2f2f2"/>
    <path id="Path_2979" data-name="Path 2979" d="M1424.9,3783.608l.146.639a14.714,14.714,0,0,0,3.134-1.1l-.285-.59A14.035,14.035,0,0,1,1424.9,3783.608Z" transform="translate(-1306.728 -3751.021)" fill="#f2f2f2"/>
    <path id="Path_2980" data-name="Path 2980" d="M1445,3770.923l-.512-.409a14.321,14.321,0,0,1-2.243,2.248l.41.511a15.353,15.353,0,0,0,1.226-1.1A14.914,14.914,0,0,0,1445,3770.923Z" transform="translate(-1318.392 -3742.922)" fill="#f2f2f2"/>
    <path id="Path_2981" data-name="Path 2981" d="M1387.016,3777.97a14.777,14.777,0,0,0,2.813,1.766l.284-.59a14.135,14.135,0,0,1-2.688-1.688Z" transform="translate(-1281.246 -3747.592)" fill="#f2f2f2"/>
    <path id="Path_2982" data-name="Path 2982" d="M1435.241,3727.311a8.787,8.787,0,0,0-1.915-2.853l-.007-.007-.457.47a8.145,8.145,0,0,1,1.773,2.642Z" transform="translate(-1312.081 -3711.941)" fill="#f2f2f2"/>
    <path id="Path_2983" data-name="Path 2983" d="M1415.185,3716.57l.006.655a8.136,8.136,0,0,1,3.124.615l.25-.6a8.79,8.79,0,0,0-3.375-.665Z" transform="translate(-1300.191 -3706.641)" fill="#f2f2f2"/>
    <path id="Path_2984" data-name="Path 2984" d="M1392.67,3755.8a8.152,8.152,0,0,1-1.768-2.629l-.6.252a8.8,8.8,0,0,0,1.91,2.84l.016.017Z" transform="translate(-1283.453 -3731.259)" fill="#f2f2f2"/>
    <path id="Path_2985" data-name="Path 2985" d="M1396.126,3720.534h0l.465.461a8.147,8.147,0,0,1,2.647-1.775l-.251-.6A8.781,8.781,0,0,0,1396.126,3720.534Z" transform="translate(-1287.372 -3708.017)" fill="#f2f2f2"/>
    <path id="Path_2986" data-name="Path 2986" d="M1424.814,3762.976l.252.6a8.8,8.8,0,0,0,2.847-1.912l.011-.011-.474-.452A8.171,8.171,0,0,1,1424.814,3762.976Z" transform="translate(-1306.667 -3736.66)" fill="#f2f2f2"/>
    <path id="Path_2987" data-name="Path 2987" d="M1405.186,3766.655l-.249.606a8.79,8.79,0,0,0,3.362.659h.019l-.019-.655A8.131,8.131,0,0,1,1405.186,3766.655Z" transform="translate(-1293.299 -3740.326)" fill="#f2f2f2"/>
    <path id="Path_2988" data-name="Path 2988" d="M1438.307,3746.638l.605.25a8.793,8.793,0,0,0,.663-3.368v-.012l-.655.012A8.146,8.146,0,0,1,1438.307,3746.638Z" transform="translate(-1315.742 -3724.758)" fill="#f2f2f2"/>
    <path id="Path_2989" data-name="Path 2989" d="M1405.883,3739a3.372,3.372,0,0,0,5.758-2.282c.358.012.717.02,1.073.036l.029-.655c-.379-.017-.763-.025-1.145-.039a3.374,3.374,0,1,0-5.714,2.939Z" transform="translate(-1293.27 -3717.849)" fill="#f2f2f2"/>
    <path id="Path_2990" data-name="Path 2990" d="M1185.8,4040.708a14.263,14.263,0,0,1-.358-3.155h-.655a14.912,14.912,0,0,0,.375,3.3Z" transform="translate(-1145.231 -3922.521)" fill="#f2f2f2"/>
    <path id="Path_2991" data-name="Path 2991" d="M1243.073,4077.059l-.285-.59a14.1,14.1,0,0,1-2.994,1.052l.146.638A14.735,14.735,0,0,0,1243.073,4077.059Z" transform="translate(-1182.229 -3948.695)" fill="#f2f2f2"/>
    <path id="Path_2992" data-name="Path 2992" d="M1186.972,4017.889a14.7,14.7,0,0,0-1.089,3.139l.639.144a14.063,14.063,0,0,1,1.04-3Z" transform="translate(-1145.971 -3909.296)" fill="#f2f2f2"/>
    <path id="Path_2993" data-name="Path 2993" d="M1251.568,3998.9l.409-.512a14.876,14.876,0,0,0-2.81-1.77l-.284.59A14.145,14.145,0,0,1,1251.568,3998.9Z" transform="translate(-1188.342 -3894.989)" fill="#f2f2f2"/>
    <path id="Path_2994" data-name="Path 2994" d="M1229.96,3992.147v.655H1230a14.313,14.313,0,0,1,3.156.352l.145-.639a15,15,0,0,0-3.3-.367Z" transform="translate(-1175.616 -3891.983)" fill="#f2f2f2"/>
    <path id="Path_2995" data-name="Path 2995" d="M1272.675,4030.645h.655a14.94,14.94,0,0,0-.37-3.3l-.639.145A14.3,14.3,0,0,1,1272.675,4030.645Z" transform="translate(-1204.107 -3915.656)" fill="#f2f2f2"/>
    <path id="Path_2996" data-name="Path 2996" d="M1205,4073.056a14.168,14.168,0,0,1-2.689-1.688l-.408.512a14.783,14.783,0,0,0,2.813,1.767Z" transform="translate(-1156.745 -3945.265)" fill="#f2f2f2"/>
    <path id="Path_2997" data-name="Path 2997" d="M1220.219,4079.707l-.144.64a15.021,15.021,0,0,0,3.28.363h.021l-.021-.655A14.245,14.245,0,0,1,1220.219,4079.707Z" transform="translate(-1168.968 -3950.873)" fill="#f2f2f2"/>
    <path id="Path_2998" data-name="Path 2998" d="M1264.458,4009.19l-.512.409a14.168,14.168,0,0,1,1.694,2.685l.59-.284A14.864,14.864,0,0,0,1264.458,4009.19Z" transform="translate(-1198.474 -3903.446)" fill="#f2f2f2"/>
    <path id="Path_2999" data-name="Path 2999" d="M1213.594,3993.938l-.147-.638a14.73,14.73,0,0,0-3.132,1.1l.286.588A14.155,14.155,0,0,1,1213.594,3993.938Z" transform="translate(-1162.404 -3892.759)" fill="#f2f2f2"/>
    <path id="Path_3000" data-name="Path 3000" d="M1196.19,4003.653a14.363,14.363,0,0,1,1.156-1.039l-.41-.51a14.736,14.736,0,0,0-1.21,1.085,14.935,14.935,0,0,0-1.132,1.269l.512.407A14.56,14.56,0,0,1,1196.19,4003.653Z" transform="translate(-1151.831 -3898.68)" fill="#f2f2f2"/>
    <path id="Path_3001" data-name="Path 3001" d="M1191.581,4059.014a14.139,14.139,0,0,1-1.7-2.682l-.589.286a14.808,14.808,0,0,0,1.776,2.806Z" transform="translate(-1148.266 -3935.152)" fill="#f2f2f2"/>
    <path id="Path_3002" data-name="Path 3002" d="M1270.189,4047.064a14.1,14.1,0,0,1-1.045,3l.59.284a14.756,14.756,0,0,0,1.094-3.136Z" transform="translate(-1201.97 -3928.918)" fill="#f2f2f2"/>
    <path id="Path_3003" data-name="Path 3003" d="M1259.377,4064.426a14.356,14.356,0,0,1-1.07,1.2,14.585,14.585,0,0,1-1.173,1.051l.409.51a14.836,14.836,0,0,0,1.227-1.1,14.991,14.991,0,0,0,1.119-1.251Z" transform="translate(-1193.892 -3940.595)" fill="#f2f2f2"/>
    <path id="Path_3004" data-name="Path 3004" d="M1213.873,4012.529a8.774,8.774,0,0,0-2.859,1.917h0l.465.462a8.138,8.138,0,0,1,2.647-1.776Z" transform="translate(-1162.872 -3905.691)" fill="#f2f2f2"/>
    <path id="Path_3005" data-name="Path 3005" d="M1254.462,4037.431v-.013l-.655.013a8.144,8.144,0,0,1-.613,3.119l.606.249A8.8,8.8,0,0,0,1254.462,4037.431Z" transform="translate(-1191.242 -3922.431)" fill="#f2f2f2"/>
    <path id="Path_3006" data-name="Path 3006" d="M1239.954,4057.492a8.8,8.8,0,0,0,2.847-1.912l.011-.011-.474-.452a8.162,8.162,0,0,1-2.636,1.771Z" transform="translate(-1182.168 -3934.335)" fill="#f2f2f2"/>
    <path id="Path_3007" data-name="Path 3007" d="M1250.13,4021.222a8.794,8.794,0,0,0-1.915-2.853l-.007-.007-.456.47a8.138,8.138,0,0,1,1.773,2.641Z" transform="translate(-1187.582 -3909.615)" fill="#f2f2f2"/>
    <path id="Path_3008" data-name="Path 3008" d="M1204.389,4027.384l-.605-.25a8.793,8.793,0,0,0-.667,3.379v.026l.655-.026A8.154,8.154,0,0,1,1204.389,4027.384Z" transform="translate(-1157.563 -3915.515)" fill="#f2f2f2"/>
    <path id="Path_3009" data-name="Path 3009" d="M1207.559,4049.715a8.147,8.147,0,0,1-1.769-2.63l-.6.253a8.825,8.825,0,0,0,1.917,2.847Z" transform="translate(-1158.954 -3928.933)" fill="#f2f2f2"/>
    <path id="Path_3010" data-name="Path 3010" d="M1226.533,4030.523a3.375,3.375,0,1,0-.989,2.387A3.353,3.353,0,0,0,1226.533,4030.523Z" transform="translate(-1168.771 -3915.523)" fill="#f2f2f2"/>
    <path id="Path_3011" data-name="Path 3011" d="M1454.257,4344.849l.59.285a14.809,14.809,0,0,0,1.093-3.137l-.639-.144A14.123,14.123,0,0,1,1454.257,4344.849Z" transform="translate(-1326.47 -4127.182)" fill="#f2f2f2"/>
    <path id="Path_3012" data-name="Path 3012" d="M1449.57,4303.979l-.511.409a14.214,14.214,0,0,1,1.693,2.684l.59-.284A14.873,14.873,0,0,0,1449.57,4303.979Z" transform="translate(-1322.973 -4101.709)" fill="#f2f2f2"/>
    <path id="Path_3013" data-name="Path 3013" d="M1387.016,4366.67a14.8,14.8,0,0,0,2.813,1.766l.284-.59a14.135,14.135,0,0,1-2.688-1.688Z" transform="translate(-1281.246 -4143.529)" fill="#f2f2f2"/>
    <path id="Path_3014" data-name="Path 3014" d="M1405.331,4374.5l-.144.639a14.99,14.99,0,0,0,3.28.363h.021l-.021-.655A14.279,14.279,0,0,1,1405.331,4374.5Z" transform="translate(-1293.467 -4149.137)" fill="#f2f2f2"/>
    <path id="Path_3015" data-name="Path 3015" d="M1379.706,4299.246l.512.408a14.6,14.6,0,0,1,1.083-1.213,14.4,14.4,0,0,1,1.157-1.038l-.41-.511a14.991,14.991,0,0,0-2.342,2.354Z" transform="translate(-1276.33 -4096.943)" fill="#f2f2f2"/>
    <path id="Path_3016" data-name="Path 3016" d="M1369.894,4332.343a14.934,14.934,0,0,0,.375,3.3l.638-.147a14.28,14.28,0,0,1-.358-3.155Z" transform="translate(-1269.73 -4120.785)" fill="#f2f2f2"/>
    <path id="Path_3017" data-name="Path 3017" d="M1372.674,4312.962l-.59-.284a14.707,14.707,0,0,0-1.089,3.139l.639.144A14.05,14.05,0,0,1,1372.674,4312.962Z" transform="translate(-1270.471 -4107.56)" fill="#f2f2f2"/>
    <path id="Path_3018" data-name="Path 3018" d="M1374.406,4351.406a14.866,14.866,0,0,0,1.776,2.807l.511-.411a14.118,14.118,0,0,1-1.7-2.682Z" transform="translate(-1272.765 -4133.415)" fill="#f2f2f2"/>
    <path id="Path_3019" data-name="Path 3019" d="M1424.9,4372.31l.146.638a14.739,14.739,0,0,0,3.134-1.1l-.285-.59A14.144,14.144,0,0,1,1424.9,4372.31Z" transform="translate(-1306.728 -4146.958)" fill="#f2f2f2"/>
    <path id="Path_3020" data-name="Path 3020" d="M1443.419,4360.411a14.6,14.6,0,0,1-1.173,1.051l.41.511a15.023,15.023,0,0,0,2.345-2.351l-.512-.409A14.419,14.419,0,0,1,1443.419,4360.411Z" transform="translate(-1318.392 -4138.858)" fill="#f2f2f2"/>
    <path id="Path_3021" data-name="Path 3021" d="M1398.7,4288.727l-.147-.638a14.75,14.75,0,0,0-3.132,1.1l.286.589A14.134,14.134,0,0,1,1398.7,4288.727Z" transform="translate(-1286.902 -4091.023)" fill="#f2f2f2"/>
    <path id="Path_3022" data-name="Path 3022" d="M1418.271,4287.941l.145-.638a14.931,14.931,0,0,0-3.3-.367h-.043v.655h.043A14.3,14.3,0,0,1,1418.271,4287.941Z" transform="translate(-1300.115 -4090.247)" fill="#f2f2f2"/>
    <path id="Path_3023" data-name="Path 3023" d="M1434.279,4291.406l-.284.589a14.2,14.2,0,0,1,2.686,1.692l.409-.512A14.791,14.791,0,0,0,1434.279,4291.406Z" transform="translate(-1312.842 -4093.254)" fill="#f2f2f2"/>
    <path id="Path_3024" data-name="Path 3024" d="M1390.3,4342.126a8.794,8.794,0,0,0,1.909,2.841l.016.017.447-.48a8.134,8.134,0,0,1-1.768-2.629Z" transform="translate(-1283.454 -4127.197)" fill="#f2f2f2"/>
    <path id="Path_3025" data-name="Path 3025" d="M1427.913,4350.368l.011-.012-.475-.452a8.119,8.119,0,0,1-2.635,1.771l.252.6A8.807,8.807,0,0,0,1427.913,4350.368Z" transform="translate(-1306.668 -4132.597)" fill="#f2f2f2"/>
    <path id="Path_3026" data-name="Path 3026" d="M1438.307,4335.338l.605.249a8.786,8.786,0,0,0,.663-3.367v-.014l-.655.014A8.147,8.147,0,0,1,1438.307,4335.338Z" transform="translate(-1315.742 -4120.694)" fill="#f2f2f2"/>
    <path id="Path_3027" data-name="Path 3027" d="M1418.314,4306.54l.25-.605a8.784,8.784,0,0,0-3.374-.664h-.007l.007.654A8.118,8.118,0,0,1,1418.314,4306.54Z" transform="translate(-1300.191 -4102.579)" fill="#f2f2f2"/>
    <path id="Path_3028" data-name="Path 3028" d="M1398.984,4307.316a8.8,8.8,0,0,0-2.858,1.916l0,0,.465.461a8.125,8.125,0,0,1,2.647-1.774Z" transform="translate(-1287.371 -4103.954)" fill="#f2f2f2"/>
    <path id="Path_3029" data-name="Path 3029" d="M1408.319,4356.622l-.02-.655a8.142,8.142,0,0,1-3.113-.611l-.249.605a8.773,8.773,0,0,0,3.362.66Z" transform="translate(-1293.3 -4136.263)" fill="#f2f2f2"/>
    <path id="Path_3030" data-name="Path 3030" d="M1389.5,4322.173l-.6-.251a8.768,8.768,0,0,0-.667,3.369v.038l.655-.026A8.148,8.148,0,0,1,1389.5,4322.173Z" transform="translate(-1282.061 -4113.777)" fill="#f2f2f2"/>
    <path id="Path_3031" data-name="Path 3031" d="M1433.326,4313.157l-.007-.008-.456.472a8.132,8.132,0,0,1,1.773,2.64l.6-.252A8.8,8.8,0,0,0,1433.326,4313.157Z" transform="translate(-1312.081 -4107.877)" fill="#f2f2f2"/>
    <path id="Path_3032" data-name="Path 3032" d="M1408.5,4322.925a3.374,3.374,0,0,0-5.738,2c-.348-.012-.7-.019-1.044-.036l-.03.655c.352.016.708.023,1.062.036a3.375,3.375,0,1,0,5.75-2.65Z" transform="translate(-1291.115 -4113.787)" fill="#f2f2f2"/>
    <path id="Path_3033" data-name="Path 3033" d="M1560.94,4056.332l-.589.286a14.785,14.785,0,0,0,1.775,2.806l.511-.41A14.1,14.1,0,0,1,1560.94,4056.332Z" transform="translate(-1397.824 -3935.152)" fill="#f2f2f2"/>
    <path id="Path_3034" data-name="Path 3034" d="M1610.849,4077.521l.146.638a14.736,14.736,0,0,0,3.134-1.1l-.285-.59A14.1,14.1,0,0,1,1610.849,4077.521Z" transform="translate(-1431.787 -3948.695)" fill="#f2f2f2"/>
    <path id="Path_3035" data-name="Path 3035" d="M1568.4,4002.614l-.41-.511a15.029,15.029,0,0,0-2.343,2.355l.512.407a14.43,14.43,0,0,1,2.24-2.251Z" transform="translate(-1401.388 -3898.679)" fill="#f2f2f2"/>
    <path id="Path_3036" data-name="Path 3036" d="M1601.016,3992.147v.655h.043a14.324,14.324,0,0,1,3.157.352l.144-.639a15,15,0,0,0-3.3-.367Z" transform="translate(-1425.174 -3891.983)" fill="#f2f2f2"/>
    <path id="Path_3037" data-name="Path 3037" d="M1557.577,4021.171a14.076,14.076,0,0,1,1.04-3l-.59-.284a14.744,14.744,0,0,0-1.089,3.139Z" transform="translate(-1395.529 -3909.296)" fill="#f2f2f2"/>
    <path id="Path_3038" data-name="Path 3038" d="M1630.944,4064.835l-.512-.409a14.324,14.324,0,0,1-2.243,2.248l.41.51a14.858,14.858,0,0,0,1.226-1.1A15.016,15.016,0,0,0,1630.944,4064.835Z" transform="translate(-1443.45 -3940.595)" fill="#f2f2f2"/>
    <path id="Path_3039" data-name="Path 3039" d="M1556.214,4040.854l.638-.146a14.292,14.292,0,0,1-.358-3.155h-.655A14.926,14.926,0,0,0,1556.214,4040.854Z" transform="translate(-1394.79 -3922.521)" fill="#f2f2f2"/>
    <path id="Path_3040" data-name="Path 3040" d="M1644.385,4030.644a14.969,14.969,0,0,0-.37-3.3l-.639.145a14.289,14.289,0,0,1,.354,3.156Z" transform="translate(-1453.664 -3915.656)" fill="#f2f2f2"/>
    <path id="Path_3041" data-name="Path 3041" d="M1637.284,4012a14.828,14.828,0,0,0-1.772-2.81l-.511.41a14.138,14.138,0,0,1,1.694,2.685Z" transform="translate(-1448.031 -3903.446)" fill="#f2f2f2"/>
    <path id="Path_3042" data-name="Path 3042" d="M1619.937,3997.207a14.124,14.124,0,0,1,2.686,1.691l.409-.512a14.907,14.907,0,0,0-2.81-1.77Z" transform="translate(-1437.9 -3894.989)" fill="#f2f2f2"/>
    <path id="Path_3043" data-name="Path 3043" d="M1581.657,3994.993a14.131,14.131,0,0,1,2.993-1.055l-.147-.638a14.739,14.739,0,0,0-3.132,1.1Z" transform="translate(-1411.962 -3892.759)" fill="#f2f2f2"/>
    <path id="Path_3044" data-name="Path 3044" d="M1576.055,4073.056a14.166,14.166,0,0,1-2.688-1.688l-.408.512a14.768,14.768,0,0,0,2.813,1.767Z" transform="translate(-1406.304 -3945.265)" fill="#f2f2f2"/>
    <path id="Path_3045" data-name="Path 3045" d="M1641.883,4047.209l-.639-.145a14.069,14.069,0,0,1-1.045,3l.591.284A14.769,14.769,0,0,0,1641.883,4047.209Z" transform="translate(-1451.527 -3928.918)" fill="#f2f2f2"/>
    <path id="Path_3046" data-name="Path 3046" d="M1625.518,4037.432v-.013l-.655.013a8.144,8.144,0,0,1-.613,3.118l.605.25A8.8,8.8,0,0,0,1625.518,4037.432Z" transform="translate(-1440.8 -3922.431)" fill="#f2f2f2"/>
    <path id="Path_3047" data-name="Path 3047" d="M1578.168,4050.194l.447-.479a8.147,8.147,0,0,1-1.768-2.63l-.6.253a8.825,8.825,0,0,0,1.909,2.841Z" transform="translate(-1408.512 -3928.933)" fill="#f2f2f2"/>
    <path id="Path_3048" data-name="Path 3048" d="M1585.179,4013.133l-.25-.6a8.785,8.785,0,0,0-2.86,1.917h0l.465.462A8.147,8.147,0,0,1,1585.179,4013.133Z" transform="translate(-1412.43 -3905.691)" fill="#f2f2f2"/>
    <path id="Path_3049" data-name="Path 3049" d="M1594.261,4061.832l-.019-.655a8.138,8.138,0,0,1-3.113-.611l-.249.606a8.788,8.788,0,0,0,3.362.659Z" transform="translate(-1418.357 -3937.999)" fill="#f2f2f2"/>
    <path id="Path_3050" data-name="Path 3050" d="M1575.446,4027.384l-.6-.25a8.778,8.778,0,0,0-.667,3.379v.026l.655-.026A8.145,8.145,0,0,1,1575.446,4027.384Z" transform="translate(-1407.121 -3915.515)" fill="#f2f2f2"/>
    <path id="Path_3051" data-name="Path 3051" d="M1601.128,4010.482l.007.655a8.138,8.138,0,0,1,3.124.615l.25-.6a8.788,8.788,0,0,0-3.374-.666Z" transform="translate(-1425.249 -3904.314)" fill="#f2f2f2"/>
    <path id="Path_3052" data-name="Path 3052" d="M1621.184,4021.223a8.786,8.786,0,0,0-1.914-2.853l-.007-.007-.456.47a8.138,8.138,0,0,1,1.773,2.641Z" transform="translate(-1437.14 -3909.615)" fill="#f2f2f2"/>
    <path id="Path_3053" data-name="Path 3053" d="M1613.857,4055.58l.011-.011-.474-.452a8.159,8.159,0,0,1-2.636,1.771l.252.6A8.8,8.8,0,0,0,1613.857,4055.58Z" transform="translate(-1431.726 -3934.335)" fill="#f2f2f2"/>
    <path id="Path_3054" data-name="Path 3054" d="M1596.6,4026.064a3.372,3.372,0,0,0-2.151-5.751c-.061-1.119-.151-2.239-.272-3.345l-.651.071c.118,1.087.208,2.19.268,3.291a3.373,3.373,0,0,0,0,6.694c-.06,1.093-.148,2.187-.265,3.265l.651.071c.119-1.1.209-2.208.269-3.319A3.349,3.349,0,0,0,1596.6,4026.064Z" transform="translate(-1418.328 -3908.677)" fill="#f2f2f2"/>
    <path id="Path_3055" data-name="Path 3055" d="M1458.442,4030.644a14.94,14.94,0,0,0-.37-3.3l-.638.145a14.318,14.318,0,0,1,.354,3.156Z" transform="translate(-1328.606 -3915.656)" fill="#f2f2f2"/>
    <path id="Path_3056" data-name="Path 3056" d="M1390.112,4073.056a14.162,14.162,0,0,1-2.689-1.688l-.408.512a14.778,14.778,0,0,0,2.813,1.767Z" transform="translate(-1281.245 -3945.265)" fill="#f2f2f2"/>
    <path id="Path_3057" data-name="Path 3057" d="M1454.846,4050.345a14.755,14.755,0,0,0,1.093-3.136l-.639-.145a14.122,14.122,0,0,1-1.044,3Z" transform="translate(-1326.469 -3928.918)" fill="#f2f2f2"/>
    <path id="Path_3058" data-name="Path 3058" d="M1415.072,3992.8h.043a14.322,14.322,0,0,1,3.157.352l.144-.639a15,15,0,0,0-3.3-.367h-.043Z" transform="translate(-1300.115 -3891.983)" fill="#f2f2f2"/>
    <path id="Path_3059" data-name="Path 3059" d="M1433.994,3997.207a14.151,14.151,0,0,1,2.686,1.691l.409-.512a14.882,14.882,0,0,0-2.81-1.77Z" transform="translate(-1312.842 -3894.989)" fill="#f2f2f2"/>
    <path id="Path_3060" data-name="Path 3060" d="M1369.895,4037.554a14.927,14.927,0,0,0,.375,3.3l.638-.146a14.263,14.263,0,0,1-.358-3.155Z" transform="translate(-1269.731 -3922.521)" fill="#f2f2f2"/>
    <path id="Path_3061" data-name="Path 3061" d="M1382.048,4002.1a15.055,15.055,0,0,0-2.342,2.355l.512.407a14.5,14.5,0,0,1,1.083-1.213,14.325,14.325,0,0,1,1.157-1.039Z" transform="translate(-1276.33 -3898.679)" fill="#f2f2f2"/>
    <path id="Path_3062" data-name="Path 3062" d="M1427.9,4076.469a14.1,14.1,0,0,1-2.994,1.052l.146.638a14.743,14.743,0,0,0,3.134-1.1Z" transform="translate(-1306.728 -3948.695)" fill="#f2f2f2"/>
    <path id="Path_3063" data-name="Path 3063" d="M1408.488,4080.709l-.021-.655a14.25,14.25,0,0,1-3.136-.348l-.144.64a15.019,15.019,0,0,0,3.28.363Z" transform="translate(-1293.467 -3950.873)" fill="#f2f2f2"/>
    <path id="Path_3064" data-name="Path 3064" d="M1449.058,4009.6a14.159,14.159,0,0,1,1.693,2.685l.59-.285a14.861,14.861,0,0,0-1.771-2.81Z" transform="translate(-1322.973 -3903.446)" fill="#f2f2f2"/>
    <path id="Path_3065" data-name="Path 3065" d="M1395.714,3994.993a14.138,14.138,0,0,1,2.993-1.055l-.147-.638a14.726,14.726,0,0,0-3.132,1.1Z" transform="translate(-1286.903 -3892.759)" fill="#f2f2f2"/>
    <path id="Path_3066" data-name="Path 3066" d="M1443.882,4066.086a15.054,15.054,0,0,0,1.118-1.251l-.512-.409a14.321,14.321,0,0,1-2.243,2.248l.41.51A14.978,14.978,0,0,0,1443.882,4066.086Z" transform="translate(-1318.392 -3940.595)" fill="#f2f2f2"/>
    <path id="Path_3067" data-name="Path 3067" d="M1371,4021.028l.639.144a14.063,14.063,0,0,1,1.04-3l-.59-.284A14.688,14.688,0,0,0,1371,4021.028Z" transform="translate(-1270.471 -3909.296)" fill="#f2f2f2"/>
    <path id="Path_3068" data-name="Path 3068" d="M1376.182,4059.424l.511-.41a14.091,14.091,0,0,1-1.7-2.682l-.589.286A14.811,14.811,0,0,0,1376.182,4059.424Z" transform="translate(-1272.766 -3935.152)" fill="#f2f2f2"/>
    <path id="Path_3069" data-name="Path 3069" d="M1408.318,4061.832l-.019-.655a8.137,8.137,0,0,1-3.113-.611l-.25.606a8.791,8.791,0,0,0,3.362.659Z" transform="translate(-1293.298 -3937.999)" fill="#f2f2f2"/>
    <path id="Path_3070" data-name="Path 3070" d="M1390.3,4047.338a8.8,8.8,0,0,0,1.909,2.841l.016.016.447-.479a8.155,8.155,0,0,1-1.768-2.63Z" transform="translate(-1283.454 -3928.933)" fill="#f2f2f2"/>
    <path id="Path_3071" data-name="Path 3071" d="M1415.185,4010.482l.006.655a8.136,8.136,0,0,1,3.124.615l.25-.6a8.791,8.791,0,0,0-3.375-.666Z" transform="translate(-1300.191 -3904.314)" fill="#f2f2f2"/>
    <path id="Path_3072" data-name="Path 3072" d="M1388.229,4030.54l.655-.026a8.145,8.145,0,0,1,.618-3.13l-.6-.25a8.778,8.778,0,0,0-.668,3.379Z" transform="translate(-1282.062 -3915.515)" fill="#f2f2f2"/>
    <path id="Path_3073" data-name="Path 3073" d="M1396.126,4014.446h0l.465.462a8.142,8.142,0,0,1,2.647-1.776l-.251-.6A8.781,8.781,0,0,0,1396.126,4014.446Z" transform="translate(-1287.372 -3905.691)" fill="#f2f2f2"/>
    <path id="Path_3074" data-name="Path 3074" d="M1434.636,4021.474l.6-.251a8.779,8.779,0,0,0-1.915-2.853l-.007-.007-.457.47A8.13,8.13,0,0,1,1434.636,4021.474Z" transform="translate(-1312.081 -3909.615)" fill="#f2f2f2"/>
    <path id="Path_3075" data-name="Path 3075" d="M1438.912,4040.8a8.786,8.786,0,0,0,.663-3.367v-.013l-.655.013a8.139,8.139,0,0,1-.613,3.118Z" transform="translate(-1315.742 -3922.431)" fill="#f2f2f2"/>
    <path id="Path_3076" data-name="Path 3076" d="M1425.066,4057.492a8.8,8.8,0,0,0,2.847-1.912l.011-.011-.474-.452a8.163,8.163,0,0,1-2.636,1.771Z" transform="translate(-1306.667 -3934.335)" fill="#f2f2f2"/>
    <path id="Path_3077" data-name="Path 3077" d="M1404.894,4030.523a3.376,3.376,0,1,0,.989-2.387A3.354,3.354,0,0,0,1404.894,4030.523Z" transform="translate(-1293.27 -3915.523)" fill="#f2f2f2"/>
  </g>
</svg>
