<svg id="Group_595" data-name="Group 595" xmlns="http://www.w3.org/2000/svg" width="230" height="229.999" viewBox="0 0 230 229.999">
  <circle id="Ellipse_88" data-name="Ellipse 88" cx="114.947" cy="114.947" r="114.947" fill="none"/>
  <g id="Group_583" data-name="Group 583" transform="translate(0 0)">
    <g id="Group_563" data-name="Group 563" transform="translate(114.673 0.94)">
      <g id="Group_560" data-name="Group 560" transform="translate(0 226.97)">
        <rect id="Rectangle_774" data-name="Rectangle 774" width="0.655" height="1.637" fill="#f2f2f2"/>
      </g>
      <g id="Group_561" data-name="Group 561" transform="translate(0 4.903)">
        <path id="Path_3508" data-name="Path 3508" d="M1414.861,4753.664h-.655V4750.4h.655Zm0-6.533h-.655v-3.265h.655Zm0-6.53h-.655v-3.266h.655Zm0-6.531h-.655V4730.8h.655Zm0-6.53h-.655v-3.267h.655Zm0-6.533h-.655v-3.265h.655Zm0-6.532h-.655v-3.266h.655Zm0-6.531h-.655v-3.265h.655Zm0-6.531h-.655v-3.265h.655Zm0-6.531h-.655v-3.267h.655Zm0-6.532h-.655v-3.266h.655Zm0-6.531h-.655v-3.266h.655Zm0-6.532h-.655v-3.266h.655Zm0-6.531h-.655v-3.267h.655Zm0-6.533h-.655v-3.265h.655Zm0-6.53h-.655v-3.266h.655Zm0-6.531h-.655V4645.9h.655Zm0-6.532h-.655v-3.266h.655Zm0-6.531h-.655v-3.266h.655Zm0-6.532h-.655V4626.3h.655Zm0-6.53h-.655v-3.267h.655Zm0-6.533h-.655v-3.265h.655Zm0-6.531h-.655v-3.266h.655Zm0-6.532h-.655v-3.265h.655Zm0-6.531h-.655v-3.265h.655Zm0-6.531h-.655v-3.267h.655Zm0-6.533h-.655v-3.265h.655Zm0-6.53h-.655v-3.266h.655Zm0-6.531h-.655v-3.266h.655Zm0-6.53h-.655v-3.267h.655Zm0-6.534h-.655v-3.265h.655Zm0-6.53h-.655v-3.266h.655Zm0-6.532h-.655v-3.265h.655Zm0-6.532h-.655v-3.266h.655Z" transform="translate(-1414.206 -4534.862)" fill="#f2f2f2"/>
      </g>
      <g id="Group_562" data-name="Group 562">
        <rect id="Rectangle_775" data-name="Rectangle 775" width="0.655" height="1.637" fill="#f2f2f2"/>
      </g>
    </g>
    <g id="Group_567" data-name="Group 567" transform="translate(0.852 114.518)">
      <g id="Group_564" data-name="Group 564" transform="translate(0 0)">
        <rect id="Rectangle_776" data-name="Rectangle 776" width="1.637" height="0.655" fill="#f2f2f2"/>
      </g>
      <g id="Group_565" data-name="Group 565" transform="translate(4.903)">
        <path id="Path_3509" data-name="Path 3509" d="M1300.368,4867.412H1297.1v-.655h3.266Zm-6.531,0h-3.266v-.655h3.266Zm-6.531,0h-3.266v-.655h3.266Zm-6.531,0h-3.266v-.655h3.266Zm-6.531,0h-3.266v-.655h3.266Zm-6.531,0h-3.266v-.655h3.266Zm-6.531,0h-3.266v-.655h3.266Zm-6.532,0h-3.265v-.655h3.265Zm-6.531,0h-3.266v-.655h3.266Zm-6.531,0h-3.266v-.655h3.266Zm-6.531,0h-3.266v-.655h3.266Zm-6.531,0h-3.266v-.655h3.266Zm-6.532,0h-3.265v-.655h3.265Zm-6.531,0h-3.266v-.655h3.266Zm-6.531,0h-3.265v-.655h3.265Zm-6.531,0h-3.266v-.655h3.266Zm-6.531,0H1192.6v-.655h3.266Zm-6.531,0h-3.265v-.655h3.265Zm-6.531,0h-3.266v-.655h3.266Zm-6.531,0h-3.266v-.655h3.266Zm-6.531,0h-3.266v-.655h3.266Zm-6.531,0h-3.266v-.655h3.266Zm-6.531,0h-3.266v-.655h3.266Zm-6.532,0h-3.266v-.655h3.266Zm-6.532,0h-3.266v-.655h3.266Zm-6.531,0h-3.265v-.655h3.265Zm-6.531,0h-3.266v-.655h3.266Zm-6.531,0h-3.265v-.655h3.265Zm-6.531,0h-3.265v-.655h3.265Zm-6.531,0h-3.266v-.655h3.266Zm-6.531,0h-3.266v-.655h3.266Zm-6.531,0h-3.266v-.655h3.266Zm-6.532,0H1088.1v-.655h3.266Zm-6.531,0h-3.266v-.655h3.266Z" transform="translate(-1081.567 -4866.757)" fill="#f2f2f2"/>
      </g>
      <g id="Group_566" data-name="Group 566" transform="translate(226.97 0)">
        <rect id="Rectangle_777" data-name="Rectangle 777" width="1.637" height="0.655" fill="#f2f2f2"/>
      </g>
    </g>
    <g id="Group_571" data-name="Group 571" transform="translate(154.309 100.164)">
      <g id="Group_568" data-name="Group 568">
        <path id="Path_3510" data-name="Path 3510" d="M1550.132,4852.592h-.043a14.946,14.946,0,0,1-3.3-.369l.145-.638a14.316,14.316,0,0,0,3.156.352h.043Zm3.3-.378-.147-.638a14.116,14.116,0,0,0,2.993-1.055l.286.588A14.634,14.634,0,0,1,1553.433,4852.213Zm-9.781-1.084a14.917,14.917,0,0,1-2.81-1.77l.408-.512a14.17,14.17,0,0,0,2.686,1.691Zm15.718-1.8-.41-.511a14.279,14.279,0,0,0,2.24-2.251l.512.408a15.334,15.334,0,0,1-1.133,1.268A15.132,15.132,0,0,1,1559.37,4849.332Zm-20.878-2.321a14.908,14.908,0,0,1-1.771-2.81l.59-.285A14.164,14.164,0,0,0,1539,4846.6Zm24.984-2.85-.59-.284a14.03,14.03,0,0,0,1.04-3l.639.144A14.676,14.676,0,0,1,1563.476,4844.162Zm-27.853-3.1a14.926,14.926,0,0,1-.37-3.3h.655a14.251,14.251,0,0,0,.354,3.155Zm28.648-3.341a14.293,14.293,0,0,0-.358-3.155l.638-.147a14.967,14.967,0,0,1,.375,3.3Zm-28.013-3.116-.639-.144a14.756,14.756,0,0,1,1.093-3.136l.59.284A14.122,14.122,0,0,0,1536.257,4834.608Zm26.6-3.034a14.207,14.207,0,0,0-1.7-2.681l.51-.412a14.875,14.875,0,0,1,1.776,2.807Zm-23.867-2.649-.512-.41a15.023,15.023,0,0,1,2.345-2.35l.409.512a14.324,14.324,0,0,0-1.173,1.05A14.535,14.535,0,0,0,1538.991,4828.925Zm19.92-2.273a14.115,14.115,0,0,0-2.688-1.687l.283-.591a14.822,14.822,0,0,1,2.813,1.766Zm-14.993-1.67-.285-.59a14.7,14.7,0,0,1,3.134-1.1l.146.638A14.153,14.153,0,0,0,1543.918,4824.981Zm9.307-1.061a14.339,14.339,0,0,0-3.136-.347l-.021-.655h.021a14.96,14.96,0,0,1,3.28.364Z" transform="translate(-1535.253 -4822.918)" fill="#f2f2f2"/>
      </g>
      <g id="Group_569" data-name="Group 569" transform="translate(6.004 6.004)">
        <path id="Path_3511" data-name="Path 3511" d="M1562.427,4858.919h-.006a8.778,8.778,0,0,1-3.374-.666l.25-.6a8.143,8.143,0,0,0,3.124.616Zm3.38-.669-.251-.6a8.166,8.166,0,0,0,2.647-1.776l.465.46,0,0A8.8,8.8,0,0,1,1565.807,4858.25Zm-9.625-1.911-.007-.007a8.779,8.779,0,0,1-1.914-2.852l.6-.251a8.126,8.126,0,0,0,1.773,2.641Zm14.4-2.871-.605-.251a8.148,8.148,0,0,0,.617-3.13l.655-.026v.026A8.808,8.808,0,0,1,1570.586,4853.468Zm-17-3.368v-.014a8.8,8.8,0,0,1,.662-3.368l.606.25a8.152,8.152,0,0,0-.613,3.118Zm16.383-3.166a8.133,8.133,0,0,0-1.768-2.629l.456-.471a8.834,8.834,0,0,1,1.917,2.848Zm-13.333-2.629-.474-.452.011-.012a8.8,8.8,0,0,1,2.847-1.912l.252.605A8.111,8.111,0,0,0,1556.638,4844.305Zm8.894-1.785a8.113,8.113,0,0,0-3.112-.612l-.019-.655h.019a8.807,8.807,0,0,1,3.361.661Z" transform="translate(-1553.588 -4841.253)" fill="#f2f2f2"/>
      </g>
      <g id="Group_570" data-name="Group 570" transform="translate(11.46 11.461)">
        <path id="Path_3512" data-name="Path 3512" d="M1577,4861.3a3.374,3.374,0,1,1-.989-2.388A3.356,3.356,0,0,1,1577,4861.3Z" transform="translate(-1570.252 -4857.92)" fill="#f2f2f2"/>
      </g>
    </g>
    <g id="Group_573" data-name="Group 573" transform="translate(82.02 111.748)">
      <g id="Group_572" data-name="Group 572">
        <path id="Path_3513" data-name="Path 3513" d="M1321.235,4861.672a3.377,3.377,0,1,1-.989-2.387A3.349,3.349,0,0,1,1321.235,4861.672Z" transform="translate(-1314.484 -4858.295)" fill="#f2f2f2"/>
      </g>
    </g>
    <g id="Group_575" data-name="Group 575" transform="translate(81.606 27.792)">
      <g id="Group_574" data-name="Group 574">
        <path id="Path_3514" data-name="Path 3514" d="M1319.972,4605.271a3.377,3.377,0,1,1-.989-2.386A3.355,3.355,0,0,1,1319.972,4605.271Z" transform="translate(-1313.22 -4601.896)" fill="#f2f2f2"/>
      </g>
    </g>
    <g id="Group_577" data-name="Group 577" transform="translate(81.606 195.943)">
      <g id="Group_576" data-name="Group 576">
        <path id="Path_3515" data-name="Path 3515" d="M1319.972,5118.8a3.375,3.375,0,1,1-.989-2.386A3.357,3.357,0,0,1,1319.972,5118.8Z" transform="translate(-1313.22 -5115.43)" fill="#f2f2f2"/>
      </g>
    </g>
    <g id="Group_578" data-name="Group 578" transform="translate(85.162 73.392)">
      <path id="Path_3516" data-name="Path 3516" d="M1365.955,4824.86h-.046c-.859,0-1.726-.026-2.578-.079l.031-.506c.841.05,1.7.076,2.547.076h.046Zm2.576-.08-.031-.508c.844-.052,1.7-.131,2.534-.235l.062.5C1370.248,4824.646,1369.385,4824.727,1368.531,4824.78Zm-7.768-.232c-.852-.1-1.71-.238-2.548-.392l.093-.5c.828.154,1.675.285,2.518.388Zm12.879-.4-.093-.5c.829-.153,1.666-.336,2.486-.543l.124.494C1375.329,4823.807,1374.482,4823.992,1373.642,4824.148Zm-17.948-.541c-.828-.207-1.663-.444-2.481-.7l.154-.485c.807.258,1.632.491,2.451.7Zm22.943-.713-.154-.485c.807-.256,1.614-.542,2.4-.847l.184.474C1380.272,4822.344,1379.455,4822.633,1378.638,4822.894Zm-27.856-.846c-.8-.31-1.595-.647-2.374-1.006l.213-.461c.77.354,1.559.688,2.345.993Zm32.658-1.02-.213-.461c.766-.354,1.532-.737,2.277-1.139l.241.448C1384.991,4820.282,1384.215,4820.67,1383.439,4821.028Zm-37.339-1.138c-.753-.405-1.5-.84-2.231-1.292l.268-.432c.718.447,1.46.876,2.2,1.277Zm41.875-1.31-.269-.431c.716-.445,1.43-.919,2.119-1.411l.295.415C1389.422,4817.65,1388.7,4818.13,1387.975,4818.581Zm-46.252-1.409c-.7-.5-1.389-1.019-2.054-1.555l.319-.4c.657.529,1.34,1.047,2.029,1.536Zm50.451-1.576-.319-.4c.656-.531,1.306-1.09,1.932-1.662l.343.376C1393.5,4814.494,1392.839,4815.059,1392.175,4815.6Zm-54.461-1.658c-.476-.435-.947-.883-1.4-1.336-.153-.152-.3-.306-.453-.459l.365-.354q.221.228.447.454c.447.447.911.891,1.381,1.32Zm58.265-1.82-.365-.354c.589-.608,1.166-1.241,1.715-1.881l.386.331C1397.158,4810.861,1396.575,4811.5,1395.979,4812.118Zm-61.853-1.88c-.558-.649-1.1-1.325-1.62-2.006l.406-.308c.51.675,1.048,1.341,1.6,1.984Zm65.206-2.031-.406-.306c.509-.675,1-1.374,1.472-2.079l.423.282C1400.348,4806.816,1399.847,4807.525,1399.331,4808.207Zm-68.317-2.078c-.475-.712-.932-1.45-1.36-2.189l.44-.254c.423.73.875,1.457,1.344,2.162Zm71.165-2.216-.44-.254c.422-.732.828-1.485,1.205-2.243l.455.227C1403.018,4802.408,1402.607,4803.171,1402.179,4803.913Zm-73.747-2.243c-.382-.766-.745-1.552-1.079-2.341l.468-.2c.33.779.689,1.557,1.065,2.313Zm76.044-2.371-.468-.2c.329-.781.638-1.58.918-2.375l.48.168C1405.123,4797.7,1404.81,4798.51,1404.477,4799.3Zm-78.054-2.374c-.284-.807-.547-1.633-.78-2.455l.489-.139c.231.812.49,1.628.771,2.425Zm79.762-2.489-.49-.139c.23-.809.437-1.643.617-2.47l.5.106C1406.627,4792.772,1406.417,4793.615,1406.185,4794.436Zm-81.168-2.466c-.182-.836-.34-1.688-.47-2.532l.5-.079c.128.834.284,1.677.464,2.5Zm82.26-2.572-.5-.076c.128-.835.231-1.686.307-2.529l.507.046C1407.511,4787.692,1407.406,4788.553,1407.277,4789.4Zm-83.043-2.519c-.078-.852-.131-1.716-.156-2.57l.508-.015c.026.843.078,1.7.155,2.54Zm83.508-2.615-.508-.015q.018-.618.018-1.241c0-.437-.007-.874-.02-1.307l.508-.016q.021.658.02,1.323Q1407.76,4783.639,1407.742,4784.264Zm-83.157-2.52-.508-.015c.025-.855.078-1.721.155-2.574l.507.045C1324.662,4780.044,1324.61,4780.9,1324.585,4781.744Zm82.491-2.584c-.077-.839-.182-1.689-.311-2.526l.5-.077c.131.846.237,1.707.315,2.557Zm-82.029-2.488-.5-.077c.13-.847.288-1.7.469-2.536l.5.108C1325.331,4774.993,1325.176,4775.836,1325.047,4776.672Zm81.253-2.542c-.18-.823-.388-1.654-.62-2.468l.489-.14c.234.825.445,1.666.628,2.5Zm-80.171-2.435-.489-.14c.233-.824.5-1.65.779-2.456l.48.168C1326.618,4770.064,1326.359,4770.881,1326.128,4771.7Zm78.78-2.458c-.28-.794-.59-1.593-.921-2.373l.469-.2c.335.789.649,1.6.932,2.4Zm-77.09-2.345-.468-.2c.334-.787.7-1.575,1.078-2.342l.455.227C1328.506,4765.337,1328.147,4766.116,1327.818,4766.893Zm75.1-2.341c-.378-.754-.785-1.51-1.208-2.241l.44-.252c.429.738.841,1.5,1.223,2.267Zm-72.831-2.213-.44-.255c.428-.74.886-1.478,1.359-2.189l.423.281C1330.964,4760.878,1330.513,4761.607,1330.09,4762.338Zm70.279-2.188c-.469-.706-.965-1.4-1.476-2.078l.4-.306c.517.682,1.019,1.389,1.494,2.1Zm-67.462-2.051-.406-.308c.515-.681,1.059-1.355,1.618-2.006l.386.33C1333.953,4756.76,1333.415,4757.426,1332.907,4758.1Zm64.386-2.008c-.55-.639-1.128-1.271-1.718-1.879l.365-.354c.6.615,1.183,1.256,1.739,1.9Zm-61.072-1.855-.365-.354c.152-.156.3-.312.46-.467.451-.452.919-.9,1.39-1.329l.343.375c-.465.425-.927.867-1.374,1.313C1336.522,4753.926,1336.37,4754.081,1336.22,4754.236Zm57.524-1.8c-.625-.57-1.275-1.128-1.932-1.658l.319-.4c.665.537,1.323,1.1,1.957,1.677Zm-53.764-1.636-.319-.4c.668-.539,1.359-1.062,2.055-1.558l.295.415C1341.323,4749.752,1340.64,4750.27,1339.98,4750.8Zm49.8-1.557c-.69-.489-1.4-.963-2.121-1.408l.268-.432c.727.451,1.449.93,2.148,1.426Zm-45.651-1.392-.268-.432c.725-.45,1.476-.885,2.23-1.292l.241.447C1345.588,4746.98,1344.847,4747.41,1344.13,4747.854Zm41.325-1.292c-.745-.4-1.512-.783-2.279-1.137l.213-.461c.777.357,1.552.744,2.307,1.149Zm-36.844-1.124-.213-.461c.777-.357,1.576-.7,2.373-1.006l.184.474C1350.168,4744.752,1349.38,4745.085,1348.612,4745.439Zm32.219-1c-.787-.3-1.6-.588-2.4-.846l.153-.483c.818.259,1.636.546,2.433.856Zm-27.475-.835-.154-.483c.815-.259,1.65-.5,2.479-.7l.123.492C1354.985,4743.111,1354.162,4743.344,1353.356,4743.6Zm22.622-.7c-.818-.2-1.655-.386-2.489-.541l.092-.5c.844.155,1.692.34,2.52.547Zm-17.687-.534-.092-.5c.84-.156,1.7-.289,2.546-.391l.062.5C1359.967,4742.08,1359.121,4742.209,1358.291,4742.362Zm12.68-.392c-.838-.1-1.692-.18-2.537-.23l.031-.507c.856.052,1.719.13,2.568.232Zm-7.63-.229-.031-.506c.854-.053,1.721-.079,2.576-.079v.507C1365.042,4741.664,1364.185,4741.692,1363.341,4741.742Z" transform="translate(-1324.077 -4741.157)" fill="#f2f2f2"/>
    </g>
    <g id="Group_579" data-name="Group 579" transform="translate(67.653 12.522)">
      <path id="Path_3517" data-name="Path 3517" d="M1330.394,4674.831c-.821,0-1.651-.018-2.468-.05l.027-.655c1.08.045,2.174.061,3.26.045l.009.655Q1330.808,4674.831,1330.394,4674.831Zm4.119-.141-.044-.653c1.076-.072,2.167-.177,3.244-.311l.08.649C1336.7,4674.51,1335.6,4674.616,1334.513,4674.69Zm-9.874-.133c-1.092-.105-2.191-.24-3.27-.4l.1-.648c1.067.162,2.155.3,3.234.4Zm16.411-.673-.116-.645c1.062-.19,2.135-.415,3.19-.664l.151.637C1343.21,4673.464,1342.125,4673.69,1341.051,4673.883Zm-22.925-.313c-1.072-.223-2.151-.479-3.206-.76l.169-.632c1.043.277,2.11.53,3.171.751Zm29.334-1.208-.186-.628c1.037-.308,2.079-.648,3.1-1.014l.221.617C1349.561,4671.708,1348.508,4672.051,1347.459,4672.363Zm-35.7-.488c-1.041-.341-2.085-.715-3.1-1.112l.238-.608c1.006.391,2.038.761,3.067,1.1Zm41.9-1.733-.255-.6c.994-.418,1.991-.872,2.966-1.35l.288.587C1355.676,4669.258,1354.666,4669.717,1353.662,4670.142Zm-48.038-.659c-.995-.453-1.99-.94-2.959-1.448l.3-.58c.958.5,1.943.984,2.927,1.431Zm53.957-2.237-.321-.571c.944-.528,1.886-1.091,2.8-1.672l.351.553C1361.486,4666.142,1360.535,4666.711,1359.58,4667.246Zm-59.791-.821c-.935-.559-1.871-1.153-2.781-1.766l.367-.544c.9.609,1.825,1.2,2.75,1.749Zm65.351-2.713-.381-.534c.877-.627,1.751-1.291,2.6-1.969l.41.51C1366.91,4662.405,1366.026,4663.076,1365.14,4663.711Zm-70.809-.971c-.868-.658-1.732-1.352-2.568-2.062l.423-.5c.828.7,1.682,1.388,2.54,2.041Zm75.947-3.156-.438-.486c.8-.723,1.6-1.477,2.367-2.242l.043-.044.463.464-.043.043C1371.9,4658.094,1371.091,4658.855,1370.278,4659.585Zm-80.968-1.1c-.4-.378-.8-.77-1.192-1.161s-.77-.78-1.141-1.171l.476-.45c.366.386.745.776,1.127,1.159s.784.773,1.18,1.149Zm85.667-3.6-.488-.437c.724-.807,1.432-1.645,2.106-2.484l.511.409C1376.425,4653.219,1375.709,4654.064,1374.978,4654.881Zm-90.2-1.186c-.708-.833-1.4-1.7-2.065-2.569l.522-.4c.655.862,1.341,1.715,2.041,2.541Zm94.319-3.953-.533-.38c.629-.88,1.243-1.791,1.82-2.7l.553.351C1380.352,4647.935,1379.733,4648.851,1379.1,4649.743Zm-98.3-1.3c-.613-.908-1.209-1.844-1.769-2.78l.562-.336c.554.927,1.142,1.853,1.749,2.75Zm101.831-4.266-.572-.319c.527-.944,1.036-1.915,1.51-2.886l.588.287C1383.67,4642.247,1383.156,4643.228,1382.623,4644.182Zm-105.212-1.39c-.51-.972-1-1.968-1.449-2.96l.6-.271c.446.981.928,1.965,1.433,2.926Zm108.1-4.529-.6-.254c.42-1,.817-2.017,1.181-3.037l.617.222C1386.339,4636.222,1385.938,4637.255,1385.513,4638.264ZM1274.68,4636.8c-.4-1.021-.772-2.064-1.112-3.1l.623-.2c.336,1.026.705,2.058,1.1,3.067Zm113.049-4.737-.628-.186c.307-1.041.589-2.1.837-3.149l.637.152C1388.324,4629.937,1388.039,4631.007,1387.729,4632.06Zm-115.1-1.524c-.281-1.053-.537-2.132-.761-3.206l.641-.134c.222,1.064.475,2.129.753,3.171Zm116.613-4.887-.645-.115c.191-1.066.354-2.151.485-3.223l.65.081C1389.6,4623.474,1389.436,4624.571,1389.244,4625.649Zm-117.957-1.562c-.164-1.079-.3-2.179-.4-3.269l.651-.063c.1,1.079.238,2.167.4,3.234Zm118.759-4.977-.654-.043c.073-1.08.116-2.177.13-3.257l.655.008C1390.163,4616.91,1390.119,4618.018,1390.046,4619.11Zm-119.388-1.579c-.034-.824-.051-1.661-.051-2.489,0-.269,0-.537.005-.806l.655.008q-.005.4-.006.8c0,.82.017,1.647.051,2.462Zm118.818-4.982c-.045-1.08-.12-2.174-.224-3.251l.651-.062c.105,1.087.181,2.193.227,3.286Zm-118.077-1.562-.654-.044c.075-1.1.18-2.2.313-3.28l.65.079C1271.576,4608.812,1271.472,4609.9,1271.4,4610.988Zm117.451-4.922c-.162-1.067-.357-2.146-.578-3.206l.641-.135c.224,1.072.421,2.163.585,3.242Zm-116.655-1.544-.644-.116c.192-1.075.418-2.161.671-3.227l.637.151C1272.608,4602.383,1272.385,4603.458,1272.194,4604.521Zm115.322-4.833c-.278-1.042-.591-2.094-.928-3.124l.622-.2c.342,1.042.657,2.1.939,3.158Zm-113.82-1.507-.628-.187c.31-1.045.654-2.1,1.023-3.131l.617.22C1274.343,4596.1,1274,4597.146,1273.7,4598.181Zm111.79-4.683c-.394-1.008-.821-2.017-1.27-3l.6-.271c.453.995.886,2.015,1.284,3.033Zm-109.6-1.45-.6-.255c.426-1.009.885-2.018,1.364-3l.588.287C1276.764,4590.052,1276.311,4591.05,1275.89,4592.048Zm106.891-4.479c-.5-.952-1.036-1.909-1.6-2.842l.562-.335c.564.944,1.107,1.91,1.613,2.873Zm-104.03-1.374-.571-.32c.532-.949,1.1-1.9,1.688-2.828l.553.35C1279.838,4584.316,1279.277,4585.257,1278.751,4586.2Zm100.685-4.217c-.605-.9-1.244-1.785-1.9-2.649l.521-.4c.663.872,1.309,1.773,1.921,2.678Zm-97.193-1.281-.533-.38c.635-.89,1.305-1.773,1.99-2.626l.511.41C1283.534,4578.946,1282.871,4579.819,1282.243,4580.7Zm93.25-3.908c-.7-.823-1.433-1.639-2.179-2.424l.476-.451c.754.8,1.495,1.619,2.2,2.452Zm-89.174-1.171-.488-.438c.729-.812,1.49-1.618,2.264-2.392l.464.463C1287.793,4574.018,1287.04,4574.814,1286.319,4575.619Zm84.686-3.56c-.788-.744-1.6-1.475-2.428-2.173l.424-.5c.832.706,1.657,1.445,2.454,2.2Zm-80.081-1.051-.438-.488c.816-.732,1.661-1.45,2.511-2.133l.41.51C1292.568,4569.572,1291.732,4570.282,1290.925,4571.008Zm75.112-3.159c-.863-.655-1.755-1.293-2.65-1.9l.366-.544c.906.611,1.807,1.256,2.679,1.917Zm-70.033-.925-.382-.532c.891-.639,1.809-1.26,2.73-1.845l.352.552C1297.794,4565.679,1296.885,4566.292,1296,4566.924Zm64.633-2.717c-.933-.556-1.889-1.091-2.844-1.591l.3-.58c.965.5,1.932,1.046,2.875,1.607Zm-59.136-.782-.32-.57c.954-.536,1.936-1.051,2.918-1.533l.288.587C1303.416,4562.387,1302.445,4562.9,1301.5,4563.425Zm53.364-2.239c-.981-.446-1.991-.873-3-1.267l.237-.61c1.023.4,2.045.829,3.037,1.281Zm-47.513-.629-.255-.6c1.005-.426,2.038-.83,3.07-1.2l.222.618C1309.368,4559.739,1308.347,4560.139,1307.353,4560.558Zm41.442-1.734c-1.025-.334-2.077-.645-3.125-.923l.168-.634c1.059.283,2.122.6,3.16.936Zm-35.309-.464-.187-.628c1.049-.312,2.12-.6,3.184-.851l.151.638C1315.582,4557.768,1314.523,4558.052,1313.486,4558.36Zm29.013-1.209c-1.057-.221-2.136-.414-3.208-.575l.1-.648c1.083.164,2.175.358,3.243.58Zm-22.675-.3-.117-.645c1.074-.193,2.17-.36,3.257-.494l.081.65C1321.97,4556.5,1320.886,4556.66,1319.824,4556.852Zm16.232-.675c-1.074-.1-2.168-.175-3.251-.219l.026-.654c1.095.044,2.2.119,3.288.221Zm-9.768-.127-.045-.654c1.089-.074,2.2-.12,3.292-.135l.009.655C1328.461,4555.931,1327.365,4555.976,1326.288,4556.05Z" transform="translate(-1270.606 -4555.261)" fill="#f2f2f2"/>
    </g>
    <g id="Group_580" data-name="Group 580" transform="translate(67.66 97.676)">
      <path id="Path_3518" data-name="Path 3518" d="M1330.408,4934.891q-.4,0-.807,0l.008-.655c1.086.014,2.181,0,3.26-.045l.027.655C1332.072,4934.875,1331.235,4934.891,1330.408,4934.891Zm-4.1-.138c-1.1-.075-2.2-.179-3.28-.313l.08-.65c1.069.132,2.161.236,3.244.309Zm9.874-.137-.063-.652c1.079-.1,2.167-.237,3.234-.4l.1.647C1338.373,4934.375,1337.273,4934.512,1336.183,4934.616Zm-16.413-.667c-1.075-.193-2.161-.419-3.226-.67l.151-.638c1.054.249,2.127.473,3.19.664Zm22.925-.319-.134-.642c1.063-.223,2.129-.474,3.171-.753l.169.632C1344.848,4933.148,1343.77,4933.4,1342.7,4933.629Zm-29.335-1.2c-1.047-.31-2.1-.655-3.132-1.024l.221-.616c1.019.364,2.062.706,3.1,1.012Zm35.7-.5-.2-.624c1.026-.335,2.058-.7,3.068-1.1l.238.611C1351.141,4931.215,1350.1,4931.59,1349.06,4931.93Zm-41.9-1.718c-1.009-.425-2.017-.885-3-1.366l.288-.588c.97.474,1.968.928,2.966,1.349Zm48.039-.677-.271-.6c.981-.446,1.966-.928,2.927-1.434l.3.581C1357.185,4928.6,1356.189,4929.083,1355.2,4929.535Zm-53.956-2.217c-.948-.531-1.9-1.1-2.829-1.688l.351-.553c.918.583,1.859,1.145,2.8,1.67Zm59.791-.843-.336-.563c.927-.554,1.853-1.142,2.751-1.749l.366.542C1362.9,4925.319,1361.969,4925.915,1361.032,4926.475Zm-65.351-2.688c-.888-.636-1.771-1.3-2.624-1.989l.41-.511c.844.677,1.717,1.339,2.6,1.968Zm70.81-1-.4-.522c.862-.655,1.717-1.341,2.541-2.041l.424.5C1368.228,4921.429,1367.363,4922.125,1366.491,4922.786Zm-75.946-3.12c-.813-.729-1.618-1.491-2.393-2.264l.463-.465c.766.766,1.563,1.519,2.367,2.241Zm80.967-1.146-.45-.476c.387-.367.776-.744,1.158-1.127s.768-.778,1.148-1.179l.476.45c-.384.406-.775.808-1.161,1.193S1371.9,4918.149,1371.512,4918.521Zm-85.627-3.51c-.733-.816-1.451-1.661-2.134-2.511l.511-.41c.675.84,1.386,1.675,2.111,2.483Zm90.159-1.275-.5-.423c.7-.827,1.387-1.682,2.039-2.541l.522.4C1377.447,4912.036,1376.754,4912.9,1376.044,4913.735Zm-94.287-3.86c-.639-.892-1.26-1.809-1.846-2.73l.552-.352c.579.911,1.193,1.819,1.825,2.7Zm98.267-1.386-.543-.367c.607-.9,1.195-1.825,1.747-2.75l.562.335C1381.232,4906.644,1380.638,4907.579,1380.023,4908.489Zm-101.8-4.171c-.535-.954-1.05-1.936-1.532-2.919l.589-.288c.476.973.985,1.942,1.515,2.886Zm105.181-1.484-.58-.3c.5-.959.984-1.944,1.432-2.928l.6.271C1384.394,4900.87,1383.907,4901.866,1383.4,4902.833Zm-108.08-4.433c-.425-1-.828-2.039-1.2-3.069l.616-.222c.366,1.02.765,2.042,1.185,3.036Zm110.808-1.561-.61-.237c.392-1.006.761-2.039,1.1-3.068l.623.2C1386.9,4894.778,1386.525,4895.822,1386.128,4896.839ZM1273.1,4892.2c-.312-1.049-.6-2.121-.851-3.182l.637-.153c.25,1.053.533,2.111.841,3.148Zm115.079-1.621-.632-.167c.278-1.044.531-2.111.751-3.172l.641.133C1388.712,4888.445,1388.456,4889.523,1388.175,4890.578Zm-116.6-4.788c-.193-1.075-.36-2.17-.495-3.257l.65-.081c.134,1.076.3,2.159.49,3.221Zm117.945-1.661-.647-.1c.161-1.068.3-2.155.4-3.233l.652.061C1389.817,4881.95,1389.681,4883.051,1389.518,4884.129Zm-118.756-4.875c-.075-1.088-.12-2.2-.136-3.292l.655-.009c.015,1.083.061,2.18.135,3.256Zm119.383-1.683-.654-.026c.032-.809.049-1.63.049-2.441,0-.273,0-.546-.006-.819l.655-.008c0,.274.006.551.006.827C1390.195,4875.925,1390.178,4876.754,1390.145,4877.571Zm-118.821-4.878-.654-.026c.044-1.094.118-2.2.222-3.287l.652.062C1271.44,4870.516,1271.367,4871.61,1271.323,4872.693Zm118.078-1.665c-.073-1.074-.177-2.167-.31-3.243l.65-.081c.135,1.089.24,2.194.314,3.281Zm-117.461-4.822-.648-.1c.164-1.084.359-2.176.581-3.244l.642.132C1272.3,4864.055,1272.1,4865.134,1271.94,4866.206Zm116.663-1.644c-.19-1.062-.414-2.135-.664-3.19l.637-.152c.253,1.067.479,2.152.672,3.226Zm-115.339-4.735-.633-.169c.282-1.059.6-2.122.935-3.159l.623.2C1273.854,4857.728,1273.543,4858.779,1273.265,4859.828Zm113.835-1.6c-.308-1.038-.648-2.079-1.013-3.1l.616-.221c.368,1.03.713,2.084,1.024,3.132Zm-111.814-4.589-.61-.238c.4-1.024.828-2.045,1.279-3.036l.6.271C1276.1,4851.612,1275.679,4852.623,1275.285,4853.635Zm109.618-1.545c-.419-.994-.873-1.992-1.35-2.966l.588-.288c.482.986.941,2,1.365,3Zm-106.921-4.386-.58-.3c.505-.966,1.047-1.934,1.608-2.875l.563.335C1279.016,4845.792,1278.481,4846.75,1277.981,4847.7Zm104.057-1.466c-.529-.944-1.091-1.885-1.672-2.8l.553-.351c.587.924,1.155,1.875,1.69,2.83Zm-100.721-4.128-.543-.366c.61-.9,1.255-1.807,1.917-2.68l.521.4C1282.559,4840.323,1281.922,4841.215,1281.317,4842.11Zm97.226-1.372c-.627-.876-1.29-1.75-1.97-2.6l.51-.411c.688.856,1.358,1.739,1.992,2.625Zm-93.292-3.817-.5-.425c.705-.833,1.445-1.658,2.2-2.453l.476.449C1286.679,4835.281,1285.948,4836.1,1285.251,4836.921Zm89.212-1.264c-.721-.8-1.475-1.6-2.242-2.367l-.042-.044.463-.462.045.045c.772.772,1.535,1.579,2.264,2.392Zm-84.732-3.473-.451-.475c.795-.755,1.62-1.5,2.452-2.2l.424.5C1291.332,4830.706,1290.516,4831.438,1289.73,4832.185Zm80.08-1.177c-.81-.724-1.646-1.433-2.486-2.106l.41-.511c.849.681,1.694,1.4,2.513,2.129Zm-75.115-3.045-.4-.522c.872-.662,1.773-1.309,2.678-1.921l.367.543C1296.449,4826.666,1295.558,4827.306,1294.7,4827.962Zm70.032-1.026c-.881-.631-1.79-1.243-2.7-1.821l.351-.553c.921.583,1.84,1.2,2.731,1.841Zm-64.635-2.625-.336-.562c.944-.564,1.91-1.107,2.874-1.613l.3.581C1301.982,4823.216,1301.026,4823.752,1300.093,4824.311Zm59.135-.865c-.943-.527-1.915-1.035-2.886-1.51l.287-.588c.983.48,1.965.994,2.919,1.527Zm-53.366-2.165-.272-.6c.993-.452,2.015-.884,3.035-1.284l.238.61C1307.853,4820.405,1306.843,4820.833,1305.861,4821.281Zm47.514-.692c-1-.419-2.019-.816-3.037-1.181l.22-.616c1.03.368,2.063.77,3.07,1.194Zm-41.445-1.679-.2-.622c1.042-.342,2.1-.657,3.159-.938l.169.632C1314.011,4818.26,1312.96,4818.573,1311.93,4818.91Zm35.309-.513c-1.041-.307-2.1-.587-3.149-.835l.151-.638c1.06.251,2.131.537,3.184.846Zm-29.016-1.169-.134-.641c1.072-.225,2.163-.422,3.242-.586l.1.647C1320.363,4816.811,1319.284,4817,1318.224,4817.228Zm22.676-.328c-1.067-.191-2.151-.355-3.223-.486l.08-.65c1.083.134,2.179.3,3.258.49Zm-16.235-.653-.062-.652c1.088-.1,2.194-.182,3.287-.227l.027.655C1326.834,4816.067,1325.74,4816.143,1324.664,4816.247Zm9.768-.141c-1.081-.073-2.177-.117-3.257-.13l.008-.655c1.092.014,2.2.057,3.293.132Z" transform="translate(-1270.626 -4815.321)" fill="#f2f2f2"/>
    </g>
    <g id="Group_581" data-name="Group 581" transform="translate(0.327 30.948)">
      <path id="Path_3519" data-name="Path 3519" d="M1149.366,4780.125h-.077c-1.087,0-2.188-.022-3.272-.063l.025-.655c1.076.042,2.169.063,3.247.063h.077Zm3.269-.066-.026-.656c1.075-.041,2.164-.1,3.235-.186l.05.652C1154.815,4779.954,1153.719,4780.019,1152.635,4780.06Zm-9.885-.185c-1.081-.083-2.177-.187-3.257-.312l.075-.65c1.073.123,2.16.228,3.232.309Zm16.4-.32-.075-.649c1.066-.125,2.147-.272,3.212-.437l.1.648C1161.31,4779.282,1160.221,4779.431,1159.146,4779.555Zm-22.9-.43c-1.076-.166-2.16-.355-3.223-.563l.125-.643c1.054.206,2.13.394,3.2.559Zm29.35-.574-.126-.642c1.06-.207,2.125-.437,3.169-.684l.151.637C1167.742,4778.111,1166.668,4778.343,1165.6,4778.551Zm-35.77-.676c-1.058-.251-2.124-.524-3.169-.814l.175-.631c1.036.288,2.094.559,3.144.807Zm42.129-.827-.175-.63c1.036-.289,2.081-.6,3.106-.93l.2.624C1174.057,4776.443,1173,4776.758,1171.96,4777.048Zm-48.432-.924c-1.033-.33-2.075-.686-3.095-1.057l.224-.615c1.012.368,2.046.721,3.071,1.049Zm54.654-1.071-.224-.615c1.009-.368,2.027-.763,3.025-1.17l.248.606C1180.225,4774.285,1179.2,4774.682,1178.182,4775.053Zm-60.8-1.165c-1-.41-2.013-.846-3-1.3l.271-.6c.982.448,1.984.88,2.979,1.286Zm66.848-1.312-.272-.6c.975-.444,1.96-.917,2.924-1.4l.3.584C1186.205,4771.652,1185.214,4772.127,1184.23,4772.575Zm-72.8-1.4c-.966-.487-1.939-1-2.892-1.527l.318-.573c.945.523,1.91,1.034,2.869,1.516Zm78.636-1.544-.317-.574c.939-.519,1.884-1.067,2.806-1.626l.339.56C1191.967,4768.557,1191.015,4769.108,1190.068,4769.634Zm-84.356-1.622c-.929-.562-1.859-1.149-2.764-1.747l.361-.545c.9.592,1.82,1.174,2.742,1.732Zm89.947-1.767-.361-.547c.9-.594,1.8-1.213,2.672-1.84l.382.532C1197.472,4765.022,1196.566,4765.645,1195.658,4766.245Zm-95.4-1.834c-.882-.631-1.763-1.29-2.619-1.956l.4-.517c.849.661,1.723,1.313,2.6,1.94Zm100.715-1.978-.4-.516c.85-.662,1.7-1.349,2.522-2.043l.422.5C1202.682,4761.074,1201.827,4761.766,1200.97,4762.433ZM1095.1,4760.4c-.831-.7-1.659-1.423-2.461-2.151l.441-.485c.8.723,1.617,1.441,2.441,2.134Zm110.877-2.179-.441-.484c.8-.724,1.59-1.475,2.359-2.23l.459.469C1207.574,4756.736,1206.774,4757.492,1205.973,4758.222Zm-115.714-2.216c-.193-.19-.385-.38-.576-.572-.575-.576-1.152-1.168-1.714-1.764l.476-.45c.557.591,1.13,1.18,1.7,1.752l.571.565Zm120.38-2.366-.476-.45c.737-.78,1.47-1.588,2.18-2.4l.493.43C1212.12,4752.037,1211.381,4752.852,1210.638,4753.64Zm-124.869-2.39c-.712-.815-1.42-1.658-2.1-2.5l.509-.412c.678.841,1.381,1.675,2.088,2.484Zm129.168-2.534-.51-.412c.678-.839,1.347-1.7,1.988-2.562l.525.392C1216.294,4747,1215.62,4747.87,1214.937,4748.716Zm-133.278-2.552c-.649-.87-1.29-1.765-1.9-2.658l.54-.371c.609.885,1.245,1.773,1.89,2.637Zm137.185-2.687-.539-.372c.61-.888,1.211-1.8,1.784-2.708l.554.35C1220.064,4741.664,1219.459,4742.582,1218.844,4743.477Zm-140.89-2.7c-.579-.916-1.149-1.858-1.693-2.8l.567-.327c.54.931,1.1,1.864,1.68,2.775Zm144.381-2.829-.568-.328c.54-.933,1.067-1.888,1.569-2.84l.58.307C1223.41,4736.045,1222.878,4737.008,1222.335,4737.949Zm-147.656-2.83c-.505-.956-1-1.939-1.469-2.919l.59-.284c.467.974.957,1.948,1.459,2.9Zm150.705-2.953-.591-.282c.463-.968.915-1.963,1.343-2.955l.6.259C1226.306,4730.189,1225.85,4731.19,1225.384,4732.166Zm-153.528-2.942c-.429-.993-.845-2.012-1.237-3.025l.611-.236c.389,1.006.8,2.017,1.227,3Zm156.117-3.062-.611-.236c.387-1,.76-2.03,1.108-3.05l.62.212C1228.738,4724.114,1228.363,4725.149,1227.972,4726.162Zm-158.47-3.034c-.35-1.025-.685-2.071-1-3.113l.628-.187c.309,1.033.641,2.074.988,3.087Zm160.581-3.156-.627-.186c.307-1.032.6-2.084.865-3.127l.634.162C1230.687,4717.872,1230.393,4718.933,1230.084,4719.971Zm-162.451-3.107c-.27-1.052-.522-2.122-.749-3.179l.64-.138c.225,1.05.476,2.111.743,3.156Zm164.072-3.229-.64-.138c.226-1.053.434-2.125.618-3.187l.645.113C1232.142,4711.493,1231.932,4712.573,1231.7,4713.635Zm-165.447-3.157c-.187-1.072-.355-2.158-.5-3.228l.649-.088c.143,1.063.31,2.14.5,3.2Zm166.569-3.289-.649-.086c.144-1.069.268-2.155.371-3.225l.651.062C1233.1,4705.019,1232.972,4706.113,1232.827,4707.189ZM1065.384,4704c-.1-1.076-.188-2.17-.25-3.256l.653-.039c.062,1.078.145,2.164.247,3.232Zm168.063-3.329-.653-.036c.061-1.072.1-2.164.121-3.246l.655.012C1233.55,4698.5,1233.509,4699.6,1233.447,4700.676Zm-168.438-3.19q-.016-.829-.016-1.658,0-.81.015-1.617l.655.012q-.014.8-.015,1.6,0,.825.016,1.644Zm167.9-3.34c-.021-1.075-.063-2.163-.125-3.239l.654-.038c.062,1.084.105,2.181.126,3.263Zm-167.127-3.167-.653-.038c.061-1.082.145-2.179.249-3.262l.651.062C1065.93,4688.816,1065.847,4689.905,1065.786,4690.979Zm166.753-3.3c-.1-1.074-.229-2.155-.374-3.221l.649-.087c.145,1.073.272,2.164.376,3.243Zm-166.134-3.162-.649-.086c.145-1.076.313-2.164.5-3.234l.645.113C1066.715,4682.371,1066.548,4683.45,1066.4,4684.516Zm165.263-3.263c-.186-1.059-.4-2.129-.622-3.181l.64-.138c.228,1.059.439,2.138.627,3.206Zm-164.146-3.131-.64-.138c.229-1.064.482-2.136.75-3.184l.634.162C1068,4676,1067.748,4677.065,1067.521,4678.123Zm162.78-3.2c-.267-1.041-.559-2.092-.868-3.125l.628-.186c.312,1.04.606,2.1.875,3.148Zm-161.168-3.082-.627-.187c.31-1.04.645-2.088,1-3.116l.62.212C1069.773,4669.765,1069.44,4670.8,1069.132,4671.836Zm159.311-3.13c-.347-1.015-.721-2.04-1.11-3.047l.61-.237c.393,1.016.769,2.049,1.119,3.072Zm-157.214-3.011-.61-.235c.391-1.013.807-2.032,1.237-3.027l.6.258C1072.031,4663.681,1071.617,4664.691,1071.229,4665.7Zm154.875-3.038c-.426-.984-.878-1.979-1.344-2.951l.59-.283c.47.98.927,1.981,1.355,2.975Zm-152.3-2.917-.591-.283c.469-.979.963-1.962,1.469-2.921l.58.305C1074.756,4657.793,1074.265,4658.768,1073.8,4659.74Zm149.5-2.931c-.5-.95-1.031-1.9-1.572-2.837l.567-.327c.545.939,1.078,1.9,1.584,2.86ZM1076.829,4654l-.567-.329c.543-.939,1.113-1.88,1.693-2.8l.554.349C1077.934,4652.137,1077.369,4653.07,1076.829,4654Zm143.22-2.806c-.576-.911-1.177-1.821-1.787-2.708l.539-.371c.616.893,1.221,1.811,1.8,2.729Zm-139.754-2.679-.54-.37c.613-.891,1.255-1.786,1.905-2.658l.525.392C1081.539,4646.748,1080.9,4647.635,1080.295,4648.519Zm136.076-2.667c-.645-.861-1.315-1.723-1.992-2.561l.509-.411c.682.843,1.358,1.711,2.007,2.581Zm-132.2-2.529-.509-.413c.682-.843,1.39-1.687,2.1-2.5l.493.431C1085.554,4641.649,1084.852,4642.484,1084.174,4643.323Zm128.115-2.514c-.708-.81-1.442-1.617-2.183-2.4l.476-.449c.746.789,1.486,1.6,2.2,2.418Zm-123.847-2.371-.476-.449c.561-.594,1.138-1.187,1.717-1.767.19-.189.382-.38.573-.567l.458.467q-.286.28-.569.564C1089.571,4637.261,1089,4637.851,1088.442,4638.439Zm119.391-2.346c-.768-.753-1.562-1.5-2.359-2.226l.44-.485c.8.729,1.6,1.485,2.378,2.242Zm-114.759-2.2-.441-.486c.8-.73,1.633-1.456,2.462-2.153l.421.5C1094.693,4632.45,1093.871,4633.168,1093.073,4633.9Zm109.957-2.163c-.82-.69-1.669-1.376-2.523-2.039l.4-.518c.86.668,1.715,1.36,2.543,2.055Zm-104.991-2.015-.4-.517c.858-.666,1.739-1.326,2.62-1.957l.381.532C1099.765,4628.4,1098.89,4629.057,1098.039,4629.718Zm99.87-1.963c-.874-.625-1.774-1.244-2.673-1.836l.361-.548c.907.6,1.813,1.221,2.694,1.852Zm-94.6-1.817-.361-.547c.908-.6,1.838-1.187,2.764-1.747l.339.56C1105.135,4624.76,1104.212,4625.343,1103.311,4625.938Zm89.182-1.752c-.92-.557-1.864-1.1-2.808-1.624l.316-.574c.951.526,1.9,1.076,2.831,1.637Zm-83.633-1.607-.318-.573c.952-.526,1.925-1.04,2.891-1.526l.295.584C1110.769,4621.546,1109.8,4622.056,1108.86,4622.578Zm77.956-1.531c-.96-.484-1.945-.956-2.926-1.4l.271-.6c.989.45,1.981.924,2.949,1.411Zm-72.163-1.386-.272-.6c.986-.45,2-.886,3-1.3l.248.606C1116.633,4618.782,1115.632,4619.217,1114.653,4619.662Zm66.258-1.3c-.994-.407-2.013-.8-3.028-1.168l.224-.614c1.022.371,2.049.767,3.051,1.176Zm-60.256-1.154-.224-.615c1.018-.371,2.058-.727,3.092-1.058l.2.624C1122.7,4616.486,1121.665,4616.84,1120.655,4617.207Zm54.158-1.062c-1.029-.328-2.076-.64-3.11-.927l.175-.63c1.042.289,2.1.6,3.135.934Zm-47.983-.915-.175-.632c1.045-.291,2.11-.564,3.165-.812l.151.638C1128.923,4614.671,1127.867,4614.942,1126.83,4615.23Zm41.729-.817c-1.051-.248-2.119-.477-3.173-.682l.125-.643c1.063.207,2.139.438,3.2.687Zm-35.42-.673-.125-.641c1.061-.206,2.144-.4,3.219-.564l.1.647C1135.266,4613.349,1134.192,4613.536,1133.139,4613.74Zm29.048-.566c-1.07-.165-2.152-.311-3.218-.434l.075-.651c1.074.125,2.164.271,3.243.437Zm-22.643-.426-.076-.65c1.075-.124,2.17-.229,3.252-.312l.05.653C1141.7,4612.519,1140.612,4612.625,1139.545,4612.748Zm16.194-.316c-1.077-.081-2.167-.144-3.242-.183l.025-.655c1.083.041,2.182.1,3.267.187Zm-9.733-.18-.025-.654c1.08-.041,2.179-.063,3.268-.064v.654C1148.169,4612.188,1147.078,4612.211,1146.006,4612.251Z" transform="translate(-1064.993 -4611.533)" fill="#f2f2f2"/>
    </g>
    <g id="Group_582" data-name="Group 582" transform="translate(0 0)">
      <path id="Path_3520" data-name="Path 3520" d="M1178.993,4747.017a114.636,114.636,0,1,1,44.764-9.036A114.295,114.295,0,0,1,1178.993,4747.017Zm0-228.69a113.691,113.691,0,1,0,80.391,33.3A112.947,112.947,0,0,0,1178.993,4518.327Z" transform="translate(-1063.993 -4517.019)" fill="#f2f2f2"/>
    </g>
  </g>
</svg>
