<svg id="Group_595" data-name="Group 595" xmlns="http://www.w3.org/2000/svg" width="230" height="230" viewBox="0 0 230 230">
  <circle id="Ellipse_88" data-name="Ellipse 88" cx="115" cy="115" r="115" transform="translate(0 0)" fill="none"/>
  <g id="Group_583" data-name="Group 583" transform="translate(0 0)">
    <g id="Group_563" data-name="Group 563" transform="translate(114.673 0.94)">
      <g id="Group_560" data-name="Group 560" transform="translate(0 226.97)">
        <rect id="Rectangle_774" data-name="Rectangle 774" width="0.655" height="1.637" fill="#f2f2f2"/>
      </g>
      <g id="Group_561" data-name="Group 561" transform="translate(0 4.903)">
        <path id="Path_3508" data-name="Path 3508" d="M1414.861,4753.665h-.655V4750.4h.655Zm0-6.533h-.655v-3.265h.655Zm0-6.53h-.655v-3.266h.655Zm0-6.531h-.655V4730.8h.655Zm0-6.531h-.655v-3.266h.655Zm0-6.531h-.655v-3.267h.655Zm0-6.532h-.655v-3.266h.655Zm0-6.53h-.655v-3.266h.655Zm0-6.532h-.655v-3.265h.655Zm0-6.531h-.655v-3.267h.655Zm0-6.532h-.655v-3.265h.655Zm0-6.53h-.655v-3.266h.655Zm0-6.531h-.655v-3.266h.655Zm0-6.532h-.655v-3.266h.655Zm0-6.531h-.655v-3.266h.655Zm0-6.531h-.655v-3.266h.655Zm0-6.531h-.655V4645.9h.655Zm0-6.531h-.655v-3.267h.655Zm0-6.532h-.655v-3.266h.655Zm0-6.53h-.655V4626.3h.655Zm0-6.531h-.655v-3.267h.655Zm0-6.532h-.655v-3.266h.655Zm0-6.531h-.655v-3.266h.655Zm0-6.531h-.655v-3.266h.655Zm0-6.531h-.655v-3.266h.655Zm0-6.531h-.655v-3.267h.655Zm0-6.532h-.655v-3.265h.655Zm0-6.531h-.655v-3.265h.655Zm0-6.53h-.655v-3.266h.655Zm0-6.531h-.655v-3.267h.655Zm0-6.532h-.655v-3.266h.655Zm0-6.531h-.655v-3.266h.655Zm0-6.531h-.655v-3.266h.655Zm0-6.531h-.655v-3.266h.655Z" transform="translate(-1414.206 -4534.863)" fill="#f2f2f2"/>
      </g>
      <g id="Group_562" data-name="Group 562">
        <rect id="Rectangle_775" data-name="Rectangle 775" width="0.655" height="1.637" fill="#f2f2f2"/>
      </g>
    </g>
    <g id="Group_567" data-name="Group 567" transform="translate(0.852 114.518)">
      <g id="Group_564" data-name="Group 564" transform="translate(0 0)">
        <rect id="Rectangle_776" data-name="Rectangle 776" width="1.637" height="0.655" fill="#f2f2f2"/>
      </g>
      <g id="Group_565" data-name="Group 565" transform="translate(4.903)">
        <path id="Path_3509" data-name="Path 3509" d="M1300.368,4867.412H1297.1v-.655h3.265Zm-6.531,0h-3.266v-.655h3.266Zm-6.531,0h-3.266v-.655h3.266Zm-6.531,0h-3.265v-.655h3.265Zm-6.531,0h-3.266v-.655h3.266Zm-6.532,0h-3.265v-.655h3.265Zm-6.531,0h-3.265v-.655h3.265Zm-6.531,0h-3.265v-.655h3.265Zm-6.531,0h-3.266v-.655h3.266Zm-6.531,0h-3.266v-.655h3.266Zm-6.531,0h-3.265v-.655h3.265Zm-6.531,0h-3.266v-.655h3.266Zm-6.532,0h-3.265v-.655h3.265Zm-6.531,0h-3.266v-.655h3.266Zm-6.531,0h-3.265v-.655h3.265Zm-6.531,0h-3.266v-.655h3.266Zm-6.531,0H1192.6v-.655h3.266Zm-6.531,0h-3.266v-.655h3.266Zm-6.531,0h-3.266v-.655h3.266Zm-6.531,0h-3.266v-.655h3.266Zm-6.531,0h-3.266v-.655h3.266Zm-6.531,0h-3.266v-.655h3.266Zm-6.531,0h-3.266v-.655h3.266Zm-6.532,0h-3.266v-.655h3.266Zm-6.532,0h-3.266v-.655h3.266Zm-6.531,0h-3.266v-.655h3.266Zm-6.531,0h-3.266v-.655h3.266Zm-6.531,0h-3.266v-.655h3.266Zm-6.531,0h-3.266v-.655h3.266Zm-6.531,0h-3.266v-.655h3.266Zm-6.531,0h-3.266v-.655h3.266Zm-6.531,0h-3.266v-.655h3.266Zm-6.532,0H1088.1v-.655h3.266Zm-6.531,0h-3.266v-.655h3.266Z" transform="translate(-1081.567 -4866.757)" fill="#f2f2f2"/>
      </g>
      <g id="Group_566" data-name="Group 566" transform="translate(226.97 0)">
        <rect id="Rectangle_777" data-name="Rectangle 777" width="1.637" height="0.655" fill="#f2f2f2"/>
      </g>
    </g>
    <g id="Group_571" data-name="Group 571" transform="translate(154.309 100.164)">
      <g id="Group_568" data-name="Group 568">
        <path id="Path_3510" data-name="Path 3510" d="M1550.132,4852.592h-.043a14.946,14.946,0,0,1-3.3-.367l.145-.64a14.289,14.289,0,0,0,3.156.353h.043Zm3.3-.378-.147-.638a14.117,14.117,0,0,0,2.993-1.056l.286.589A14.653,14.653,0,0,1,1553.433,4852.214Zm-9.781-1.085a14.867,14.867,0,0,1-2.81-1.77l.409-.512a14.186,14.186,0,0,0,2.686,1.691Zm15.718-1.8-.41-.511a14.4,14.4,0,0,0,2.24-2.25l.512.406a15.26,15.26,0,0,1-1.133,1.27A15.09,15.09,0,0,1,1559.37,4849.332Zm-20.878-2.32a14.893,14.893,0,0,1-1.771-2.81l.59-.285A14.145,14.145,0,0,0,1539,4846.6Zm24.984-2.85-.59-.283a14.04,14.04,0,0,0,1.04-3l.639.142A14.66,14.66,0,0,1,1563.476,4844.162Zm-27.853-3.1a14.948,14.948,0,0,1-.37-3.3h.655a14.24,14.24,0,0,0,.354,3.154Zm28.647-3.342a14.266,14.266,0,0,0-.358-3.154l.638-.147a14.959,14.959,0,0,1,.375,3.3Zm-28.013-3.115-.639-.145a14.769,14.769,0,0,1,1.093-3.137l.59.284A14.1,14.1,0,0,0,1536.257,4834.609Zm26.6-3.034a14.191,14.191,0,0,0-1.7-2.681l.511-.411a14.8,14.8,0,0,1,1.776,2.807Zm-23.867-2.65-.512-.408a14.945,14.945,0,0,1,1.119-1.252,15.2,15.2,0,0,1,1.227-1.1l.409.512a14.259,14.259,0,0,0-2.243,2.247Zm19.92-2.273a14.225,14.225,0,0,0-2.688-1.687l.283-.59a14.79,14.79,0,0,1,2.813,1.766Zm-14.993-1.67-.285-.59a14.725,14.725,0,0,1,3.134-1.1l.146.638A14.158,14.158,0,0,0,1543.918,4824.981Zm9.307-1.06a14.278,14.278,0,0,0-3.136-.348l-.021-.654h.021a14.991,14.991,0,0,1,3.28.362Z" transform="translate(-1535.253 -4822.92)" fill="#f2f2f2"/>
      </g>
      <g id="Group_569" data-name="Group 569" transform="translate(6.004 6.004)">
        <path id="Path_3511" data-name="Path 3511" d="M1562.427,4858.919h-.006a8.786,8.786,0,0,1-3.374-.665l.25-.6a8.141,8.141,0,0,0,3.124.615Zm3.38-.669-.251-.6a8.171,8.171,0,0,0,2.647-1.776l.465.46,0,0A8.814,8.814,0,0,1,1565.807,4858.25Zm-9.625-1.911-.007-.007a8.779,8.779,0,0,1-1.914-2.853l.6-.251a8.125,8.125,0,0,0,1.772,2.641Zm14.4-2.871-.605-.251a8.149,8.149,0,0,0,.617-3.131l.655-.024v.024A8.8,8.8,0,0,1,1570.586,4853.468Zm-17-3.368v-.014a8.8,8.8,0,0,1,.662-3.367l.606.25a8.151,8.151,0,0,0-.613,3.117Zm16.383-3.165a8.15,8.15,0,0,0-1.768-2.631l.456-.47a8.823,8.823,0,0,1,1.917,2.849Zm-13.333-2.631-.474-.451.011-.012a8.8,8.8,0,0,1,2.847-1.911l.252.6A8.137,8.137,0,0,0,1556.638,4844.3Zm8.894-1.784a8.131,8.131,0,0,0-3.112-.611l-.019-.654h.019a8.8,8.8,0,0,1,3.361.66Z" transform="translate(-1553.588 -4841.254)" fill="#f2f2f2"/>
      </g>
      <g id="Group_570" data-name="Group 570" transform="translate(11.46 11.461)">
        <path id="Path_3512" data-name="Path 3512" d="M1577,4861.3a3.375,3.375,0,1,1-.989-2.388A3.352,3.352,0,0,1,1577,4861.3Z" transform="translate(-1570.252 -4857.92)" fill="#f2f2f2"/>
      </g>
    </g>
    <g id="Group_573" data-name="Group 573" transform="translate(82.02 111.748)">
      <g id="Group_572" data-name="Group 572">
        <path id="Path_3513" data-name="Path 3513" d="M1321.235,4861.672a3.375,3.375,0,1,1-.989-2.388A3.353,3.353,0,0,1,1321.235,4861.672Z" transform="translate(-1314.484 -4858.296)" fill="#f2f2f2"/>
      </g>
    </g>
    <g id="Group_575" data-name="Group 575" transform="translate(81.607 27.792)">
      <g id="Group_574" data-name="Group 574">
        <path id="Path_3514" data-name="Path 3514" d="M1319.972,4605.271a3.377,3.377,0,1,1-.989-2.386A3.355,3.355,0,0,1,1319.972,4605.271Z" transform="translate(-1313.22 -4601.896)" fill="#f2f2f2"/>
      </g>
    </g>
    <g id="Group_577" data-name="Group 577" transform="translate(81.607 195.943)">
      <g id="Group_576" data-name="Group 576">
        <path id="Path_3515" data-name="Path 3515" d="M1319.972,5118.8a3.375,3.375,0,1,1-.989-2.387A3.356,3.356,0,0,1,1319.972,5118.8Z" transform="translate(-1313.22 -5115.43)" fill="#f2f2f2"/>
      </g>
    </g>
    <g id="Group_578" data-name="Group 578" transform="translate(85.162 73.392)">
      <path id="Path_3516" data-name="Path 3516" d="M1365.955,4824.861h-.046c-.859,0-1.726-.026-2.578-.079l.031-.507c.841.051,1.7.077,2.547.077h.046Zm2.576-.081-.031-.507c.844-.053,1.7-.131,2.534-.235l.062.5C1370.248,4824.647,1369.385,4824.728,1368.531,4824.78Zm-7.768-.232c-.852-.1-1.71-.236-2.548-.391l.093-.5c.828.154,1.675.284,2.518.388Zm12.879-.4-.093-.5c.83-.153,1.666-.337,2.486-.543l.124.493C1375.329,4823.808,1374.482,4823.993,1373.642,4824.149Zm-17.948-.541c-.829-.207-1.663-.444-2.481-.7l.153-.485c.808.257,1.633.49,2.451.7Zm22.943-.715-.154-.484c.807-.257,1.614-.542,2.4-.847l.184.474C1380.272,4822.346,1379.455,4822.634,1378.638,4822.894Zm-27.856-.846c-.8-.309-1.595-.646-2.374-1l.213-.462c.77.354,1.559.688,2.344.994Zm32.658-1.02-.213-.461c.766-.354,1.531-.737,2.277-1.139l.241.447C1384.991,4820.283,1384.215,4820.671,1383.44,4821.028Zm-37.339-1.138c-.753-.4-1.5-.84-2.23-1.291l.268-.432c.718.446,1.46.876,2.2,1.276Zm41.875-1.309-.269-.432c.716-.445,1.429-.919,2.119-1.411l.295.415C1389.422,4817.651,1388.7,4818.131,1387.976,4818.582Zm-46.252-1.409c-.7-.5-1.389-1.019-2.055-1.556l.319-.4c.657.529,1.34,1.047,2.029,1.536Zm50.451-1.576-.319-.4c.656-.53,1.306-1.09,1.931-1.661l.343.376C1393.5,4814.494,1392.839,4815.06,1392.175,4815.6Zm-54.461-1.658c-.476-.435-.946-.884-1.4-1.336q-.229-.229-.453-.46l.365-.354q.222.229.447.454c.447.447.911.892,1.381,1.32Zm58.265-1.819-.365-.354c.589-.609,1.166-1.241,1.715-1.883l.386.332C1397.159,4810.862,1396.575,4811.5,1395.979,4812.119Zm-61.853-1.88c-.558-.65-1.1-1.325-1.619-2.006l.406-.308c.51.674,1.048,1.341,1.6,1.982Zm65.206-2.032-.406-.306c.51-.674,1-1.374,1.472-2.079l.424.282C1400.348,4806.818,1399.847,4807.525,1399.331,4808.207Zm-68.316-2.077c-.475-.713-.932-1.45-1.36-2.189l.44-.254c.422.729.875,1.457,1.344,2.162Zm71.165-2.217-.44-.254c.422-.731.828-1.485,1.205-2.243l.455.228C1403.018,4802.408,1402.607,4803.172,1402.18,4803.913Zm-73.747-2.242c-.382-.766-.745-1.553-1.079-2.341l.469-.2c.33.779.689,1.557,1.065,2.313Zm76.044-2.37-.468-.2c.329-.781.639-1.58.918-2.376l.48.168C1405.123,4797.7,1404.811,4798.511,1404.477,4799.3Zm-78.054-2.374c-.284-.808-.546-1.633-.78-2.455l.489-.139c.231.813.49,1.628.771,2.425Zm79.762-2.49-.489-.138c.229-.811.437-1.643.616-2.471l.5.106C1406.627,4792.773,1406.417,4793.616,1406.185,4794.437Zm-81.168-2.466c-.182-.836-.34-1.687-.47-2.532l.5-.078c.128.835.284,1.677.464,2.5Zm82.26-2.571-.5-.077c.127-.834.231-1.686.307-2.528l.507.046C1407.511,4787.693,1407.406,4788.554,1407.277,4789.4Zm-83.043-2.52c-.078-.852-.131-1.716-.156-2.57l.508-.015c.025.843.077,1.7.155,2.54Zm83.508-2.614-.508-.016q.018-.618.018-1.241c0-.437-.007-.874-.02-1.308l.508-.016c.014.439.02.882.02,1.323Q1407.76,4783.639,1407.742,4784.266Zm-83.157-2.521-.508-.015c.025-.854.077-1.721.155-2.573l.506.046C1324.662,4780.044,1324.61,4780.9,1324.585,4781.744Zm82.491-2.583c-.077-.839-.182-1.689-.311-2.526l.5-.077c.13.847.236,1.707.314,2.557Zm-82.029-2.487-.5-.078c.13-.847.288-1.7.469-2.535l.5.107C1325.332,4774.994,1325.176,4775.837,1325.047,4776.674Zm81.253-2.542c-.18-.823-.389-1.654-.62-2.468l.489-.14c.234.824.445,1.666.627,2.5Zm-80.171-2.436-.489-.139c.233-.824.5-1.65.779-2.457l.479.169C1326.619,4770.064,1326.359,4770.882,1326.129,4771.7Zm78.779-2.457c-.28-.795-.59-1.594-.921-2.374l.468-.2c.335.79.649,1.6.932,2.4Zm-77.09-2.345-.469-.2c.334-.787.7-1.574,1.079-2.342l.455.227C1328.506,4765.339,1328.147,4766.117,1327.818,4766.895Zm75.1-2.341c-.378-.756-.785-1.511-1.208-2.241l.44-.254c.429.739.84,1.5,1.223,2.269Zm-72.831-2.215-.44-.255c.428-.739.885-1.477,1.359-2.189l.424.281C1330.965,4760.88,1330.513,4761.607,1330.09,4762.339Zm70.279-2.187c-.469-.705-.966-1.4-1.476-2.077l.405-.307c.516.682,1.018,1.388,1.494,2.1Zm-67.462-2.052-.406-.307c.515-.682,1.059-1.355,1.618-2.007l.386.33C1333.953,4756.76,1333.415,4757.427,1332.907,4758.1Zm64.386-2.007c-.55-.64-1.128-1.272-1.718-1.88l.364-.354c.6.615,1.183,1.256,1.739,1.9Zm-61.072-1.856-.365-.354c.152-.156.3-.312.46-.468.451-.451.919-.9,1.39-1.327l.343.374c-.465.426-.927.867-1.374,1.313Q1336.446,4754,1336.221,4754.236Zm57.524-1.8c-.625-.569-1.275-1.127-1.933-1.657l.319-.4c.666.536,1.324,1.1,1.957,1.678Zm-53.764-1.636-.319-.4c.667-.539,1.359-1.062,2.055-1.558l.295.415C1341.323,4749.753,1340.64,4750.271,1339.98,4750.8Zm49.8-1.557c-.69-.489-1.4-.963-2.121-1.408l.268-.432c.727.45,1.449.93,2.148,1.425Zm-45.651-1.392-.269-.433c.726-.449,1.476-.885,2.23-1.291l.241.446C1345.588,4746.98,1344.847,4747.41,1344.131,4747.855Zm41.325-1.292c-.745-.4-1.512-.783-2.279-1.136l.213-.462c.777.357,1.552.744,2.307,1.149Zm-36.844-1.123-.213-.461c.777-.358,1.576-.7,2.373-1.006l.184.474C1350.168,4744.753,1349.38,4745.087,1348.612,4745.44Zm32.219-1c-.786-.3-1.595-.589-2.4-.846l.153-.483c.818.259,1.636.546,2.433.855Zm-27.475-.835-.154-.483c.816-.26,1.65-.5,2.479-.7l.124.492C1354.986,4743.111,1354.162,4743.345,1353.356,4743.6Zm22.622-.7c-.818-.2-1.655-.386-2.489-.541l.092-.5c.844.155,1.692.34,2.52.547Zm-17.687-.534-.093-.5c.84-.156,1.7-.288,2.546-.393l.062.5C1359.967,4742.08,1359.122,4742.21,1358.292,4742.363Zm12.679-.392c-.838-.1-1.692-.18-2.537-.23l.031-.508c.855.052,1.719.13,2.568.233Zm-7.63-.229-.031-.506c.854-.054,1.721-.08,2.576-.08v.509C1365.042,4741.666,1364.185,4741.693,1363.341,4741.743Z" transform="translate(-1324.077 -4741.157)" fill="#f2f2f2"/>
    </g>
    <g id="Group_579" data-name="Group 579" transform="translate(67.653 12.522)">
      <path id="Path_3517" data-name="Path 3517" d="M1330.394,4674.831c-.821,0-1.651-.017-2.468-.05l.027-.655c1.08.045,2.174.061,3.259.045l.009.655Q1330.808,4674.831,1330.394,4674.831Zm4.119-.14-.044-.654c1.075-.072,2.167-.177,3.244-.31l.08.65C1336.7,4674.511,1335.6,4674.616,1334.513,4674.691Zm-9.874-.134c-1.092-.1-2.191-.24-3.27-.4l.1-.648c1.067.163,2.155.3,3.234.4Zm16.411-.673-.116-.645c1.062-.191,2.135-.415,3.19-.664l.151.637C1343.21,4673.465,1342.125,4673.69,1341.051,4673.884Zm-22.925-.312c-1.072-.223-2.151-.479-3.206-.76l.169-.632c1.043.278,2.11.53,3.171.751Zm29.334-1.208-.186-.628c1.037-.308,2.079-.649,3.1-1.013l.221.617C1349.561,4671.708,1348.508,4672.052,1347.459,4672.363Zm-35.7-.489c-1.041-.34-2.085-.714-3.1-1.111l.238-.609c1.006.392,2.037.761,3.067,1.1Zm41.9-1.732-.255-.6c.994-.418,1.991-.873,2.966-1.35l.288.587C1355.676,4669.259,1354.666,4669.718,1353.662,4670.143Zm-48.038-.659c-.995-.453-1.99-.94-2.959-1.448l.3-.58c.958.5,1.943.984,2.927,1.432Zm53.957-2.238-.321-.571c.944-.529,1.885-1.091,2.8-1.672l.351.553C1361.486,4666.143,1360.534,4666.711,1359.58,4667.246Zm-59.791-.82c-.935-.558-1.871-1.153-2.781-1.766l.366-.544c.9.608,1.825,1.2,2.75,1.749Zm65.351-2.714-.381-.533c.877-.627,1.751-1.291,2.6-1.97l.41.51C1366.911,4662.406,1366.027,4663.077,1365.14,4663.711Zm-70.809-.97c-.868-.659-1.732-1.352-2.568-2.062l.423-.5c.827.7,1.682,1.387,2.541,2.04Zm75.947-3.156-.438-.487c.8-.722,1.6-1.477,2.367-2.242l.043-.043.463.463-.043.043C1371.9,4658.094,1371.091,4658.856,1370.278,4659.586Zm-80.968-1.1c-.4-.379-.8-.77-1.193-1.161s-.77-.781-1.14-1.171l.476-.45c.366.386.745.777,1.127,1.159s.784.773,1.18,1.149Zm85.667-3.6-.488-.437c.724-.808,1.432-1.645,2.106-2.484l.511.409C1376.425,4653.22,1375.709,4654.064,1374.978,4654.882Zm-90.2-1.185c-.708-.834-1.4-1.7-2.065-2.569l.522-.4c.655.862,1.341,1.715,2.042,2.541Zm94.319-3.953-.533-.38c.63-.881,1.243-1.791,1.821-2.7l.553.351C1380.352,4647.935,1379.732,4648.852,1379.1,4649.744Zm-98.3-1.295c-.614-.908-1.209-1.844-1.769-2.781l.563-.336c.554.927,1.142,1.853,1.749,2.75Zm101.831-4.266-.572-.32c.527-.943,1.035-1.915,1.51-2.886l.588.287C1383.67,4642.247,1383.156,4643.228,1382.624,4644.183Zm-105.212-1.39c-.51-.972-1-1.968-1.449-2.959l.6-.271c.446.981.928,1.965,1.433,2.927Zm108.1-4.528-.6-.254c.42-1,.817-2.018,1.181-3.038l.616.221C1386.339,4636.223,1385.938,4637.255,1385.513,4638.264ZM1274.68,4636.8c-.4-1.021-.772-2.065-1.112-3.1l.623-.2c.336,1.026.705,2.058,1.1,3.067Zm113.049-4.738-.628-.185c.307-1.041.589-2.1.837-3.15l.637.152C1388.324,4629.937,1388.039,4631.008,1387.729,4632.06Zm-115.1-1.523c-.281-1.053-.537-2.132-.761-3.206l.641-.134c.222,1.063.475,2.13.753,3.171Zm116.613-4.887-.645-.115c.191-1.067.354-2.151.485-3.223l.65.081C1389.6,4623.475,1389.437,4624.572,1389.244,4625.65Zm-117.957-1.562c-.164-1.079-.3-2.179-.4-3.269l.651-.063c.1,1.079.238,2.167.4,3.233Zm118.759-4.977-.654-.043c.073-1.081.116-2.177.13-3.258l.655.009C1390.163,4616.911,1390.119,4618.018,1390.046,4619.111Zm-119.388-1.579c-.034-.824-.052-1.661-.052-2.489q0-.4.006-.806l.655.008q-.005.4-.006.8c0,.819.017,1.646.051,2.462Zm118.817-4.982c-.045-1.08-.12-2.174-.224-3.25l.652-.062c.105,1.088.181,2.193.227,3.286Zm-118.076-1.562-.654-.044c.075-1.1.18-2.2.313-3.28l.65.08C1271.576,4608.813,1271.472,4609.9,1271.4,4610.988Zm117.451-4.922c-.162-1.067-.357-2.146-.579-3.206l.641-.135c.225,1.072.421,2.163.585,3.242Zm-116.655-1.544-.645-.116c.193-1.075.418-2.16.671-3.226l.637.151C1272.608,4602.384,1272.385,4603.458,1272.194,4604.521Zm115.322-4.833c-.278-1.042-.591-2.093-.928-3.123l.622-.2c.342,1.042.657,2.1.939,3.158Zm-113.82-1.507-.628-.187c.31-1.045.654-2.1,1.023-3.131l.617.22C1274.343,4596.1,1274,4597.147,1273.7,4598.182Zm111.79-4.683c-.394-1.008-.821-2.017-1.27-3l.6-.271c.454,1,.886,2.015,1.284,3.034Zm-109.6-1.45-.6-.255c.426-1.009.885-2.017,1.365-3l.588.288C1276.764,4590.053,1276.311,4591.049,1275.89,4592.048Zm106.891-4.479c-.5-.952-1.036-1.909-1.595-2.842l.562-.335c.565.943,1.108,1.91,1.613,2.873Zm-104.03-1.374-.571-.32c.531-.948,1.1-1.9,1.688-2.828l.553.351C1279.838,4584.316,1279.277,4585.258,1278.751,4586.2Zm100.685-4.217c-.605-.9-1.244-1.785-1.9-2.649l.521-.4c.663.873,1.31,1.772,1.921,2.678Zm-97.193-1.28-.533-.381c.636-.889,1.305-1.771,1.99-2.625l.511.41C1283.534,4578.947,1282.871,4579.819,1282.243,4580.7Zm93.25-3.908c-.7-.823-1.433-1.639-2.179-2.424l.476-.451c.754.794,1.495,1.619,2.2,2.452Zm-89.174-1.172-.488-.438c.729-.812,1.491-1.618,2.264-2.392l.464.463C1287.793,4574.018,1287.04,4574.814,1286.319,4575.619Zm84.687-3.559c-.788-.745-1.6-1.476-2.427-2.173l.424-.5c.832.705,1.657,1.444,2.454,2.2Zm-80.081-1.051-.438-.488c.816-.732,1.661-1.45,2.512-2.134l.41.511C1292.568,4569.573,1291.732,4570.283,1290.925,4571.008Zm75.112-3.159c-.863-.655-1.754-1.292-2.65-1.9l.366-.544c.906.611,1.807,1.256,2.679,1.917Zm-70.033-.924-.382-.532c.891-.639,1.809-1.259,2.73-1.845l.352.552C1297.794,4565.679,1296.885,4566.292,1296,4566.925Zm64.633-2.718c-.932-.556-1.889-1.09-2.844-1.59l.3-.58c.965.5,1.933,1.045,2.875,1.606Zm-59.135-.781-.321-.571c.954-.536,1.936-1.05,2.918-1.533l.288.588C1303.416,4562.387,1302.445,4562.9,1301.5,4563.426Zm53.364-2.24c-.98-.446-1.991-.872-3-1.266l.237-.61c1.023.4,2.044.829,3.036,1.28Zm-47.513-.627-.255-.6c1.006-.425,2.038-.828,3.07-1.2l.222.617C1309.368,4559.74,1308.346,4560.139,1307.353,4560.559Zm41.442-1.734c-1.025-.334-2.077-.646-3.125-.924l.168-.634c1.06.283,2.123.6,3.16.936Zm-35.309-.464-.187-.628c1.049-.312,2.12-.6,3.183-.851l.152.637C1315.582,4557.769,1314.523,4558.052,1313.486,4558.36Zm29.013-1.209c-1.057-.221-2.136-.413-3.208-.576l.1-.647c1.083.164,2.175.359,3.243.58Zm-22.676-.3-.117-.645c1.074-.194,2.17-.359,3.257-.494l.081.649C1321.97,4556.5,1320.886,4556.661,1319.823,4556.853Zm16.232-.674c-1.074-.1-2.168-.176-3.251-.22l.026-.654c1.095.044,2.2.118,3.288.222Zm-9.768-.128-.045-.653c1.089-.074,2.2-.12,3.292-.136l.009.655C1328.461,4555.931,1327.365,4555.977,1326.288,4556.05Z" transform="translate(-1270.606 -4555.261)" fill="#f2f2f2"/>
    </g>
    <g id="Group_580" data-name="Group 580" transform="translate(67.66 97.676)">
      <path id="Path_3518" data-name="Path 3518" d="M1330.408,4934.893q-.4,0-.807-.006l.009-.654c1.086.014,2.18,0,3.26-.045l.027.654C1332.072,4934.875,1331.235,4934.893,1330.408,4934.893Zm-4.1-.139c-1.1-.075-2.2-.18-3.28-.313l.08-.65c1.07.132,2.161.236,3.244.31Zm9.874-.138-.063-.651c1.079-.1,2.167-.238,3.234-.4l.1.646C1338.373,4934.376,1337.273,4934.512,1336.183,4934.616Zm-16.413-.667c-1.075-.193-2.161-.418-3.226-.672l.151-.637c1.054.249,2.127.473,3.19.664Zm22.926-.32-.134-.641c1.063-.222,2.129-.476,3.171-.753l.169.632C1344.848,4933.149,1343.77,4933.4,1342.7,4933.629Zm-29.335-1.2c-1.047-.311-2.1-.655-3.132-1.023l.221-.616c1.02.364,2.062.7,3.1,1.011Zm35.7-.5-.2-.622c1.026-.336,2.058-.705,3.068-1.1l.238.61C1351.141,4931.217,1350.1,4931.591,1349.06,4931.93Zm-41.9-1.718c-1.009-.425-2.018-.885-3-1.364l.288-.588c.97.474,1.968.928,2.966,1.348Zm48.039-.676-.271-.6c.981-.446,1.966-.929,2.927-1.435l.3.581C1357.185,4928.6,1356.189,4929.084,1355.2,4929.536Zm-53.956-2.218c-.949-.531-1.9-1.1-2.829-1.687l.351-.553c.918.582,1.859,1.145,2.8,1.67Zm59.791-.843-.336-.562c.927-.554,1.852-1.142,2.75-1.748l.366.541C1362.9,4925.319,1361.969,4925.915,1361.032,4926.476Zm-65.351-2.687c-.888-.636-1.771-1.306-2.625-1.989l.41-.512c.844.677,1.717,1.34,2.6,1.969Zm70.81-1-.4-.523c.862-.653,1.717-1.341,2.541-2.04l.424.5C1368.228,4921.43,1367.363,4922.125,1366.491,4922.787Zm-75.946-3.12c-.813-.729-1.618-1.491-2.393-2.263l.463-.465c.766.765,1.562,1.519,2.367,2.24Zm80.967-1.146-.45-.475c.387-.367.776-.746,1.158-1.129s.768-.778,1.148-1.179l.476.45c-.384.406-.775.808-1.161,1.193S1371.9,4918.15,1371.512,4918.521Zm-85.627-3.51c-.733-.815-1.451-1.66-2.134-2.511l.51-.41c.676.841,1.386,1.676,2.111,2.484Zm90.159-1.275-.5-.423c.7-.828,1.387-1.682,2.039-2.541l.522.4C1377.447,4912.035,1376.754,4912.9,1376.044,4913.735Zm-94.287-3.859c-.639-.892-1.26-1.809-1.846-2.73l.552-.352c.579.911,1.193,1.819,1.825,2.7Zm98.267-1.387-.543-.367c.607-.9,1.2-1.824,1.747-2.749l.562.336C1381.232,4906.645,1380.638,4907.58,1380.024,4908.489Zm-101.8-4.172c-.535-.953-1.05-1.935-1.532-2.918l.588-.287c.476.972.985,1.94,1.515,2.884Zm105.181-1.483-.58-.3c.5-.959.983-1.943,1.432-2.927l.6.271C1384.394,4900.87,1383.907,4901.866,1383.4,4902.834Zm-108.08-4.434c-.425-1-.828-2.038-1.2-3.068l.616-.222c.366,1.02.764,2.041,1.185,3.036Zm110.808-1.561-.61-.237c.392-1.006.761-2.038,1.1-3.067l.623.2C1386.9,4894.778,1386.524,4895.823,1386.128,4896.84ZM1273.1,4892.2c-.311-1.049-.6-2.12-.85-3.183l.637-.152c.25,1.053.533,2.111.842,3.148Zm115.079-1.621-.632-.167c.278-1.044.531-2.11.751-3.172l.641.134C1388.713,4888.444,1388.456,4889.524,1388.175,4890.578Zm-116.6-4.786c-.193-1.076-.36-2.171-.495-3.258l.649-.08c.134,1.075.3,2.158.49,3.221Zm117.945-1.662-.647-.1c.161-1.068.3-2.155.4-3.234l.652.062C1389.817,4881.95,1389.681,4883.051,1389.518,4884.13Zm-118.756-4.875c-.075-1.089-.12-2.2-.136-3.292l.655-.009c.015,1.083.061,2.179.135,3.256Zm119.383-1.683-.654-.027c.032-.808.049-1.629.049-2.44,0-.272,0-.546-.006-.818l.655-.009c0,.274.006.551.006.827C1390.195,4875.926,1390.178,4876.755,1390.145,4877.572Zm-118.821-4.878-.655-.026c.044-1.095.118-2.2.222-3.287l.652.062C1271.44,4870.517,1271.366,4871.611,1271.323,4872.694Zm118.078-1.665c-.073-1.075-.177-2.167-.31-3.243l.65-.081c.135,1.09.24,2.193.314,3.28Zm-117.461-4.822-.648-.1c.164-1.084.359-2.176.581-3.244l.641.133C1272.295,4864.057,1272.1,4865.136,1271.94,4866.207Zm116.663-1.644c-.19-1.062-.414-2.136-.664-3.19l.637-.151c.253,1.066.479,2.152.672,3.227Zm-115.339-4.735-.633-.169c.282-1.059.6-2.122.935-3.159l.623.2C1273.854,4857.729,1273.543,4858.78,1273.265,4859.828Zm113.835-1.6c-.307-1.037-.648-2.079-1.013-3.1l.617-.22c.368,1.029.713,2.084,1.024,3.132Zm-111.814-4.589-.61-.238c.4-1.023.828-2.044,1.279-3.036l.6.271C1276.1,4851.612,1275.679,4852.623,1275.285,4853.636Zm109.618-1.545c-.418-.993-.873-1.991-1.35-2.966l.588-.287c.482.985.941,1.994,1.365,3Zm-106.921-4.386-.58-.3c.505-.966,1.047-1.933,1.608-2.875l.563.336C1279.016,4845.793,1278.481,4846.75,1277.981,4847.705Zm104.058-1.466c-.529-.944-1.091-1.886-1.672-2.8l.553-.351c.587.924,1.155,1.875,1.69,2.829Zm-100.721-4.128-.543-.366c.611-.905,1.255-1.808,1.917-2.68l.521.4C1282.559,4840.324,1281.922,4841.216,1281.317,4842.111Zm97.226-1.372c-.627-.877-1.29-1.751-1.97-2.6l.51-.41c.688.855,1.358,1.739,1.992,2.625Zm-93.292-3.818-.5-.424c.706-.832,1.445-1.657,2.2-2.453l.476.449C1286.679,4835.281,1285.948,4836.1,1285.251,4836.921Zm89.212-1.263c-.721-.8-1.476-1.6-2.242-2.367l-.043-.043.463-.463.045.045c.772.771,1.535,1.578,2.264,2.391Zm-84.732-3.473-.451-.476c.795-.755,1.619-1.5,2.452-2.2l.424.5C1291.332,4830.706,1290.516,4831.438,1289.73,4832.186Zm80.08-1.177c-.81-.724-1.646-1.434-2.486-2.106l.41-.512c.849.682,1.694,1.4,2.513,2.13Zm-75.115-3.046-.4-.522c.872-.662,1.773-1.31,2.678-1.921l.367.543C1296.449,4826.667,1295.558,4827.306,1294.7,4827.963Zm70.032-1.026c-.882-.631-1.791-1.243-2.7-1.821l.351-.553c.921.584,1.84,1.2,2.731,1.841Zm-64.635-2.625-.336-.562c.944-.563,1.91-1.107,2.874-1.612l.3.58C1301.982,4823.217,1301.026,4823.753,1300.093,4824.312Zm59.135-.865c-.943-.527-1.915-1.035-2.887-1.51l.287-.588c.983.479,1.965.993,2.919,1.526Zm-53.366-2.165-.272-.6c.993-.453,2.014-.885,3.035-1.284l.239.61C1307.853,4820.406,1306.843,4820.834,1305.861,4821.281Zm47.514-.692c-1-.419-2.019-.816-3.037-1.181l.22-.616c1.03.367,2.063.77,3.07,1.193Zm-41.445-1.678-.2-.622c1.042-.343,2.1-.657,3.159-.939l.169.634C1314.011,4818.261,1312.96,4818.573,1311.93,4818.911Zm35.309-.514c-1.041-.307-2.1-.588-3.149-.836l.151-.638c1.06.251,2.131.535,3.184.846Zm-29.016-1.17-.135-.641c1.072-.225,2.163-.422,3.242-.586l.1.648C1320.363,4816.812,1319.284,4817,1318.224,4817.228Zm22.676-.328c-1.067-.19-2.151-.354-3.223-.485l.08-.649c1.083.133,2.179.3,3.258.489Zm-16.235-.652-.062-.652c1.088-.1,2.194-.181,3.286-.226l.027.654C1326.834,4816.068,1325.74,4816.144,1324.664,4816.247Zm9.768-.141c-1.081-.072-2.177-.116-3.257-.13l.008-.655c1.092.014,2.2.058,3.293.132Z" transform="translate(-1270.626 -4815.321)" fill="#f2f2f2"/>
    </g>
    <g id="Group_581" data-name="Group 581" transform="translate(0.327 30.948)">
      <path id="Path_3519" data-name="Path 3519" d="M1149.366,4780.125h-.078c-1.087,0-2.188-.021-3.272-.062l.025-.655c1.076.042,2.169.063,3.247.063h.078Zm3.268-.065-.025-.654c1.076-.042,2.164-.1,3.235-.187l.051.652C1154.815,4779.954,1153.719,4780.019,1152.635,4780.06Zm-9.885-.185c-1.081-.083-2.177-.187-3.257-.312l.075-.651c1.072.124,2.16.229,3.232.31Zm16.4-.319-.076-.65c1.066-.124,2.147-.271,3.212-.437l.1.647C1161.31,4779.283,1160.221,4779.431,1159.146,4779.556Zm-22.9-.431c-1.076-.166-2.16-.355-3.223-.563l.125-.643c1.054.206,2.13.395,3.2.56Zm29.35-.573-.126-.643c1.06-.207,2.125-.437,3.169-.685l.151.638C1167.743,4778.111,1166.668,4778.344,1165.6,4778.552Zm-35.77-.678c-1.059-.25-2.125-.523-3.169-.813l.175-.631c1.036.288,2.094.559,3.144.807Zm42.129-.826-.175-.63c1.036-.289,2.081-.6,3.106-.93l.2.624C1174.057,4776.443,1173,4776.758,1171.96,4777.048Zm-48.431-.924c-1.034-.33-2.075-.686-3.095-1.058l.224-.615c1.012.368,2.045.722,3.071,1.05Zm54.654-1.071-.225-.615c1.009-.368,2.027-.762,3.025-1.17l.248.606C1180.225,4774.285,1179.2,4774.683,1178.183,4775.053Zm-60.8-1.164c-1-.41-2.013-.846-3-1.3l.271-.6c.982.448,1.984.881,2.979,1.287Zm66.848-1.313-.272-.6c.975-.443,1.959-.916,2.924-1.4l.295.584C1186.206,4771.652,1185.214,4772.128,1184.231,4772.575Zm-72.8-1.4c-.966-.487-1.939-1-2.892-1.527l.318-.573c.945.523,1.91,1.033,2.868,1.516Zm78.636-1.544-.317-.574c.939-.52,1.884-1.067,2.806-1.626l.339.56C1191.967,4768.558,1191.015,4769.109,1190.068,4769.635Zm-84.356-1.623c-.929-.562-1.859-1.148-2.763-1.746l.361-.546c.9.592,1.82,1.175,2.741,1.732Zm89.947-1.767-.361-.547c.9-.594,1.8-1.213,2.672-1.84l.382.532C1197.472,4765.022,1196.566,4765.646,1195.659,4766.245Zm-95.4-1.834c-.882-.631-1.764-1.289-2.619-1.955l.4-.517c.849.659,1.723,1.313,2.6,1.939Zm100.715-1.978-.4-.517c.85-.662,1.7-1.349,2.521-2.043l.422.5C1202.683,4761.074,1201.827,4761.767,1200.97,4762.434ZM1095.1,4760.4c-.831-.7-1.659-1.424-2.46-2.152l.441-.484c.8.723,1.617,1.441,2.441,2.135Zm110.877-2.18-.441-.483c.8-.725,1.59-1.475,2.358-2.23l.459.469C1207.574,4756.736,1206.775,4757.492,1205.973,4758.222Zm-115.714-2.216c-.193-.19-.385-.38-.576-.572-.575-.575-1.152-1.168-1.714-1.763l.476-.45c.557.591,1.13,1.18,1.7,1.752.19.188.38.378.572.565Zm120.38-2.366-.477-.45c.737-.78,1.47-1.588,2.18-2.4l.493.431C1212.12,4752.038,1211.381,4752.853,1210.638,4753.64Zm-124.869-2.39c-.712-.814-1.42-1.657-2.1-2.5l.509-.412c.678.84,1.381,1.676,2.088,2.484Zm129.168-2.533-.51-.411c.678-.84,1.347-1.7,1.989-2.562l.525.391C1216.295,4747,1215.621,4747.87,1214.937,4748.717Zm-133.278-2.552c-.65-.869-1.29-1.765-1.9-2.658l.54-.37c.609.886,1.245,1.773,1.889,2.637Zm137.185-2.687-.54-.371c.61-.888,1.21-1.8,1.784-2.708l.554.35C1220.064,4741.664,1219.459,4742.582,1218.844,4743.478Zm-140.89-2.7c-.579-.917-1.149-1.858-1.693-2.8l.567-.327c.54.932,1.1,1.864,1.68,2.775Zm144.381-2.829-.568-.328c.54-.932,1.067-1.887,1.569-2.839l.58.306C1223.41,4736.047,1222.878,4737.009,1222.335,4737.949Zm-147.656-2.829c-.5-.957-1-1.939-1.469-2.92l.59-.284c.466.974.957,1.948,1.458,2.9Zm150.705-2.954-.591-.281c.463-.969.915-1.963,1.343-2.955l.6.26C1226.306,4730.189,1225.85,4731.19,1225.384,4732.166Zm-153.529-2.941c-.429-.993-.845-2.012-1.236-3.026l.611-.235c.389,1.006.8,2.017,1.227,3Zm156.117-3.062-.611-.235c.387-1,.76-2.031,1.108-3.051l.62.212C1228.738,4724.115,1228.363,4725.149,1227.973,4726.162Zm-158.47-3.034c-.35-1.024-.685-2.07-1-3.113l.627-.187c.309,1.034.641,2.074.988,3.089Zm160.581-3.155-.627-.187c.307-1.031.6-2.084.865-3.127l.635.162C1230.687,4717.872,1230.394,4718.934,1230.084,4719.973Zm-162.451-3.107c-.27-1.052-.522-2.122-.749-3.18l.64-.138c.225,1.051.476,2.111.743,3.155Zm164.072-3.229-.64-.138c.226-1.053.434-2.126.619-3.187l.645.112C1232.142,4711.493,1231.932,4712.574,1231.7,4713.636Zm-165.447-3.157c-.187-1.072-.356-2.158-.5-3.229l.649-.087c.143,1.062.31,2.14.5,3.2Zm166.569-3.289-.649-.086c.144-1.07.268-2.155.371-3.227l.651.063C1233.1,4705.02,1232.972,4706.113,1232.827,4707.189ZM1065.384,4704c-.1-1.074-.187-2.17-.25-3.256l.654-.038c.062,1.077.145,2.164.248,3.232Zm168.063-3.327-.654-.037c.061-1.072.1-2.164.121-3.246l.655.013C1233.55,4698.5,1233.509,4699.6,1233.447,4700.678Zm-168.438-3.191q-.015-.828-.016-1.657,0-.809.015-1.617l.655.013q-.014.8-.015,1.6,0,.825.016,1.645Zm167.9-3.34c-.021-1.074-.063-2.163-.125-3.238l.654-.037c.062,1.083.1,2.18.126,3.262Zm-167.127-3.167-.654-.038c.061-1.081.145-2.179.249-3.262l.651.063C1065.93,4688.816,1065.847,4689.906,1065.786,4690.979Zm166.752-3.3c-.1-1.073-.229-2.154-.374-3.221l.649-.087c.145,1.072.272,2.164.376,3.244Zm-166.134-3.161-.649-.087c.145-1.074.313-2.162.5-3.233l.645.112C1066.715,4682.372,1066.548,4683.451,1066.4,4684.517Zm165.263-3.263c-.186-1.059-.4-2.129-.622-3.181l.64-.139c.229,1.06.439,2.139.627,3.207Zm-164.146-3.132-.64-.137c.229-1.065.481-2.136.75-3.185l.634.162C1068,4676,1067.748,4677.066,1067.521,4678.122Zm162.779-3.2c-.267-1.04-.559-2.091-.868-3.124l.627-.187c.312,1.041.606,2.1.875,3.148Zm-161.168-3.081-.627-.187c.31-1.039.645-2.087,1-3.115l.619.212C1069.773,4669.766,1069.44,4670.8,1069.132,4671.837Zm159.311-3.13c-.347-1.015-.72-2.04-1.11-3.048l.61-.236c.393,1.016.769,2.049,1.119,3.071Zm-157.213-3.011-.611-.235c.39-1.013.807-2.032,1.237-3.027l.6.259C1072.031,4663.681,1071.617,4664.691,1071.229,4665.7Zm154.875-3.038c-.426-.985-.878-1.979-1.344-2.952l.59-.282c.47.98.927,1.98,1.355,2.976Zm-152.3-2.918-.591-.283c.469-.979.963-1.962,1.469-2.92l.58.3C1074.756,4657.794,1074.265,4658.769,1073.8,4659.74Zm149.5-2.931c-.5-.949-1.031-1.9-1.572-2.838l.566-.327c.545.939,1.078,1.9,1.584,2.86ZM1076.829,4654l-.567-.328c.543-.939,1.113-1.88,1.692-2.8l.554.351C1077.934,4652.138,1077.369,4653.071,1076.829,4654Zm143.22-2.806c-.576-.911-1.177-1.821-1.787-2.708l.539-.371c.615.894,1.221,1.811,1.8,2.729Zm-139.754-2.679-.54-.369c.613-.892,1.254-1.787,1.9-2.657l.525.391C1081.539,4646.749,1080.9,4647.636,1080.295,4648.52Zm136.076-2.666c-.645-.861-1.315-1.723-1.992-2.56l.509-.412c.682.843,1.358,1.711,2.008,2.582Zm-132.2-2.53-.509-.412c.682-.844,1.39-1.687,2.1-2.5l.493.431C1085.554,4641.65,1084.852,4642.485,1084.174,4643.324Zm128.115-2.513c-.708-.811-1.443-1.617-2.183-2.4l.476-.449c.746.79,1.486,1.6,2.2,2.419Zm-123.847-2.371-.477-.449c.561-.594,1.138-1.188,1.717-1.768q.286-.285.573-.566l.459.466q-.286.281-.569.564C1089.571,4637.261,1089,4637.851,1088.442,4638.44Zm119.39-2.346c-.768-.753-1.562-1.5-2.359-2.226l.44-.485c.8.729,1.6,1.484,2.378,2.243Zm-114.759-2.2-.441-.485c.8-.731,1.633-1.456,2.462-2.153l.421.5C1094.693,4632.451,1093.871,4633.169,1093.073,4633.9Zm109.957-2.162c-.82-.69-1.669-1.376-2.523-2.039l.4-.519c.86.669,1.716,1.36,2.543,2.055Zm-104.991-2.015-.4-.518c.858-.666,1.74-1.325,2.62-1.957l.382.532C1099.765,4628.4,1098.89,4629.058,1098.039,4629.719Zm99.869-1.964c-.874-.625-1.774-1.244-2.673-1.836l.361-.548c.907.6,1.813,1.222,2.694,1.852Zm-94.6-1.816-.361-.547c.908-.6,1.838-1.187,2.764-1.747l.339.56C1105.135,4624.76,1104.212,4625.344,1103.312,4625.939Zm89.182-1.753c-.92-.557-1.864-1.1-2.808-1.624l.316-.574c.951.526,1.9,1.076,2.831,1.637Zm-83.633-1.607-.317-.574c.952-.526,1.925-1.04,2.891-1.526l.295.585C1110.77,4621.547,1109.8,4622.057,1108.86,4622.579Zm77.956-1.532c-.96-.483-1.945-.955-2.927-1.4l.271-.6c.989.45,1.981.925,2.949,1.411Zm-72.164-1.385-.271-.6c.986-.449,2-.885,3-1.3l.249.605C1116.633,4618.783,1115.632,4619.217,1114.653,4619.663Zm66.259-1.3c-.994-.406-2.013-.8-3.028-1.168l.224-.615c1.022.372,2.05.767,3.051,1.177Zm-60.256-1.154-.224-.615c1.018-.37,2.058-.726,3.092-1.057l.2.624C1122.7,4616.487,1121.665,4616.84,1120.656,4617.208Zm54.158-1.062c-1.029-.328-2.076-.639-3.11-.926l.175-.63c1.042.289,2.1.6,3.135.934Zm-47.983-.914-.175-.631c1.045-.291,2.11-.564,3.165-.813l.151.638C1128.924,4614.672,1127.867,4614.943,1126.831,4615.231Zm41.729-.817c-1.052-.247-2.119-.477-3.174-.682l.125-.643c1.063.207,2.138.438,3.2.687Zm-35.42-.672-.125-.642c1.061-.207,2.144-.4,3.218-.564l.1.648C1135.267,4613.35,1134.192,4613.537,1133.14,4613.742Zm29.048-.568c-1.07-.165-2.152-.31-3.218-.433l.075-.651c1.074.125,2.164.271,3.242.437Zm-22.643-.426-.076-.65c1.075-.124,2.169-.229,3.251-.312l.05.653C1141.7,4612.52,1140.612,4612.625,1139.545,4612.748Zm16.194-.316c-1.077-.082-2.167-.144-3.242-.183l.025-.655c1.083.041,2.182.1,3.267.186Zm-9.733-.181-.025-.654c1.08-.042,2.179-.063,3.268-.064v.655C1148.169,4612.189,1147.078,4612.211,1146.006,4612.251Z" transform="translate(-1064.993 -4611.534)" fill="#f2f2f2"/>
    </g>
    <g id="Group_582" data-name="Group 582" transform="translate(0 0)">
      <path id="Path_3520" data-name="Path 3520" d="M1178.993,4747.018a114.634,114.634,0,1,1,44.764-9.036A114.294,114.294,0,0,1,1178.993,4747.018Zm0-228.689a113.691,113.691,0,1,0,80.391,33.3A112.945,112.945,0,0,0,1178.993,4518.328Z" transform="translate(-1063.993 -4517.019)" fill="#f2f2f2"/>
    </g>
  </g>
</svg>
