<svg xmlns="http://www.w3.org/2000/svg" width="43.177" height="39.151" viewBox="0 0 43.177 39.151">
  <g id="Group_477" data-name="Group 477" opacity="0.7">
    <path id="Path_2105" data-name="Path 2105" d="M112.88,76.5l.858,2.5h1.414V76.5Z" transform="translate(-71.975 -46.788)"/>
    <path id="Path_2106" data-name="Path 2106" d="M43.8,76.28l-2.8,7.6v-7.6h-2.8v4.385l-3.22-4.385H32.083v3.426H28.766V76.28h-2.8V79a4.933,4.933,0,0,0-4.688-2.859,4.76,4.76,0,0,0-5.049,4.785l-1.713-4.661H10.974L7.56,85.535h3.177l.334-1.08H14.4l.334,1.08h3.177l-.532-1.445a5.154,5.154,0,0,0,3.884,1.627,4.914,4.914,0,0,0,4.688-2.862v2.68h2.8V82.148h3.328v3.387h2.8V80.847L38.3,85.535H43.56l.334-1.08h3.332l.33,1.08h3.181L47.319,76.28ZM11.821,82.012l.913-2.983.917,2.983Zm9.453,1.235a2.33,2.33,0,1,1,2.219-2.436c0,.035,0,.071,0,.106a2.19,2.19,0,0,1-2.046,2.326c-.058,0-.117.005-.176,0m23.354-1.235.917-2.983.917,2.983Z" transform="translate(-7.56 -46.568)"/>
    <path id="Path_2107" data-name="Path 2107" d="M40.682,85.28h-.928a1.228,1.228,0,0,0-1.223,1.227v.023a1.228,1.228,0,0,0,1.223,1.227h.928a1.228,1.228,0,0,0,1.223-1.227v-.023a1.228,1.228,0,0,0-1.223-1.227" transform="translate(-26.502 -52.158)"/>
    <path id="Path_2108" data-name="Path 2108" d="M54.469,30.307v9.426H34.751v-2.14L32.84,38.3v3.344H56.38V29.6Z" transform="translate(-23.022 -18.104)"/>
    <path id="Path_2109" data-name="Path 2109" d="M34.751,11.337V1.911H54.469v2.14l1.911-.707V0H32.84V12.044Z" transform="translate(-23.022)"/>
    <path id="Path_2110" data-name="Path 2110" d="M28.48,26.86V24.82L55.4,14.87v2.035Z" transform="translate(-20.355 -9.095)"/>
  </g>
</svg>
