<svg xmlns="http://www.w3.org/2000/svg" width="93.84" height="21.761" viewBox="0 0 93.84 21.761">
  <g id="layer1" opacity="0.65">
    <path id="path3590" d="M62.783,0,59.336,10.626c-.032.1-.064.2-.1.316-.016.1-.029.2-.045.318s-.035.224-.051.338v.294a3.3,3.3,0,0,0,.045.625h-.963a.461.461,0,0,1-.242-.044.312.312,0,0,1-.051-.169v-.125c.016-.047.035-.1.051-.144l1.576-4.971h-2.5l-1.38,4.221a.064.064,0,0,1-.026.045v.025a1.752,1.752,0,0,1-.484.705,1.845,1.845,0,0,1-.776.411c-.047.015-.1.029-.149.044H54.1a.476.476,0,0,1-.242-.044A.312.312,0,0,1,53.8,12.3v-.125c.016-.047.035-.1.051-.144l1.6-4.971H52.932l-1.358,4.221a1.3,1.3,0,0,1-.07.239,1.321,1.321,0,0,0-.025.242c-.015.08-.035.16-.051.242v.239a2.58,2.58,0,0,0,.009.268h-.992a4.9,4.9,0,0,0,.533-1.113,3.559,3.559,0,0,0,.223-1.211,3.025,3.025,0,0,0-.586-1.821A2.9,2.9,0,0,0,49.09,7.258a2.187,2.187,0,0,0-.536-.125,3.044,3.044,0,0,0-.532-.051,4.125,4.125,0,0,0-2.016.536,7.653,7.653,0,0,0-1.718,1.263c-.016-.258-.042-.494-.073-.7a4.377,4.377,0,0,0-.125-.606c-.016-.1-.035-.185-.051-.268s-.029-.16-.045-.239V7.038a.5.5,0,0,0-.047-.172l-2.357.51a.1.1,0,0,1,.025.07.378.378,0,0,1,.051.15.554.554,0,0,1,.022.169c.016.067.035.131.051.194a5.846,5.846,0,0,1,.118.679,6.294,6.294,0,0,1,.051.823,8.857,8.857,0,0,1-.124,1.387,11.7,11.7,0,0,1-.4,1.668H38.63a9.516,9.516,0,0,0,1.7-1.479,4.155,4.155,0,0,0,.8-1.33,1.825,1.825,0,0,0,.118-.437,1.969,1.969,0,0,0,.051-.415A1.806,1.806,0,0,0,40.528,7.3a2.978,2.978,0,0,0-1.773-.558,2.014,2.014,0,0,0-.318.025,1.8,1.8,0,0,0-.287.025,3.681,3.681,0,0,0-.657.169,3.2,3.2,0,0,0-.654.294,5.588,5.588,0,0,0-1.556,1.161,6.353,6.353,0,0,0-1.231,1.916c-.114.274-.233.584-.344.925a4.913,4.913,0,0,0-.192.97.839.839,0,0,1-.025.194v.092H31.449a.416.416,0,0,1-.22-.044.589.589,0,0,1-.07-.169,1.118,1.118,0,0,1,.22-.562,9.272,9.272,0,0,1,.532-.775,2.521,2.521,0,0,0,.192-.217,2.778,2.778,0,0,1,.194-.22c.211-.242.411-.46.606-.654a3.446,3.446,0,0,1,.437-.389h.925V7.064h-4.78l.121-.319L27.3,6l-.944,2.956h-.051a3.436,3.436,0,0,0-1.26-1.479,3.319,3.319,0,0,0-1.894-.558,4,4,0,0,0-3.033,1.362,4.333,4.333,0,0,0-1.263,3.055,3.882,3.882,0,0,0,.179,1.186h-2.7a9.542,9.542,0,0,0,1.694-1.479,4.078,4.078,0,0,0,.8-1.33,1.686,1.686,0,0,0,.124-.437,1.894,1.894,0,0,0,.045-.415A1.8,1.8,0,0,0,18.218,7.3a2.968,2.968,0,0,0-1.77-.558,2.006,2.006,0,0,0-.316.025,1.837,1.837,0,0,0-.29.025,3.628,3.628,0,0,0-.654.169,3.219,3.219,0,0,0-.657.294,5.565,5.565,0,0,0-1.553,1.161,6.427,6.427,0,0,0-1.238,1.916c-.111.274-.226.584-.338.925a4.979,4.979,0,0,0-.194.97.824.824,0,0,1-.022.194v.144a2.868,2.868,0,0,0,.073.631,2.265,2.265,0,0,0,.214.58,2.077,2.077,0,0,0,.874.873,2.928,2.928,0,0,0,1.238.269h5.291l.536-1.6a3.788,3.788,0,0,0,.246.36,3.326,3.326,0,0,0,2.162,1.189.257.257,0,0,1,.118.022h.146a.409.409,0,0,0,.122.026h.143a3.893,3.893,0,0,0,2.673-1.043,4.543,4.543,0,0,0,1.505-2.449h1.161l.472.006.092-.517a2.183,2.183,0,0,1,.555-1.094,1.111,1.111,0,0,1,.462-.287.4.4,0,0,1,.124-.025.435.435,0,0,1,.144-.026h.383a7.819,7.819,0,0,0-.794,1.381,3.533,3.533,0,0,0-.345,1.5v.294a1.963,1.963,0,0,0,.077.287,1.576,1.576,0,0,0,.073.319,1.973,1.973,0,0,0,.118.293,2.407,2.407,0,0,0,.994,1.017,3.007,3.007,0,0,0,1.407.339h1.942l.376-1.167a.067.067,0,0,0,.015.025,2.061,2.061,0,0,0,.874.874,2.882,2.882,0,0,0,1.23.269H40.6L38.63,21.009l2.28.752,2.041-6.333a11.131,11.131,0,0,1,1.068-2.306,14.468,14.468,0,0,1,1.356-1.916c.047-.048.1-.093.149-.144s.087-.121.118-.169A6.1,6.1,0,0,1,46.88,9.876a2.1,2.1,0,0,1,1.094-.389,1,1,0,0,1,.58.169.569.569,0,0,1,.242.536,1.9,1.9,0,0,1-.606,1.332,3.476,3.476,0,0,1-1.311.874l-.338.1a2.513,2.513,0,0,1-.341.019H44.626v2.405h7.207l.261-.823a2.554,2.554,0,0,0,1.078.679.832.832,0,0,1,.22.07,1.079,1.079,0,0,0,.242.025c.082.019.156.032.22.048H54.1a3.49,3.49,0,0,0,1.142-.2,4.251,4.251,0,0,0,1.068-.536,3.039,3.039,0,0,0,.873.536,2.925,2.925,0,0,0,1.043.2h.724l.516-1.55c.045.087.087.179.14.265a2.652,2.652,0,0,0,1.48,1.142c.178.047.344.086.507.118a2.532,2.532,0,0,0,.487.051,4.092,4.092,0,0,0,2.765-1.119,5.623,5.623,0,0,0,1.7-2.449c.048-.163.09-.322.125-.485s.054-.322.07-.482H67.4l-.59,1.818-.047.194c-.016.048-.029.1-.045.144a.817.817,0,0,1-.025.194v.172a2.009,2.009,0,0,0,.554,1.407,1.923,1.923,0,0,0,1.458.58h2.158l.354-1.1a2.139,2.139,0,0,0,.354.52,1.914,1.914,0,0,0,1.455.58h2.18l.336-1.024a2.129,2.129,0,0,0,.785.73,2.774,2.774,0,0,0,1.26.294H93.04l.8-2.405H77.587a.067.067,0,0,1-.048-.019v-.051a.749.749,0,0,1,.048-.216c.032-.115.064-.227.1-.338a.081.081,0,0,0,.025-.051.233.233,0,0,1,.045-.073c.047-.131.092-.233.124-.313a.742.742,0,0,0,.07-.169c.032-.067.067-.131.1-.2.048-.064.1-.14.144-.22a4.636,4.636,0,0,1,1.024-1.114,2.328,2.328,0,0,1,1.33-.561l-.118,1.167h2.424l.124-1.069V9.219a.206.206,0,0,0,.02-.1V8.977a2,2,0,0,0-.58-1.479,2.417,2.417,0,0,0-1.505-.676h-.1A.1.1,0,0,1,80.74,6.8h-.169a4.5,4.5,0,0,0-2.816,1.043,7.2,7.2,0,0,0-1.962,2.305c0,.016-.009.029-.025.048v.025a8.852,8.852,0,0,0-.437,1.087,4.181,4.181,0,0,0-.169,1.193v.019H73.584l1.748-5.452H72.784L71.135,12.23l-.047.194-.029.092H69.241L73.313,0H70.79l-2.6,7.982H66.374l.045-.2-2.28-.723-.189.65a2.521,2.521,0,0,0-.079.319,1.7,1.7,0,0,0-.02.287,1.911,1.911,0,0,0,.07.536c.051.144.105.29.172.437a.209.209,0,0,1,.025.1.28.28,0,0,1,.045.073,2.493,2.493,0,0,1,.125.363,1.364,1.364,0,0,1,.044.367,1.231,1.231,0,0,1-.025.22.575.575,0,0,1-.045.214,1.711,1.711,0,0,1-.073.223,1.218,1.218,0,0,1-.121.189,3.381,3.381,0,0,1-.848,1.024,1.816,1.816,0,0,1-1.167.456.468.468,0,0,1-.411-.169.693.693,0,0,1-.121-.411v-.143a.5.5,0,0,0,.025-.15.387.387,0,0,0,.025-.118c.016-.047.029-.1.045-.146L65.306,0H62.783ZM11.378.025a3.043,3.043,0,0,0-.536.051c-.16.015-.329.038-.507.073A7.2,7.2,0,0,0,8.756.683a13.376,13.376,0,0,0-1.432.775.408.408,0,0,0-.1.073c-.032.016-.064.029-.1.045-.341.211-.692.456-1.065.73-.353.274-.721.577-1.094.9A20.037,20.037,0,0,0,1.7,6.8,8.514,8.514,0,0,0,.025,11.037,1.666,1.666,0,0,0,0,11.305v.536a1.2,1.2,0,0,0,.025.239,1.358,1.358,0,0,0,.022.268c.016.08.035.169.051.268A3.516,3.516,0,0,0,.944,14.36a3.173,3.173,0,0,0,1.648.972,3.929,3.929,0,0,0,.778.15,6.329,6.329,0,0,0,.776.045,5.146,5.146,0,0,0,1.406-.144,10.057,10.057,0,0,0,1.336-.437q-.68,1.382-1.48,2.717a23.6,23.6,0,0,1-1.772,2.6l1.9,1.451a28.061,28.061,0,0,0,3.323-5.358q1.383-2.859,2.5-5.8L9.1,9.708c-.067.179-.14.36-.223.555-.064.178-.125.357-.189.536a.369.369,0,0,0-.1.07.27.27,0,0,0-.051.073,17.03,17.03,0,0,1-2.061,1.531,4.261,4.261,0,0,1-2.354.7c-.144,0-.3-.01-.462-.025-.144-.032-.3-.064-.46-.1a.9.9,0,0,1-.634-.51,2.284,2.284,0,0,1-.169-.874v-.194c.016-.162.035-.319.051-.482.032-.162.067-.3.1-.411A8.409,8.409,0,0,1,4.295,7.3,19.32,19.32,0,0,1,7.057,4.56q.339-.268.679-.507a7.415,7.415,0,0,1,.682-.437c.1-.064.223-.144.386-.242s.328-.194.507-.293a3.4,3.4,0,0,1,.417-.214,2.477,2.477,0,0,1,.438-.2,3.54,3.54,0,0,1,.606-.22,2.268,2.268,0,0,1,.532-.07,1.1,1.1,0,0,1,.341.051.4.4,0,0,1,.239.118l.025.026V2.6a.557.557,0,0,1-.07.216c-.032.1-.076.2-.124.316a.074.074,0,0,1-.025.048.152.152,0,0,1-.02.07c-.051.1-.1.188-.149.268-.032.082-.058.137-.073.169a10.23,10.23,0,0,1-1.212,1.578,18.375,18.375,0,0,1-1.77,1.726c-.083.064-.163.124-.242.191A2.67,2.67,0,0,1,8,7.376L9.534,9.219c.192-.162.38-.322.558-.482.194-.162.376-.328.554-.487a18.1,18.1,0,0,0,1.674-1.7,11.98,11.98,0,0,0,1.193-1.627,8.156,8.156,0,0,0,.437-.8,4.539,4.539,0,0,0,.287-.874c.015-.128.035-.249.051-.364a2.347,2.347,0,0,0,.023-.338,2.47,2.47,0,0,0-.217-1.017,2.222,2.222,0,0,0-.756-.874,2.75,2.75,0,0,0-.944-.488A3.582,3.582,0,0,0,11.378.025ZM74.939,1.745a1.584,1.584,0,0,0-1.161.491A1.6,1.6,0,0,0,73.291,3.4a1.67,1.67,0,0,0,.487,1.186,1.576,1.576,0,0,0,1.161.485,1.53,1.53,0,0,0,1.167-.485A1.658,1.658,0,0,0,76.595,3.4a1.584,1.584,0,0,0-.488-1.164A1.537,1.537,0,0,0,74.939,1.745ZM16.5,9.1a4.213,4.213,0,0,1-.829.95,9.922,9.922,0,0,1-1.693,1.186v-.025A.057.057,0,0,0,14,11.162a4.154,4.154,0,0,1,.972-1.38A2.354,2.354,0,0,1,16.5,9.1Zm22.3,0a4.15,4.15,0,0,1-.82.95,10.152,10.152,0,0,1-1.7,1.186v-.025a.067.067,0,0,0,.025-.045,4.134,4.134,0,0,1,.97-1.38A2.342,2.342,0,0,1,38.8,9.1Zm-16.471.517a1.962,1.962,0,0,0,1.6,1.767,2.338,2.338,0,0,1-.679.753,1.449,1.449,0,0,1-.9.315.928.928,0,0,1-.775-.341,1.437,1.437,0,0,1-.268-.775v-.045a.12.12,0,0,1,.025-.079v-.118a2.3,2.3,0,0,1,1-1.476Z" transform="translate(0)"/>
  </g>
</svg>
