<svg xmlns="http://www.w3.org/2000/svg" width="81.153" height="21.79" viewBox="0 0 81.153 21.79">
  <g id="Group_78" data-name="Group 78" opacity="0.8">
    <g id="Group_76" data-name="Group 76" transform="translate(0 0)">
      <path id="Path_2021" data-name="Path 2021" d="M1622.75-482.473l.01-.017-.216-.151-3.313-2.305-2.111-1.469-.915-.637c-.091-.063-.305-.276-.427-.236-.153.051-.035.268.018.365a3.076,3.076,0,0,1,.258.628,3.074,3.074,0,0,1,.073,1.357,2.739,2.739,0,0,1-.6,1.3,2.759,2.759,0,0,1-2.586.955,2.476,2.476,0,0,1-.813-.29,2.485,2.485,0,0,1-1.216-2.576,2.24,2.24,0,0,1,.66-1.241,2.253,2.253,0,0,1,.6-.407c.054-.025.282-.074.309-.118.168-.284-.759-.054-.854-.023a3.08,3.08,0,0,0-.953.515,3.07,3.07,0,0,0-1.108,1.876h0l-1.6,9.372a3.061,3.061,0,0,1-.773,1.566,3.078,3.078,0,0,1-1.466.877,3.06,3.06,0,0,1-.53.09c-.089.007-.179.01-.269.009-.045,0-.186.013-.187-.047a.074.074,0,0,1,.016-.041c.032-.048.138-.047.19-.06a2.212,2.212,0,0,0,.218-.066,2.218,2.218,0,0,0,.407-.194,2.247,2.247,0,0,0,.658-.61,2.244,2.244,0,0,0,.385-.925,2.484,2.484,0,0,0-2.03-2.866,2.758,2.758,0,0,0-2.586.954,2.744,2.744,0,0,0-.6,1.3,3.067,3.067,0,0,0,1.247,3.017l-.013.019,8.908,6.176,0,0a3.058,3.058,0,0,0,1.432.654,3.407,3.407,0,0,0,3.932-2.784l1.7-9.96,1.24.863.258.18,0,0a2.473,2.473,0,0,0,.866.321,2.76,2.76,0,0,0,3.185-2.255A3.067,3.067,0,0,0,1622.75-482.473Z" transform="translate(-1601.351 487.457)" fill="#020303"/>
    </g>
    <g id="Group_77" data-name="Group 77" transform="translate(31.101 5.695)">
      <path id="Path_2022" data-name="Path 2022" d="M1725.26-457.767h-1.681v3.727h-1.054v-8.783h2.848c1.97,0,3.137.866,3.137,2.535a2.379,2.379,0,0,1-2.158,2.434l2.384,3.815h-1.167Zm.038-4.116h-1.719v3.187h1.731c1.38,0,2.1-.539,2.1-1.606C1727.405-461.494,1726.552-461.883,1725.3-461.883Z" transform="translate(-1722.524 463.451)" fill="#020303"/>
      <path id="Path_2023" data-name="Path 2023" d="M1751.563-450.323a3.215,3.215,0,0,1,3.288-3.263,3.225,3.225,0,0,1,3.3,3.263,3.235,3.235,0,0,1-3.3,3.275A3.225,3.225,0,0,1,1751.563-450.323Zm5.534,0a2.279,2.279,0,0,0-2.246-2.359,2.248,2.248,0,0,0-2.246,2.359,2.274,2.274,0,0,0,2.246,2.372A2.259,2.259,0,0,0,1757.1-450.323Z" transform="translate(-1744.11 456.583)" fill="#020303"/>
      <path id="Path_2024" data-name="Path 2024" d="M1783.878-465.267h1.016v9.41h-1.016Z" transform="translate(-1768.13 465.267)" fill="#020303"/>
      <path id="Path_2025" data-name="Path 2025" d="M1795.513-450.323a3.085,3.085,0,0,1,3.024-3.263c1.882,0,2.949,1.481,2.949,3.325a2.462,2.462,0,0,1-.012.351h-4.906a2.043,2.043,0,0,0,2.1,1.97,2.564,2.564,0,0,0,1.969-.916l.653.615a3.313,3.313,0,0,1-2.648,1.192A3.093,3.093,0,0,1,1795.513-450.323Zm4.931-.389a1.977,1.977,0,0,0-1.932-2.02,2.047,2.047,0,0,0-1.945,2.02Z" transform="translate(-1776.779 456.583)" fill="#020303"/>
      <path id="Path_2026" data-name="Path 2026" d="M1827.268-448.1h-.037v3.312h-1.016v-8.67h1.016v.992h.037a2.709,2.709,0,0,1,2.221-1.117,3.117,3.117,0,0,1,3.087,3.263,3.12,3.12,0,0,1-3.087,3.275A2.681,2.681,0,0,1,1827.268-448.1Zm4.254-2.221a2.156,2.156,0,0,0-2.158-2.347,2.208,2.208,0,0,0-2.2,2.359,2.216,2.216,0,0,0,2.2,2.359A2.171,2.171,0,0,0,1831.521-450.323Z" transform="translate(-1799.6 456.583)" fill="#020303"/>
      <path id="Path_2027" data-name="Path 2027" d="M1856.671-465.267h1.016v9.41h-1.016Z" transform="translate(-1822.24 465.267)" fill="#020303"/>
      <path id="Path_2028" data-name="Path 2028" d="M1872.206-450.837v-.214a1.53,1.53,0,0,0-1.682-1.631,2.7,2.7,0,0,0-1.769.628l-.552-.728a3.728,3.728,0,0,1,2.284-.8c1.581,0,2.723.74,2.723,2.459v3.953h-1v-.916h-.038a2.709,2.709,0,0,1-2.2,1.054,1.867,1.867,0,0,1-2.108-1.932c0-1.331,1.242-2.033,2.648-2.033A8.244,8.244,0,0,1,1872.206-450.837Zm0,.8a7.073,7.073,0,0,0-1.619-.176c-.966,0-1.693.465-1.693,1.243s.539,1.129,1.355,1.129a2.009,2.009,0,0,0,1.958-1.656Z" transform="translate(-1830.56 456.583)" fill="#020303"/>
      <path id="Path_2029" data-name="Path 2029" d="M1899.219-453.1l-2.673,6.914c-.5,1.343-1.142,1.819-2.158,1.819a3.04,3.04,0,0,1-1.393-.326l.264-.8a3.1,3.1,0,0,0,1.066.238c.552,0,.941-.313,1.255-1.129l.226-.6L1892.9-453.1h1.092l2.3,4.881h.025l1.844-4.881Z" transform="translate(-1849.167 456.221)" fill="#020303"/>
    </g>
  </g>
</svg>
