<svg id="Group_755" data-name="Group 755" xmlns="http://www.w3.org/2000/svg" xmlns:xlink="http://www.w3.org/1999/xlink" width="125.424" height="30.517" viewBox="0 0 125.424 30.517">
  <defs>
    <clipPath id="clip-path">
      <path id="Path_8708" data-name="Path 8708" d="M37.84,13.778C34.956,17.194,33.615,22,30.768,25.372c-2.118,2.509-5.142,5.188-10.119,3.5,2.786,3.539,8.289,4.483,12.721,2.71a16.03,16.03,0,0,0,5.772-4.329c2.16-2.435,2.709-2.938,3.5-2.916l.113.018c1.277.426.627,2.21.121,2.981-4.22,6.488-12.15,7.294-17.3,5.681A16.23,16.23,0,0,0,32.5,34.783h.167a15.441,15.441,0,0,0,12.7-6.818,14.345,14.345,0,0,0,2.176-5.054c.252-1.382.3-3.349-.806-4.015-1.709-1.087-4.2.321-5.563,1.743-2.056,2.145-3.539,4.125-5.689,6.369-2.226,2.323-5.641,4.519-8.942,3.593,4.333-.126,7.634-3.888,10.161-7.022,2.56-3.179,7.187-10.88,11.135-5.887-.367-3.8-2.8-6.287-5.544-6.287a5.9,5.9,0,0,0-4.453,2.374M32.766,4.266h-.057a15.438,15.438,0,0,0-12.695,6.818,14.4,14.4,0,0,0-2.177,5.051c-.25,1.384-.3,3.349.808,4.017,1.706,1.09,4.2-.322,5.562-1.742,2.056-2.144,3.539-4.127,5.689-6.367,2.228-2.327,5.641-4.523,8.942-3.6-4.335.127-7.635,3.889-10.161,7.023-2.561,3.18-7.188,10.881-11.135,5.886.563,5.858,6.04,8.6,10,3.913,2.884-3.417,4.224-8.222,7.072-11.6,2.118-2.508,5.142-5.185,10.12-3.495C41.945,6.638,36.442,5.7,32.011,7.47A16.028,16.028,0,0,0,26.238,11.8c-2.161,2.435-2.71,2.941-3.5,2.916l-.112-.019c-1.277-.426-.628-2.21-.122-2.979,4.22-6.488,12.151-7.3,17.3-5.682a16.2,16.2,0,0,0-6.911-1.768Z" transform="translate(-17.543 -4.266)"/>
    </clipPath>
  </defs>
  <g id="Group_751" data-name="Group 751" transform="translate(40.53 10.29)">
    <path id="Path_8698" data-name="Path 8698" d="M524.913,57.734V53.472h4v-.7h-4V49.046h4.236v-.7h-5.041V58.436h5.277v-.7Z" transform="translate(-444.49 -48.18)"/>
    <path id="Path_8699" data-name="Path 8699" d="M482.026,52.307c-1.508-.591-2.042-1.162-2.042-2.187a1.841,1.841,0,0,1,2.109-1.767,3.12,3.12,0,0,1,1.73.464l.056.039.312-.695-.039-.027a3.869,3.869,0,0,0-2.014-.484,2.7,2.7,0,0,0-2.956,2.589c0,1.292.829,2.183,2.613,2.805,1.42.559,1.976,1.2,1.976,2.287,0,1.228-.92,2.02-2.344,2.02a3.906,3.906,0,0,1-2.16-.656l-.054-.037-.314.69.037.026a4.53,4.53,0,0,0,2.418.693c2.225,0,3.223-1.411,3.223-2.81,0-1.593-1.02-2.332-2.55-2.952" transform="translate(-410.003 -47.651)"/>
    <path id="Path_8700" data-name="Path 8700" d="M454.6,48.344V58.436h.808V48.344H454.6Z" transform="translate(-391.471 -48.18)"/>
    <path id="Path_8701" data-name="Path 8701" d="M404,53.727h2.328v3.436a4.682,4.682,0,0,1-2.035.323c-2.615,0-4.24-1.7-4.24-4.433a4.091,4.091,0,0,1,4.387-4.433,4.709,4.709,0,0,1,2.109.424l.055.026.261-.7-.048-.018a5.8,5.8,0,0,0-2.349-.451,4.943,4.943,0,0,0-5.252,5.177,5.3,5.3,0,0,0,1.379,3.788,4.881,4.881,0,0,0,3.58,1.333,7.832,7.832,0,0,0,2.921-.552l.036-.014V53.042H404Z" transform="translate(-349.222 -47.843)"/>
    <path id="Path_8702" data-name="Path 8702" d="M362.732,58.117A13.066,13.066,0,0,1,362,55.436a2.6,2.6,0,0,0-1.5-2.121,2.683,2.683,0,0,0,1.921-2.62,2.555,2.555,0,0,0-.716-1.818,3.706,3.706,0,0,0-2.734-.842,11.119,11.119,0,0,0-2.157.207l-.043.01V58.2h.806V53.623h1.5c1.251.056,1.885.663,2.182,2.1a14.864,14.864,0,0,0,.64,2.444l.016.032h.863Zm-5.162-5.183V48.843a6.657,6.657,0,0,1,1.382-.122c1.2,0,2.637.361,2.637,2.093a1.951,1.951,0,0,1-.674,1.538,2.746,2.746,0,0,1-1.817.583Z" transform="translate(-316.837 -47.943)"/>
    <path id="Path_8703" data-name="Path 8703" d="M314.795,53.472h4v-.7h-4V49.046h4.237v-.7H313.99V58.436h5.278v-.7h-4.474Z" transform="translate(-284.208 -48.18)"/>
    <path id="Path_8704" data-name="Path 8704" d="M266.815,48.344v5.015c0,1.6.021,2.664.107,3.889-.461-.888-1.009-1.778-1.782-2.986l-3.912-5.918h-.751V58.435h.791V53.328c0-1.546-.015-2.634-.08-3.813.483.931,1.1,1.9,1.752,2.92l.109.169,3.822,5.832h.751V48.344h-.806Z" transform="translate(-243.387 -48.18)"/>
    <path id="Path_8705" data-name="Path 8705" d="M233.627,48.344V58.436h.806V48.344h-.806Z" transform="translate(-222.906 -48.18)"/>
    <path id="Path_8706" data-name="Path 8706" d="M191.551,52.307c-1.506-.591-2.042-1.162-2.042-2.187a1.841,1.841,0,0,1,2.109-1.767,3.131,3.131,0,0,1,1.731.464l.053.039.314-.695-.039-.027a3.886,3.886,0,0,0-2.015-.484,2.7,2.7,0,0,0-2.957,2.589c0,1.292.83,2.183,2.613,2.805,1.422.559,1.977,1.2,1.977,2.287,0,1.228-.919,2.02-2.344,2.02a3.914,3.914,0,0,1-2.162-.656l-.053-.037-.313.69.037.026a4.533,4.533,0,0,0,2.417.693c2.226,0,3.223-1.411,3.223-2.81,0-1.593-1.021-2.334-2.55-2.952" transform="translate(-188.424 -47.651)"/>
  </g>
  <g id="Group_753" data-name="Group 753" transform="translate(0 0)" opacity="0.65">
    <path id="Path_8707" data-name="Path 8707" d="M37.84,13.778C34.956,17.194,33.615,22,30.768,25.372c-2.118,2.509-5.142,5.188-10.119,3.5,2.786,3.539,8.289,4.483,12.721,2.71a16.03,16.03,0,0,0,5.772-4.329c2.16-2.435,2.709-2.938,3.5-2.916l.113.018c1.277.426.627,2.21.121,2.981-4.22,6.488-12.15,7.294-17.3,5.681A16.23,16.23,0,0,0,32.5,34.783h.167a15.441,15.441,0,0,0,12.7-6.818,14.345,14.345,0,0,0,2.176-5.054c.252-1.382.3-3.349-.806-4.015-1.709-1.087-4.2.321-5.563,1.743-2.056,2.145-3.539,4.125-5.689,6.369-2.226,2.323-5.641,4.519-8.942,3.593,4.333-.126,7.634-3.888,10.161-7.022,2.56-3.179,7.187-10.88,11.135-5.887-.367-3.8-2.8-6.287-5.544-6.287a5.9,5.9,0,0,0-4.453,2.374M32.766,4.266h-.057a15.438,15.438,0,0,0-12.695,6.818,14.4,14.4,0,0,0-2.177,5.051c-.25,1.384-.3,3.349.808,4.017,1.706,1.09,4.2-.322,5.562-1.742,2.056-2.144,3.539-4.127,5.689-6.367,2.228-2.327,5.641-4.523,8.942-3.6-4.335.127-7.635,3.889-10.161,7.023-2.561,3.18-7.188,10.881-11.135,5.886.563,5.858,6.04,8.6,10,3.913,2.884-3.417,4.224-8.222,7.072-11.6,2.118-2.508,5.142-5.185,10.12-3.495C41.945,6.638,36.442,5.7,32.011,7.47A16.028,16.028,0,0,0,26.238,11.8c-2.161,2.435-2.71,2.941-3.5,2.916l-.112-.019c-1.277-.426-.628-2.21-.122-2.979,4.22-6.488,12.151-7.3,17.3-5.682a16.2,16.2,0,0,0-6.911-1.768Z" transform="translate(-17.543 -4.266)"/>
    <g id="Group_752" data-name="Group 752" clip-path="url(#clip-path)">
      <rect id="Rectangle_4127" data-name="Rectangle 4127" width="30.307" height="30.517" transform="translate(-0.007 0)"/>
    </g>
  </g>
</svg>
