<svg xmlns="http://www.w3.org/2000/svg" width="22.854" height="24" viewBox="0 0 22.854 24">
  <g id="Group_1967" data-name="Group 1967" transform="translate(-1619.885 -604.282)">
    <path id="Path_8957" data-name="Path 8957" d="M1631.167,628.282l-.725-.762c-.307-.323-7.526-7.942-9.37-11.518a.982.982,0,1,1,1.746-.9c1.393,2.7,6.433,8.251,8.325,10.291,1.908-2.12,7.076-7.97,8.4-10.542l.109-.21a7.877,7.877,0,0,0,1.107-3.36,4.387,4.387,0,0,0-1.165-3.393,5.115,5.115,0,0,0-7.7.218l-.758.917-.758-.917a5.1,5.1,0,0,0-3.943-1.859,4.383,4.383,0,0,0-3.219,1.3,5.144,5.144,0,0,0-1.361,3.779.985.985,0,0,1-.959,1.007,1.006,1.006,0,0,1-1.006-.959,7.1,7.1,0,0,1,1.92-5.2,6.388,6.388,0,0,1,4.625-1.893,7.08,7.08,0,0,0,9.4,0,7.062,7.062,0,0,1,5.208,2.281,6.344,6.344,0,0,1,1.67,4.9,9.812,9.812,0,0,1-1.318,4.083l-.107.206c-1.741,3.39-9.1,11.418-9.411,11.759Z" fill="#333"/>
  </g>
</svg>
