<svg xmlns="http://www.w3.org/2000/svg" width="26.862" height="24" viewBox="0 0 26.862 24">
  <g id="Group_1971" data-name="Group 1971" transform="translate(-1761.883 -248.745)">
    <path id="Path_8965" data-name="Path 8965" d="M1779.2,270.282a2.131,2.131,0,0,0-.211-.353c-1.153-1.682-4.19-7-4.19-7a.5.5,0,0,0-.91.391s1.76,5.864,2.186,7.858a2.127,2.127,0,0,0,.11.4l0,.009h0a1.642,1.642,0,0,0,3.017-1.3h0Z" transform="translate(-2.396 -2.788)" fill="#333"/>
    <path id="Path_8966" data-name="Path 8966" d="M1775.314,248.745a13.428,13.428,0,0,0-8.686,23.67,1.23,1.23,0,0,0,2.062-.775,1.192,1.192,0,0,0-.389-1.03,10.968,10.968,0,1,1,14.009.016,1.172,1.172,0,0,0-.372,1.014,1.229,1.229,0,0,0,2.021.811h0a13.429,13.429,0,0,0-8.646-23.706Z" fill="#333"/>
  </g>
</svg>
