<svg xmlns="http://www.w3.org/2000/svg" width="16.053" height="16" viewBox="0 0 16.053 16">
  <g id="Group_1860" data-name="Group 1860" transform="translate(-1.447 -1.5)">
    <g id="Group_1799" data-name="Group 1799" transform="translate(1.447 1.5)">
      <g id="Group_1798" data-name="Group 1798">
        <path id="Path_8736" data-name="Path 8736" d="M9.447,16.167h-6A.667.667,0,0,1,2.78,15.5V3.5a.667.667,0,0,1,.667-.667h6a.667.667,0,0,0,0-1.333h-6a2,2,0,0,0-2,2v12a2,2,0,0,0,2,2h6a.667.667,0,0,0,0-1.333Z" transform="translate(-1.447 -1.5)" fill="#333"/>
      </g>
    </g>
    <g id="Group_1801" data-name="Group 1801" transform="translate(6.78 4.833)">
      <g id="Group_1800" data-name="Group 1800">
        <path id="Path_8737" data-name="Path 8737" d="M22.634,12.359l-4.053-4a.666.666,0,1,0-.936.949l2.9,2.859H12.78a.666.666,0,1,0,0,1.333h7.762l-2.9,2.859a.666.666,0,1,0,.936.949l4.053-4a.666.666,0,0,0,0-.949Z" transform="translate(-12.113 -8.167)" fill="#333"/>
      </g>
    </g>
  </g>
</svg>
