<svg xmlns="http://www.w3.org/2000/svg" width="24" height="16.667" viewBox="0 0 24 16.667"><g id="Group_1968" data-name="Group 1968" transform="translate(-1619.5 -489.374)"><path id="Path_8958" data-name="Path 8958" d="M1642.5,489.374h-22a1,1,0,0,0-1,1v14.667a1,1,0,0,0,1,1h22a1,1,0,0,0,1-1V490.374A1,1,0,0,0,1642.5,489.374Zm-1,14.667h-20V491.374h20Z" fill="#333"/><path id="Path_8959" data-name="Path 8959" d="M1630.831,501.357a1,1,0,0,0,1.341,0l6.944-6.292a1,1,0,1,0-1.344-1.482l-6.275,5.687-6.273-5.642a1,1,0,0,0-1.338,1.486Z" fill="#333"/></g></svg>
