<svg xmlns="http://www.w3.org/2000/svg" width="24" height="24" viewBox="0 0 24 24">
  <g id="Group_1966" data-name="Group 1966" transform="translate(-1496.007 -722.685)">
    <path id="Path_8954" data-name="Path 8954" d="M1508.093,730.748a3.938,3.938,0,1,0,3.939,3.937A3.942,3.942,0,0,0,1508.093,730.748Zm0,6.029a2.091,2.091,0,1,1,2.093-2.092A2.094,2.094,0,0,1,1508.093,736.777Z" fill="#333"/>
    <path id="Path_8955" data-name="Path 8955" d="M1519.084,731.916h-1.228a9.977,9.977,0,0,0-.933-2.23l.874-.875a.922.922,0,0,0,0-1.3l-2.61-2.611a.921.921,0,0,0-1.305,0l-.9.9a10.034,10.034,0,0,0-2.207-.9v-1.29a.923.923,0,0,0-.923-.923h-3.692a.922.922,0,0,0-.923.923v1.339a10.02,10.02,0,0,0-2.145.908l-.961-.96a.95.95,0,0,0-1.3,0l-2.611,2.611a.923.923,0,0,0,0,1.3l.984.985a10.064,10.064,0,0,0-.871,2.12h-1.4a.923.923,0,0,0-.923.923v3.692a.922.922,0,0,0,.923.923h1.4a10.032,10.032,0,0,0,.871,2.122l-.985.984a.924.924,0,0,0,0,1.3l2.611,2.612a.923.923,0,0,0,1.3,0l.96-.961a10,10,0,0,0,2.146.908v1.338a.922.922,0,0,0,.923.923h3.692a.923.923,0,0,0,.923-.923v-1.289a10.043,10.043,0,0,0,2.207-.9l.9.9a.923.923,0,0,0,1.305,0l2.61-2.612a.922.922,0,0,0,0-1.3l-.874-.874a10.011,10.011,0,0,0,.933-2.232h1.228a.922.922,0,0,0,.923-.923v-3.692A.923.923,0,0,0,1519.084,731.916Zm-.923,3.692h-1.016a.732.732,0,0,0-.081.017.883.883,0,0,0-.212.042,1.008,1.008,0,0,0-.122.051.915.915,0,0,0-.184.124.925.925,0,0,0-.089.088.885.885,0,0,0-.125.186.978.978,0,0,0-.051.12,1.01,1.01,0,0,0-.047.112,8.232,8.232,0,0,1-1.24,2.966.77.77,0,0,0-.043.1.932.932,0,0,0-.1.34.92.92,0,0,0,0,.149.9.9,0,0,0,.038.193.892.892,0,0,0,.058.144.984.984,0,0,0,.11.165c.02.023.028.053.05.075l.729.73-1.3,1.3-.748-.748a.809.809,0,0,0-.078-.052.9.9,0,0,0-.148-.1.923.923,0,0,0-.165-.07.941.941,0,0,0-.168-.032.833.833,0,0,0-.173,0,.893.893,0,0,0-.177.034.94.94,0,0,0-.159.063.883.883,0,0,0-.09.036,8.216,8.216,0,0,1-2.95,1.2c-.029.006-.05.024-.078.032a.914.914,0,0,0-.191.079.857.857,0,0,0-.127.085.876.876,0,0,0-.136.136.882.882,0,0,0-.161.3.875.875,0,0,0-.036.176c0,.033-.019.062-.019.1v1.092h-1.846v-1.127c0-.025-.013-.047-.015-.072a.89.89,0,0,0-.041-.206.875.875,0,0,0-.058-.142.849.849,0,0,0-.1-.155.837.837,0,0,0-.117-.121.926.926,0,0,0-.143-.1.875.875,0,0,0-.175-.075.653.653,0,0,0-.076-.033,8.232,8.232,0,0,1-2.891-1.225.808.808,0,0,0-.085-.036.881.881,0,0,0-.172-.071.921.921,0,0,0-.171-.034.91.91,0,0,0-.173,0,.872.872,0,0,0-.173.034.9.9,0,0,0-.159.064.939.939,0,0,0-.156.1c-.024.02-.054.029-.077.051l-.819.819-1.305-1.3.838-.837a.719.719,0,0,0,.049-.074,1,1,0,0,0,.17-.315.935.935,0,0,0,.032-.166.915.915,0,0,0,0-.182.936.936,0,0,0-.1-.343c-.013-.025-.015-.052-.03-.077a8.217,8.217,0,0,1-1.177-2.859.926.926,0,0,0-.036-.087.9.9,0,0,0-.081-.19.792.792,0,0,0-.07-.1.906.906,0,0,0-.179-.176l-.06-.04a.916.916,0,0,0-.274-.113l-.043-.009a.894.894,0,0,0-.165-.033h-1.193v-1.846h1.195a.918.918,0,0,0,.338-.069c.031-.013.056-.033.086-.049a.917.917,0,0,0,.194-.13c.029-.028.052-.059.078-.089a.909.909,0,0,0,.12-.178.982.982,0,0,0,.048-.121.788.788,0,0,0,.04-.1,8.225,8.225,0,0,1,1.179-2.872.832.832,0,0,0,.033-.083.842.842,0,0,0,.067-.17.857.857,0,0,0,.034-.171.909.909,0,0,0,0-.173.844.844,0,0,0-.034-.173.868.868,0,0,0-.066-.158.947.947,0,0,0-.1-.155c-.019-.023-.028-.052-.049-.074l-.836-.835,1.305-1.306.822.821c.005.005.012.006.017.012a.926.926,0,0,0,.257.17.8.8,0,0,0,.081.03.908.908,0,0,0,.262.051.711.711,0,0,0,.093,0,.909.909,0,0,0,.241-.047.86.86,0,0,0,.119-.056,1.026,1.026,0,0,0,.095-.045,8.23,8.23,0,0,1,2.887-1.225c.025-.006.045-.023.069-.031a.921.921,0,0,0,.193-.083.87.87,0,0,0,.122-.083.892.892,0,0,0,.139-.143.88.88,0,0,0,.084-.126.959.959,0,0,0,.1-.344.662.662,0,0,0,.019-.091v-1.128h1.846v1.093a.847.847,0,0,0,.021.1.814.814,0,0,0,.033.163.875.875,0,0,0,.075.178.942.942,0,0,0,.086.127.849.849,0,0,0,.138.137.821.821,0,0,0,.13.088.88.88,0,0,0,.182.075.9.9,0,0,0,.085.035,8.2,8.2,0,0,1,2.946,1.192.937.937,0,0,0,.09.041.888.888,0,0,0,.117.054.909.909,0,0,0,.229.045.833.833,0,0,0,.356-.043,1.025,1.025,0,0,0,.1-.038.9.9,0,0,0,.245-.163c.007-.006.015-.007.021-.014l.752-.751,1.3,1.306-.732.732c-.019.019-.026.045-.043.065a.857.857,0,0,0-.119.18.937.937,0,0,0-.055.135.9.9,0,0,0-.038.193,1.035,1.035,0,0,0,0,.158.926.926,0,0,0,.035.18.937.937,0,0,0,.07.167.83.83,0,0,0,.036.087,8.2,8.2,0,0,1,1.241,2.966,1.037,1.037,0,0,0,.039.1.9.9,0,0,0,.052.133.832.832,0,0,0,.376.384,1.04,1.04,0,0,0,.1.058.921.921,0,0,0,.334.067h1.023Z" fill="#333"/>
  </g>
</svg>
