<svg xmlns="http://www.w3.org/2000/svg" width="40.647" height="15" viewBox="0 0 40.647 15">
  <g id="api_icon" transform="translate(-15.5 -46.4)">
    <path id="Path_2339" data-name="Path 2339" d="M31.559,46.4H28.971a7.415,7.415,0,0,0-7.353,6.294H16.676a1.176,1.176,0,1,0,0,2.353h4.941a7.461,7.461,0,0,0,7.353,6.294h2.588a1.18,1.18,0,0,0,1.176-1.176V47.576A1.18,1.18,0,0,0,31.559,46.4ZM30.382,58.988H28.971a5.118,5.118,0,1,1,0-10.235h1.412Z"/>
    <path id="Path_2340" data-name="Path 2340" d="M68.6,52.694H63.659A7.461,7.461,0,0,0,56.306,46.4H53.718a1.18,1.18,0,0,0-1.176,1.176v1.941H49.776a1.176,1.176,0,1,0,0,2.353h2.765v4.059H49.776a1.176,1.176,0,1,0,0,2.353h2.765v1.941A1.18,1.18,0,0,0,53.718,61.4h2.588a7.415,7.415,0,0,0,7.353-6.294H68.6a1.18,1.18,0,0,0,1.176-1.176A1.232,1.232,0,0,0,68.6,52.694ZM56.247,58.988H54.835V48.753h1.412a5.118,5.118,0,1,1,0,10.235Z" transform="translate(-13.629)"/>
  </g>
</svg>
