<svg xmlns="http://www.w3.org/2000/svg" width="54" height="44" viewBox="0 0 54 44">
  <g id="Group_2012" data-name="Group 2012" transform="translate(-485.315 -393.335)">
    <path id="Path_9214" data-name="Path 9214" d="M522.59,415.743a2,2,0,0,0-2-2H487.315a2,2,0,0,0,0,4H520.59A2,2,0,0,0,522.59,415.743Z" fill="#333"/>
    <path id="Path_9215" data-name="Path 9215" d="M538.862,414.475l-16.725-20.408a2,2,0,0,0-3.094,2.535l15.665,19.114-15.639,18.32a2,2,0,1,0,3.042,2.6l16.725-19.592A2,2,0,0,0,538.862,414.475Z" fill="#333"/>
  </g>
</svg>
