<?xml version="1.0" encoding="utf-8"?>
<!-- Generator: Adobe Illustrator 21.0.0, SVG Export Plug-In . SVG Version: 6.00 Build 0)  -->
<svg version="1.1" id="Capa_1" xmlns="http://www.w3.org/2000/svg" xmlns:xlink="http://www.w3.org/1999/xlink" x="0px" y="0px"
	 viewBox="0 0 35 35" style="enable-background:new 0 0 35 35;" xml:space="preserve">
<g>
	<g>
		<path d="M30.2,27.9l-1.4-18c-0.1-1.2-1.1-2.1-2.2-2.1h-2.8V7.7c0-3.4-2.8-6.2-6.2-6.2s-6.2,2.8-6.2,6.2v0.1H8.5
			c-1.2,0-2.1,0.9-2.2,2.1l-1.4,18c-0.1,1.4,0.4,2.9,1.4,3.9s2.4,1.7,3.8,1.7h15c1.4,0,2.8-0.6,3.8-1.7
			C29.8,30.8,30.3,29.3,30.2,27.9z M13.2,7.7c0-2.4,1.9-4.3,4.3-4.3s4.3,1.9,4.3,4.3v0.1h-8.6V7.7z M27.4,30.6
			c-0.6,0.7-1.5,1.1-2.5,1.1H10c-0.9,0-1.8-0.4-2.4-1.1C6.9,29.9,6.6,29,6.7,28l1.4-18c0-0.2,0.2-0.3,0.4-0.3h2.8V12
			c0,0.5,0.4,0.9,0.9,0.9s0.9-0.4,0.9-0.9V9.7h8.6V12c0,0.5,0.4,0.9,0.9,0.9s0.9-0.4,0.9-0.9V9.7h2.8c0.2,0,0.4,0.1,0.4,0.3l1.4,18
			C28.4,29,28.1,29.9,27.4,30.6z"/>
	</g>
</g>
</svg>
