<svg xmlns="http://www.w3.org/2000/svg" width="27.307" height="24" viewBox="0 0 27.307 24">
  <g id="cart_icon" transform="translate(0 -31)">
    <path id="Path_2222" data-name="Path 2222" d="M26.507,39H23.691l-6.16-7.7a.8.8,0,0,0-1.249,1l5.36,6.7H5.664l5.36-6.7a.8.8,0,0,0-1.249-1L3.616,39H.8a.8.8,0,0,0-.8.8v1.6a.8.8,0,0,0,.8.8l25.707.417c.442,0,.8-.775.8-1.217V39.8a.8.8,0,0,0-.8-.8Z" fill="#fff"/>
    <path id="Path_2223" data-name="Path 2223" d="M36.72,281.62a.8.8,0,0,0,.769.58H53.6a.8.8,0,0,0,.769-.58l4.81-12.749H31.955Z" transform="translate(-31.889 -227.2)" fill="#fff"/>
  </g>
</svg>
