<?xml version="1.0" encoding="utf-8"?>
<!-- Generator: Adobe Illustrator 21.0.0, SVG Export Plug-In . SVG Version: 6.00 Build 0)  -->
<svg version="1.1" id="Layer_1" xmlns="http://www.w3.org/2000/svg" xmlns:xlink="http://www.w3.org/1999/xlink" x="0px" y="0px"
	 viewBox="0 0 35 35" style="enable-background:new 0 0 35 35;" xml:space="preserve">
<title>Icon</title>
<g>
	<path d="M17.5,1.5c-8.8,0-16,7.2-16,16s7.2,16,16,16s16-7.2,16-16C33.5,8.7,26.3,1.5,17.5,1.5z M17.5,30.9c-7.4,0-13.4-6-13.4-13.4
		c0-7.4,6-13.4,13.4-13.4c7.4,0,13.4,6,13.4,13.4v0C30.9,24.9,24.9,30.9,17.5,30.9z"/>
	<path d="M23.9,12.9l-8.1,8.2l-4.7-4.8c-0.5-0.5-1.3-0.5-1.8,0c-0.5,0.5-0.5,1.3,0,1.8l5.7,5.7l0,0l0,0c0.1,0.1,0.2,0.1,0.3,0.2
		c0,0,0.1,0.1,0.1,0.1c0.2,0.1,0.3,0.1,0.5,0.1c0.2,0,0.3,0,0.5-0.1c0.1,0,0.1-0.1,0.2-0.1c0.1,0,0.2-0.1,0.3-0.2l0,0l0,0l9-9.2
		c0.5-0.5,0.6-1.3,0.1-1.8C25.4,12.3,24.5,12.3,23.9,12.9C24,12.8,23.9,12.8,23.9,12.9z"/>
</g>
</svg>
