<svg xmlns="http://www.w3.org/2000/svg" width="84" height="84" viewBox="0 0 84 84">
  <g id="Group_2010" data-name="Group 2010" transform="translate(-426.252 -288.624)">
    <path id="Path_9206" data-name="Path 9206" d="M427.252,315.45l40,23.094a2,2,0,0,0,2,0l40-23.094a2,2,0,0,0,0-3.464l-40-23.094a2,2,0,0,0-2,0l-40,23.094a2,2,0,0,0,0,3.464Zm41-22.516,36,20.784-36,20.785-36-20.785Z" fill="#333"/>
    <path id="Path_9207" data-name="Path 9207" d="M476.875,308.308l12.37,7.142a2,2,0,0,0,2-3.464l-12.37-7.142a2,2,0,0,0-2,3.464Z" fill="#190aff"/>
    <path id="Path_9208" data-name="Path 9208" d="M469.984,327.416a2,2,0,0,0-.732-2.732L450.26,313.718l9.37-5.41a2,2,0,0,0-2-3.464l-12.37,7.142a2,2,0,0,0,0,3.464l21.992,12.7a2,2,0,0,0,2.732-.732Z" fill="#190aff"/>
    <path id="Path_9209" data-name="Path 9209" d="M509.252,345.8l-7.566-4.368a2,2,0,0,0-2,3.464l4.566,2.636-36,20.785-36-20.785,4.9-2.83a2,2,0,0,0-2-3.464l-7.9,4.562a2,2,0,0,0,0,3.464l40,23.094a2,2,0,0,0,2,0l40-23.094a2,2,0,0,0,0-3.464Z" fill="#333"/>
    <path id="Path_9210" data-name="Path 9210" d="M509.252,328.927l-6.952-4.014a2,2,0,0,0-2,3.464l3.952,2.282-36,20.784-36-20.784,4.771-2.755a2,2,0,1,0-2-3.463l-7.771,4.486a2,2,0,0,0,0,3.464l40,23.094a2,2,0,0,0,2,0l40-23.094a2,2,0,0,0,0-3.464Z" fill="#333"/>
  </g>
</svg>
