<?xml version="1.0" encoding="utf-8"?>
<!-- Generator: Adobe Illustrator 21.0.0, SVG Export Plug-In . SVG Version: 6.00 Build 0)  -->
<svg version="1.1" id="Layer_1" xmlns="http://www.w3.org/2000/svg" xmlns:xlink="http://www.w3.org/1999/xlink" x="0px" y="0px"
	 viewBox="0 0 35 35" style="enable-background:new 0 0 35 35;" xml:space="preserve">
<style type="text/css">
	.st0{fill:none;}
</style>
<title>Group</title>
<desc>Created with Sketch.</desc>
<g>
	<g>
		<rect x="1.5" y="1.5" class="st0" width="32" height="32"/>
		<path d="M3.6,29.2h27.7c1.2,0,2.1,1,2.1,2.1l0,0c0,1.2-1,2.1-2.1,2.1H3.6c-1.2,0-2.1-1-2.1-2.1l0,0C1.5,30.2,2.5,29.2,3.6,29.2z"
			/>
		<path d="M11.6,14.9c-0.9-0.9-2.3-0.9-3.2,0c-0.9,0.9-0.9,2.3,0,3.2l8,8c0.6,0.6,1.6,0.6,2.1,0l8-8c0.9-0.9,0.9-2.3,0-3.2
			c-0.9-0.9-2.3-0.9-3.2,0l-3.6,3.6V3.9c0-1.3-1-2.3-2.3-2.3c-1.3,0-2.3,1-2.3,2.3v14.6L11.6,14.9z"/>
	</g>
</g>
</svg>
