<svg xmlns="http://www.w3.org/2000/svg" xmlns:xlink="http://www.w3.org/1999/xlink" width="139.354" height="139" viewBox="0 0 139.354 139">
  <defs>
    <linearGradient id="linear-gradient" x1="0.517" y1="-1.311" x2="0.442" y2="6.555" gradientUnits="objectBoundingBox">
      <stop offset="0" stop-color="#100699"/>
      <stop offset="1" stop-color="#328f8c"/>
    </linearGradient>
    <linearGradient id="linear-gradient-2" x1="0.518" y1="-1.372" x2="0.443" y2="6.493" xlink:href="#linear-gradient"/>
    <linearGradient id="linear-gradient-3" x1="0.537" y1="-3.364" x2="0.462" y2="4.502" xlink:href="#linear-gradient"/>
    <linearGradient id="linear-gradient-4" x1="0.53" y1="-2.659" x2="0.455" y2="5.207" xlink:href="#linear-gradient"/>
    <linearGradient id="linear-gradient-5" x1="0.507" y1="-0.227" x2="0.432" y2="7.639" xlink:href="#linear-gradient"/>
    <linearGradient id="linear-gradient-6" x1="0.518" y1="-1.342" x2="0.443" y2="6.524" xlink:href="#linear-gradient"/>
    <linearGradient id="linear-gradient-7" x1="0.536" y1="-3.273" x2="0.461" y2="4.592" xlink:href="#linear-gradient"/>
    <linearGradient id="linear-gradient-8" x1="0.521" y1="-1.744" x2="0.446" y2="6.121" xlink:href="#linear-gradient"/>
    <linearGradient id="linear-gradient-9" x1="0.544" y1="-4.123" x2="0.469" y2="3.743" xlink:href="#linear-gradient"/>
    <linearGradient id="linear-gradient-10" x1="0.567" y1="-6.545" x2="0.492" y2="1.321" xlink:href="#linear-gradient"/>
    <linearGradient id="linear-gradient-11" x1="0.554" y1="-5.145" x2="0.479" y2="2.721" xlink:href="#linear-gradient"/>
    <linearGradient id="linear-gradient-12" x1="0.538" y1="-3.443" x2="0.463" y2="4.422" xlink:href="#linear-gradient"/>
    <linearGradient id="linear-gradient-13" x1="0.559" y1="-5.703" x2="0.484" y2="2.163" xlink:href="#linear-gradient"/>
    <linearGradient id="linear-gradient-14" x1="0.567" y1="-6.559" x2="0.492" y2="1.306" xlink:href="#linear-gradient"/>
    <linearGradient id="linear-gradient-15" x1="0.562" y1="-6.051" x2="0.487" y2="1.815" xlink:href="#linear-gradient"/>
    <linearGradient id="linear-gradient-16" x1="0.572" y1="-7.049" x2="0.497" y2="0.817" xlink:href="#linear-gradient"/>
    <linearGradient id="linear-gradient-17" x1="0.541" y1="-3.8" x2="0.466" y2="4.066" xlink:href="#linear-gradient"/>
    <linearGradient id="linear-gradient-18" x1="0.551" y1="-4.898" x2="0.477" y2="2.968" xlink:href="#linear-gradient"/>
    <linearGradient id="linear-gradient-19" x1="0.505" y1="-0.556" x2="0.495" y2="1.565" xlink:href="#linear-gradient"/>
  </defs>
  <g id="Group_2026" data-name="Group 2026" transform="translate(-854.646 -50.496)">
    <path id="Path_9232" data-name="Path 9232" d="M880.554,87.107a8.9,8.9,0,1,0-8.9-8.9A8.909,8.909,0,0,0,880.554,87.107Zm0-13.8a4.9,4.9,0,1,1-4.9,4.9A4.9,4.9,0,0,1,880.554,73.309Z" fill="url(#linear-gradient)"/>
    <path id="Path_9233" data-name="Path 9233" d="M909.723,88.476a8.9,8.9,0,1,0-8.9-8.9A8.91,8.91,0,0,0,909.723,88.476Zm0-13.8a4.9,4.9,0,1,1-4.9,4.9A4.9,4.9,0,0,1,909.723,74.677Z" fill="url(#linear-gradient-2)"/>
    <path id="Path_9234" data-name="Path 9234" d="M863.545,123.49a8.9,8.9,0,1,0-8.9-8.9A8.909,8.909,0,0,0,863.545,123.49Zm0-13.8a4.9,4.9,0,1,1-4.9,4.9A4.905,4.905,0,0,1,863.545,109.691Z" fill="url(#linear-gradient-3)"/>
    <path id="Path_9235" data-name="Path 9235" d="M880.7,102.285a8.9,8.9,0,1,0,8.9-8.9A8.91,8.91,0,0,0,880.7,102.285Zm8.9-4.9a4.9,4.9,0,1,1-4.9,4.9A4.9,4.9,0,0,1,889.6,97.386Z" fill="url(#linear-gradient-4)"/>
    <path id="Path_9236" data-name="Path 9236" d="M930.387,68.294a8.9,8.9,0,1,0-8.9-8.9A8.909,8.909,0,0,0,930.387,68.294Zm0-13.8a4.9,4.9,0,1,1-4.9,4.9A4.905,4.905,0,0,1,930.387,54.5Z" fill="url(#linear-gradient-5)"/>
    <path id="Path_9237" data-name="Path 9237" d="M966.123,88.476a8.9,8.9,0,1,0-8.9-8.9A8.91,8.91,0,0,0,966.123,88.476Zm0-13.8a4.9,4.9,0,1,1-4.9,4.9A4.9,4.9,0,0,1,966.123,74.677Z" fill="url(#linear-gradient-6)"/>
    <path id="Path_9238" data-name="Path 9238" d="M909.151,113.5a8.9,8.9,0,1,0,8.9-8.9A8.909,8.909,0,0,0,909.151,113.5Zm13.8,0a4.9,4.9,0,1,1-4.9-4.9A4.905,4.905,0,0,1,922.95,113.5Z" fill="url(#linear-gradient-7)"/>
    <path id="Path_9239" data-name="Path 9239" d="M929.389,86.476a8.9,8.9,0,1,0,8.9-8.9A8.909,8.909,0,0,0,929.389,86.476Zm13.8,0a4.9,4.9,0,1,1-4.9-4.9A4.9,4.9,0,0,1,943.187,86.476Z" fill="url(#linear-gradient-8)"/>
    <path id="Path_9240" data-name="Path 9240" d="M895.924,119.514a8.9,8.9,0,1,0,8.9,8.9A8.909,8.909,0,0,0,895.924,119.514Zm0,13.8a4.9,4.9,0,1,1,4.9-4.9A4.905,4.905,0,0,1,895.924,133.313Z" fill="url(#linear-gradient-9)"/>
    <path id="Path_9241" data-name="Path 9241" d="M966.123,163.287a8.9,8.9,0,1,0,8.9,8.9A8.909,8.909,0,0,0,966.123,163.287Zm0,13.8a4.9,4.9,0,1,1,4.9-4.9A4.9,4.9,0,0,1,966.123,177.086Z" fill="url(#linear-gradient-10)"/>
    <path id="Path_9242" data-name="Path 9242" d="M946.68,138.186a8.9,8.9,0,1,0,8.9,8.9A8.909,8.909,0,0,0,946.68,138.186Zm0,13.8a4.9,4.9,0,1,1,4.9-4.9A4.9,4.9,0,0,1,946.68,151.985Z" fill="url(#linear-gradient-11)"/>
    <path id="Path_9243" data-name="Path 9243" d="M984.75,117.077a8.9,8.9,0,1,0-8.9,8.9A8.909,8.909,0,0,0,984.75,117.077Zm-13.8,0a4.9,4.9,0,1,1,4.9,4.9A4.9,4.9,0,0,1,970.951,117.077Z" fill="url(#linear-gradient-12)"/>
    <path id="Path_9244" data-name="Path 9244" d="M918.05,147.836a8.9,8.9,0,1,0,8.9,8.9A8.909,8.909,0,0,0,918.05,147.836Zm0,13.8a4.9,4.9,0,1,1,4.9-4.9A4.9,4.9,0,0,1,918.05,161.634Z" fill="url(#linear-gradient-13)"/>
    <path id="Path_9245" data-name="Path 9245" d="M938.288,163.287a8.9,8.9,0,1,0,8.9,8.9A8.909,8.909,0,0,0,938.288,163.287Zm0,13.8a4.9,4.9,0,1,1,4.9-4.9A4.9,4.9,0,0,1,938.288,177.086Z" fill="url(#linear-gradient-14)"/>
    <path id="Path_9246" data-name="Path 9246" d="M877.344,153.642a8.9,8.9,0,1,0,8.9,8.9A8.909,8.909,0,0,0,877.344,153.642Zm0,13.8a4.9,4.9,0,1,1,4.9-4.9A4.9,4.9,0,0,1,877.344,167.44Z" fill="url(#linear-gradient-15)"/>
    <path id="Path_9247" data-name="Path 9247" d="M906.41,171.7a8.9,8.9,0,1,0,8.9,8.9A8.909,8.909,0,0,0,906.41,171.7Zm0,13.8a4.9,4.9,0,1,1,4.9-4.9A4.9,4.9,0,0,1,906.41,185.5Z" fill="url(#linear-gradient-16)"/>
    <path id="Path_9248" data-name="Path 9248" d="M960.116,123.189a8.9,8.9,0,1,0-8.9,8.9A8.91,8.91,0,0,0,960.116,123.189Zm-13.8,0a4.9,4.9,0,1,1,4.9,4.9A4.9,4.9,0,0,1,946.317,123.189Z" fill="url(#linear-gradient-17)"/>
    <path id="Path_9249" data-name="Path 9249" d="M979.044,134.1a8.9,8.9,0,1,0,8.9,8.9A8.91,8.91,0,0,0,979.044,134.1Zm0,13.8a4.9,4.9,0,1,1,4.9-4.9A4.906,4.906,0,0,1,979.044,147.9Z" fill="url(#linear-gradient-18)"/>
    <path id="Path_9250" data-name="Path 9250" d="M994,101.468c0-.026,0-.052,0-.079a1.99,1.99,0,0,0-.269-1l-5.078-15.9a2,2,0,1,0-3.81,1.217l3.453,10.811c-8.35-4.421-18.613-4.559-29.006-.2-8.563,3.59-15.391,9.228-21.487,17.742l-1.562,2.191c-7.227,10.149-14.052,19.734-25.576,24.927-16.708,7.529-33.151,4.214-51.744-10.432a2,2,0,0,0-2.475,3.143c12.958,10.206,25.007,15.239,36.868,15.239a45.808,45.808,0,0,0,18.995-4.3c12.51-5.637,19.641-15.651,27.19-26.253l1.556-2.182c5.724-7.993,11.824-13.046,19.782-16.383,5.735-2.4,16.1-5.211,25.8.122l-12.021,1.267a2,2,0,0,0,.208,3.989c.07,0,.141,0,.212-.011l17.185-1.811a1.969,1.969,0,0,0,1.777-1.951C994,101.56,994,101.514,994,101.468Z" fill="url(#linear-gradient-19)"/>
  </g>
</svg>
