<svg id="github-Icon" xmlns="http://www.w3.org/2000/svg" width="32" height="30.667" viewBox="0 0 32 30.667">
  <path id="Path_35" data-name="Path 35" d="M16,10.667a15.69,15.69,0,0,0-5.06,30.64c.8.148,1.093-.339,1.093-.756,0-.373-.013-1.363-.02-2.673-4.451.948-5.389-2.109-5.389-2.109a4.191,4.191,0,0,0-1.78-2.3c-1.449-.975.112-.955.112-.955a3.347,3.347,0,0,1,2.451,1.62,3.445,3.445,0,0,0,4.66,1.308,3.329,3.329,0,0,1,1.013-2.1c-3.553-.393-7.288-1.745-7.288-7.769a6.007,6.007,0,0,1,1.647-4.219,5.5,5.5,0,0,1,.14-4.161s1.34-.421,4.4,1.612a15.342,15.342,0,0,1,8,0c3.04-2.033,4.38-1.612,4.38-1.612a5.653,5.653,0,0,1,.16,4.161,6.031,6.031,0,0,1,1.64,4.219c0,6.04-3.74,7.369-7.3,7.756a3.731,3.731,0,0,1,1.08,2.909c0,2.1-.02,3.795-.02,4.305,0,.412.28.9,1.1.747A15.7,15.7,0,0,0,32,26.39,15.864,15.864,0,0,0,16,10.667Z" transform="translate(0 -10.667)" fill="#fff"/>
</svg>
