<svg id="linkedIn-Icon" xmlns="http://www.w3.org/2000/svg" width="32" height="32" viewBox="0 0 32 32">
  <path id="Path_36" data-name="Path 36" d="M29.105,0H2.895A2.9,2.9,0,0,0,0,2.895V29.105A2.9,2.9,0,0,0,2.895,32H29.105A2.9,2.9,0,0,0,32,29.105V2.895A2.9,2.9,0,0,0,29.105,0ZM9.9,27.631a.842.842,0,0,1-.842.842H5.474a.842.842,0,0,1-.842-.842V12.6a.842.842,0,0,1,.842-.842H9.06A.842.842,0,0,1,9.9,12.6ZM7.267,10.34a3.407,3.407,0,1,1,3.407-3.407A3.407,3.407,0,0,1,7.267,10.34ZM28.642,27.7a.775.775,0,0,1-.775.775H24.019a.775.775,0,0,1-.775-.775V20.648c0-1.052.309-4.609-2.749-4.609-2.371,0-2.852,2.435-2.949,3.528V27.7a.775.775,0,0,1-.775.775H13.051a.775.775,0,0,1-.775-.775V12.531a.775.775,0,0,1,.775-.775h3.722a.775.775,0,0,1,.775.775v1.311c.879-1.32,2.186-2.338,4.969-2.338,6.161,0,6.126,5.756,6.126,8.919V27.7Z" fill="#fff"/>
</svg>
