<svg xmlns="http://www.w3.org/2000/svg" width="57.425" height="82.667" viewBox="0 0 57.425 82.667">
  <g id="Group_2011" data-name="Group 2011" transform="translate(-528.858 -288.624)">
    <path id="Path_9211" data-name="Path 9211" d="M582.4,302.957a28.667,28.667,0,0,0-49.652,28.667l21.939,38a3.333,3.333,0,0,0,5.774,0l21.939-38A28.374,28.374,0,0,0,582.4,302.957Zm-3.464,26.667-21.362,37-21.362-37a24.667,24.667,0,1,1,42.724,0Z" fill="#333"/>
    <path id="Path_9212" data-name="Path 9212" d="M559.286,333.437c-7.245-.151-11.907-2.415-15.116-7.342a2,2,0,0,0-3.351,2.183c3.952,6.069,9.794,8.979,18.384,9.158h.043a2,2,0,0,0,.04-4Z" fill="#190aff"/>
    <path id="Path_9213" data-name="Path 9213" d="M557.57,304.576a12.715,12.715,0,1,0,12.715,12.715A12.73,12.73,0,0,0,557.57,304.576Zm0,21.43a8.715,8.715,0,1,1,8.715-8.715A8.726,8.726,0,0,1,557.57,326.006Z" fill="#333"/>
  </g>
</svg>
