<svg xmlns="http://www.w3.org/2000/svg" xmlns:xlink="http://www.w3.org/1999/xlink" width="92" height="92" viewBox="0 0 92 92">
  <defs>
    <linearGradient id="linear-gradient" x1="0.5" y1="-0.013" x2="0.5" y2="1.016" gradientUnits="objectBoundingBox">
      <stop offset="0" stop-color="#100699"/>
      <stop offset="1" stop-color="#328f8c"/>
    </linearGradient>
    <linearGradient id="linear-gradient-2" x1="0.5" y1="-4.973" x2="0.5" y2="2.819" xlink:href="#linear-gradient"/>
    <linearGradient id="linear-gradient-4" x1="0.5" y1="-16.124" x2="0.5" y2="7.543" xlink:href="#linear-gradient"/>
    <linearGradient id="linear-gradient-5" x1="0.5" y1="-1.067" x2="0.5" y2="2.155" xlink:href="#linear-gradient"/>
    <linearGradient id="linear-gradient-6" x1="0.5" y1="-1.31" x2="0.5" y2="2.996" xlink:href="#linear-gradient"/>
  </defs>
  <g id="Group_2031" data-name="Group 2031" transform="translate(-848.503 -616.902)">
    <path id="Path_9288" data-name="Path 9288" d="M894.5,616.9a46,46,0,1,0,46,46A46.053,46.053,0,0,0,894.5,616.9Zm0,88a42,42,0,1,1,42-42A42.047,42.047,0,0,1,894.5,704.9Z" fill="url(#linear-gradient)"/>
    <path id="Path_9289" data-name="Path 9289" d="M875.733,676.088a6.076,6.076,0,1,0,6.076,6.076A6.083,6.083,0,0,0,875.733,676.088Zm0,8.151a2.076,2.076,0,1,1,2.076-2.075A2.077,2.077,0,0,1,875.733,684.239Z" fill="url(#linear-gradient-2)"/>
    <path id="Path_9290" data-name="Path 9290" d="M914.884,676.088a6.076,6.076,0,1,0,6.076,6.076A6.083,6.083,0,0,0,914.884,676.088Zm0,8.151a2.076,2.076,0,1,1,2.076-2.075A2.077,2.077,0,0,1,914.884,684.239Z" fill="url(#linear-gradient-2)"/>
    <path id="Path_9291" data-name="Path 9291" d="M905.095,680.164H885.262a2,2,0,0,0,0,4h19.833a2,2,0,0,0,0-4Z" fill="url(#linear-gradient-4)"/>
    <path id="Path_9292" data-name="Path 9292" d="M915.171,667.062a2,2,0,0,0,1.713-1.98V649.021a2,2,0,0,0-2-2h-28.36a2,2,0,0,0,0,4h26.36v12.33L884.1,667.523a2.005,2.005,0,0,0-1.253.7l-4.065,4.905a2,2,0,0,0,3.08,2.553l3.574-4.313Z" fill="url(#linear-gradient-5)"/>
    <path id="Path_9293" data-name="Path 9293" d="M879.753,665.377a2,2,0,0,0,3.549-1.844l-9.349-17.988a2,2,0,0,0-1.774-1.078h-6.6a2,2,0,0,0,0,4h5.387Z" fill="url(#linear-gradient-6)"/>
  </g>
</svg>
