<svg xmlns="http://www.w3.org/2000/svg" xmlns:xlink="http://www.w3.org/1999/xlink" width="104.93" height="139" viewBox="0 0 104.93 139">
  <defs>
    <linearGradient id="linear-gradient" x1="0.477" y1="-4.292" x2="0.515" y2="3.547" gradientUnits="objectBoundingBox">
      <stop offset="0" stop-color="#100699"/>
      <stop offset="1" stop-color="#328f8c"/>
    </linearGradient>
    <linearGradient id="linear-gradient-2" x1="0.498" y1="0.106" x2="0.536" y2="7.945" xlink:href="#linear-gradient"/>
    <linearGradient id="linear-gradient-3" x1="0.487" y1="-2.142" x2="0.525" y2="5.697" xlink:href="#linear-gradient"/>
    <linearGradient id="linear-gradient-4" x1="0.466" y1="-6.691" x2="0.503" y2="1.148" xlink:href="#linear-gradient"/>
    <linearGradient id="linear-gradient-5" x1="0.425" y1="-0.113" x2="0.591" y2="1.245" xlink:href="#linear-gradient"/>
    <linearGradient id="linear-gradient-6" x1="0.36" y1="-2.522" x2="0.526" y2="1.064" xlink:href="#linear-gradient"/>
    <linearGradient id="linear-gradient-7" x1="0.458" y1="0.029" x2="0.625" y2="1.898" xlink:href="#linear-gradient"/>
    <linearGradient id="linear-gradient-8" x1="0.48" y1="0.038" x2="0.647" y2="3.96" xlink:href="#linear-gradient"/>
    <linearGradient id="linear-gradient-9" x1="0.382" y1="-0.792" x2="0.549" y2="1.04" xlink:href="#linear-gradient"/>
    <linearGradient id="linear-gradient-10" x1="0.414" y1="-0.203" x2="0.581" y2="1.163" xlink:href="#linear-gradient"/>
    <linearGradient id="linear-gradient-11" x1="0.491" y1="-0.862" x2="0.535" y2="5.873" xlink:href="#linear-gradient"/>
    <linearGradient id="linear-gradient-12" x1="0.481" y1="-2.835" x2="0.522" y2="4.233" xlink:href="#linear-gradient"/>
    <linearGradient id="linear-gradient-13" x1="0.473" y1="-4.038" x2="0.508" y2="1.918" xlink:href="#linear-gradient"/>
  </defs>
  <g id="Group_2027" data-name="Group 2027" transform="translate(-850.07 -188.894)">
    <path id="Path_9251" data-name="Path 9251" d="M888.5,267.343a8.887,8.887,0,1,0,8.888,8.887A8.9,8.9,0,0,0,888.5,267.343Zm0,13.774a4.887,4.887,0,1,1,4.888-4.887A4.893,4.893,0,0,1,888.5,281.117Z" fill="url(#linear-gradient)"/>
    <path id="Path_9252" data-name="Path 9252" d="M946.113,188.894A8.887,8.887,0,1,0,955,197.781,8.9,8.9,0,0,0,946.113,188.894Zm0,13.774A4.887,4.887,0,1,1,951,197.781,4.892,4.892,0,0,1,946.113,202.668Z" fill="url(#linear-gradient-2)"/>
    <path id="Path_9253" data-name="Path 9253" d="M918.929,228.975a8.887,8.887,0,1,0,8.887,8.888A8.9,8.9,0,0,0,918.929,228.975Zm0,13.774a4.887,4.887,0,1,1,4.887-4.886A4.892,4.892,0,0,1,918.929,242.749Z" fill="url(#linear-gradient-3)"/>
    <path id="Path_9254" data-name="Path 9254" d="M858.957,310.119a8.888,8.888,0,1,0,8.887,8.888A8.9,8.9,0,0,0,858.957,310.119Zm0,13.775a4.888,4.888,0,1,1,4.887-4.887A4.893,4.893,0,0,1,858.957,323.894Z" fill="url(#linear-gradient-4)"/>
    <path id="Path_9255" data-name="Path 9255" d="M858.957,305.434a2,2,0,0,0,2-2V204.822a2,2,0,0,0-4,0v98.612A2,2,0,0,0,858.957,305.434Z" fill="url(#linear-gradient-5)"/>
    <path id="Path_9256" data-name="Path 9256" d="M888.5,289.037a2,2,0,0,0-2,2v34.857a2,2,0,0,0,4,0V291.037A2,2,0,0,0,888.5,289.037Z" fill="url(#linear-gradient-6)"/>
    <path id="Path_9257" data-name="Path 9257" d="M888.5,263.423a2,2,0,0,0,2-2V190.894a2,2,0,0,0-4,0v70.529A2,2,0,0,0,888.5,263.423Z" fill="url(#linear-gradient-7)"/>
    <path id="Path_9258" data-name="Path 9258" d="M918.929,225.084a2,2,0,0,0,2-2V191.561a2,2,0,1,0-4,0v31.523A2,2,0,0,0,918.929,225.084Z" fill="url(#linear-gradient-8)"/>
    <path id="Path_9259" data-name="Path 9259" d="M918.929,251.158a2,2,0,0,0-2,2v72.069a2,2,0,0,0,4,0V253.158A2,2,0,0,0,918.929,251.158Z" fill="url(#linear-gradient-9)"/>
    <path id="Path_9260" data-name="Path 9260" d="M946.152,211.482a2,2,0,0,0-2,2v98.035a2,2,0,0,0,4,0V213.482A2,2,0,0,0,946.152,211.482Z" fill="url(#linear-gradient-10)"/>
    <path id="Path_9261" data-name="Path 9261" d="M937.679,209.4a39.945,39.945,0,0,0-4.686,7.147,46.046,46.046,0,0,1-6.564,9.5,2,2,0,1,0,3.029,2.613,50.117,50.117,0,0,0,7.053-10.212,36.061,36.061,0,0,1,4.262-6.514,2,2,0,0,0-3.094-2.536Z" fill="url(#linear-gradient-11)"/>
    <path id="Path_9262" data-name="Path 9262" d="M908.246,247.294c-7.935,6.3-10.31,10.8-12.8,16.473a2,2,0,1,0,3.663,1.608c2.326-5.3,4.391-9.2,11.623-14.949a2,2,0,1,0-2.488-3.132Z" fill="url(#linear-gradient-12)"/>
    <path id="Path_9263" data-name="Path 9263" d="M881.735,285.81a2,2,0,0,0-2.7.836c-1.127,2.136-3,3.744-5.179,5.607-3.705,3.174-7.905,6.771-9.938,14.192a2,2,0,0,0,1.4,2.457,1.977,1.977,0,0,0,.529.072,2,2,0,0,0,1.928-1.472c1.709-6.238,5.255-9.275,8.684-12.212,2.381-2.04,4.631-3.967,6.114-6.778A2,2,0,0,0,881.735,285.81Z" fill="url(#linear-gradient-13)"/>
  </g>
</svg>
