<svg xmlns="http://www.w3.org/2000/svg" width="20" height="20" viewBox="0 0 20 20">
  <g id="raster_icon" transform="translate(-18 -24)">
    <rect id="Rectangle_1177" data-name="Rectangle 1177" width="2.857" height="2.857" transform="translate(18 24)"/>
    <rect id="Rectangle_1178" data-name="Rectangle 1178" width="2.857" height="2.857" transform="translate(20.857 26.857)"/>
    <rect id="Rectangle_1179" data-name="Rectangle 1179" width="2.857" height="2.857" transform="translate(26.571 26.857)"/>
    <rect id="Rectangle_1180" data-name="Rectangle 1180" width="2.857" height="2.857" transform="translate(32.286 26.857)"/>
    <rect id="Rectangle_1181" data-name="Rectangle 1181" width="2.857" height="2.857" transform="translate(20.857 32.571)"/>
    <rect id="Rectangle_1182" data-name="Rectangle 1182" width="2.857" height="2.857" transform="translate(26.571 32.571)"/>
    <rect id="Rectangle_1183" data-name="Rectangle 1183" width="2.857" height="2.857" transform="translate(32.286 32.571)"/>
    <rect id="Rectangle_1184" data-name="Rectangle 1184" width="2.857" height="2.857" transform="translate(20.857 38.286)"/>
    <rect id="Rectangle_1185" data-name="Rectangle 1185" width="2.857" height="2.857" transform="translate(26.571 38.286)"/>
    <rect id="Rectangle_1186" data-name="Rectangle 1186" width="2.857" height="2.857" transform="translate(32.286 38.286)"/>
    <rect id="Rectangle_1187" data-name="Rectangle 1187" width="2.857" height="2.857" transform="translate(23.714 24)"/>
    <rect id="Rectangle_1188" data-name="Rectangle 1188" width="2.857" height="2.857" transform="translate(29.429 24)"/>
    <rect id="Rectangle_1189" data-name="Rectangle 1189" width="2.857" height="2.857" transform="translate(35.143 24)"/>
    <rect id="Rectangle_1190" data-name="Rectangle 1190" width="2.857" height="2.857" transform="translate(18 29.714)"/>
    <rect id="Rectangle_1191" data-name="Rectangle 1191" width="2.857" height="2.857" transform="translate(23.714 29.714)"/>
    <rect id="Rectangle_1192" data-name="Rectangle 1192" width="2.857" height="2.857" transform="translate(29.429 29.714)"/>
    <rect id="Rectangle_1193" data-name="Rectangle 1193" width="2.857" height="2.857" transform="translate(35.143 29.714)"/>
    <rect id="Rectangle_1194" data-name="Rectangle 1194" width="2.857" height="2.857" transform="translate(18 35.429)"/>
    <rect id="Rectangle_1195" data-name="Rectangle 1195" width="2.857" height="2.857" transform="translate(23.714 35.429)"/>
    <rect id="Rectangle_1196" data-name="Rectangle 1196" width="2.857" height="2.857" transform="translate(29.429 35.429)"/>
    <rect id="Rectangle_1197" data-name="Rectangle 1197" width="2.857" height="2.857" transform="translate(35.143 35.429)"/>
    <rect id="Rectangle_1198" data-name="Rectangle 1198" width="2.857" height="2.857" transform="translate(18 41.143)"/>
    <rect id="Rectangle_1199" data-name="Rectangle 1199" width="2.857" height="2.857" transform="translate(23.714 41.143)"/>
    <rect id="Rectangle_1200" data-name="Rectangle 1200" width="2.857" height="2.857" transform="translate(29.429 41.143)"/>
    <rect id="Rectangle_1201" data-name="Rectangle 1201" width="2.857" height="2.857" transform="translate(35.143 41.143)"/>
  </g>
</svg>
