<svg xmlns="http://www.w3.org/2000/svg" xmlns:xlink="http://www.w3.org/1999/xlink" width="92" height="92" viewBox="0 0 92 92">
  <defs>
    <linearGradient id="linear-gradient" x1="0.5" y1="-0.009" x2="0.5" y2="0.998" gradientUnits="objectBoundingBox">
      <stop offset="0" stop-color="#100699"/>
      <stop offset="1" stop-color="#328f8c"/>
    </linearGradient>
    <linearGradient id="linear-gradient-2" x1="0.5" y1="-2.295" x2="0.5" y2="4.86" xlink:href="#linear-gradient"/>
    <linearGradient id="linear-gradient-3" x1="0.5" y1="-0.482" x2="0.5" y2="2.031" xlink:href="#linear-gradient"/>
    <linearGradient id="linear-gradient-4" x1="0.5" y1="-4.786" x2="0.5" y2="2.37" xlink:href="#linear-gradient"/>
    <linearGradient id="linear-gradient-5" x1="0.5" y1="-1.945" x2="0.5" y2="1.365" xlink:href="#linear-gradient"/>
    <linearGradient id="linear-gradient-6" x1="0.5" y1="-2.746" x2="0.5" y2="4.41" xlink:href="#linear-gradient"/>
    <linearGradient id="linear-gradient-7" x1="0.5" y1="-1.001" x2="0.5" y2="2.308" xlink:href="#linear-gradient"/>
  </defs>
  <g id="Group_2030" data-name="Group 2030" transform="translate(-845.26 -737.865)">
    <path id="Path_9281" data-name="Path 9281" d="M891.26,737.865a46,46,0,1,0,46,46A46.053,46.053,0,0,0,891.26,737.865Zm0,88a42,42,0,1,1,42-42A42.047,42.047,0,0,1,891.26,825.865Z" fill="url(#linear-gradient)"/>
    <path id="Path_9282" data-name="Path 9282" d="M882.658,773.2a6.475,6.475,0,1,0-6.475,6.475A6.483,6.483,0,0,0,882.658,773.2Zm-6.475,2.475a2.475,2.475,0,1,1,2.475-2.475A2.478,2.478,0,0,1,876.183,775.675Z" fill="url(#linear-gradient-2)"/>
    <path id="Path_9283" data-name="Path 9283" d="M880.794,789.64v-1.435a15.5,15.5,0,0,0,2.534-1.027l1,1a2,2,0,0,0,2.828,0l3.875-3.875a2,2,0,0,0,0-2.828l-.958-.959a15.4,15.4,0,0,0,1.076-2.575h1.346a2,2,0,0,0,2-2v-5.48a2,2,0,0,0-2-2h-1.345a15.509,15.509,0,0,0-1.077-2.574l.959-.959a2,2,0,0,0,0-2.828l-3.875-3.875a2,2,0,0,0-2.828,0l-1,1a15.5,15.5,0,0,0-2.534-1.028V756.76a2,2,0,0,0-2-2h-5.48a2,2,0,0,0-2,2v1.512a15.571,15.571,0,0,0-2.455,1.04l-1.088-1.088a2,2,0,0,0-2.828,0l-3.875,3.875a2,2,0,0,0,0,2.828l1.129,1.128a15.525,15.525,0,0,0-.988,2.405h-1.6a2,2,0,0,0-2,2v5.48a2,2,0,0,0,2,2h1.6a15.585,15.585,0,0,0,.989,2.4l-1.129,1.129a2,2,0,0,0,0,2.828l3.875,3.875a2,2,0,0,0,2.828,0l1.089-1.088a15.512,15.512,0,0,0,2.454,1.038v1.513a2,2,0,0,0,2,2h5.48A2,2,0,0,0,880.794,789.64Zm-4-2h-1.48V786.6a2,2,0,0,0-1.622-1.962,11.6,11.6,0,0,1-4.037-1.718l-.007,0a1.966,1.966,0,0,0-.3-.162c-.016-.007-.031-.018-.047-.025a2,2,0,0,0-.374-.111c-.047-.009-.094-.008-.141-.014a1.976,1.976,0,0,0-.243-.023c-.07,0-.14.013-.21.02s-.115.006-.172.017a2,2,0,0,0-1.034.553l-.766.766-1.046-1.047.783-.783.014-.014h0l0-.005a1.945,1.945,0,0,0,.246-.3c.039-.058.066-.121.1-.182s.06-.1.082-.157a1.985,1.985,0,0,0,.081-.258c.009-.036.024-.071.031-.107a1.833,1.833,0,0,0,.032-.285c0-.032.009-.064.01-.1a2.079,2.079,0,0,0-.026-.314c0-.022,0-.046-.006-.068a1.98,1.98,0,0,0-.306-.755,11.594,11.594,0,0,1-1.643-4l0-.011a2,2,0,0,0-1.961-1.609H861.6v-1.48h1.144a1.928,1.928,0,0,0,.373-.038c.045-.008.086-.023.129-.034a2.116,2.116,0,0,0,.222-.069c.049-.019.095-.042.142-.065.063-.03.124-.063.184-.1.044-.028.086-.057.128-.088a1.93,1.93,0,0,0,.164-.135c.037-.034.073-.066.107-.1a2.023,2.023,0,0,0,.144-.175c.027-.036.056-.071.081-.11a1.8,1.8,0,0,0,.115-.212c.019-.039.042-.075.058-.115a2.009,2.009,0,0,0,.087-.279c.007-.028.018-.053.024-.081h0a11.611,11.611,0,0,1,1.66-4.042,1.872,1.872,0,0,0,.089-.173,1.805,1.805,0,0,0,.091-.174,2.074,2.074,0,0,0,.071-.241c.012-.044.029-.086.038-.131a2.334,2.334,0,0,0,.024-.251c0-.045.011-.089.01-.134a1.89,1.89,0,0,0-.021-.224c-.006-.054-.007-.107-.018-.16s-.038-.131-.058-.2-.031-.117-.054-.174a2.16,2.16,0,0,0-.1-.2c-.027-.049-.048-.1-.079-.147a2.033,2.033,0,0,0-.192-.235c-.021-.023-.036-.049-.059-.071l0-.005h0l-.788-.789,1.046-1.047.773.772c.017.017.038.029.055.046.033.03.068.055.1.083a1.927,1.927,0,0,0,.279.193c.034.019.067.037.1.054a1.949,1.949,0,0,0,.353.132c.021.006.042.014.064.019a2.009,2.009,0,0,0,.995-.023l.063-.019a1.97,1.97,0,0,0,.53-.253,11.566,11.566,0,0,1,4.016-1.7,2,2,0,0,0,1.623-1.962V758.76h1.48v.991a2,2,0,0,0,1.624,1.962,11.6,11.6,0,0,1,4.117,1.661,1.967,1.967,0,0,0,.529.249l.065.019a2,2,0,0,0,1,.017l.036-.011a1.944,1.944,0,0,0,.392-.149l.072-.038a2.006,2.006,0,0,0,.327-.229c.02-.017.042-.032.061-.05s.039-.029.056-.046l.67-.67,1.047,1.047-.618.618a1.991,1.991,0,0,0-.42,2.271,1.932,1.932,0,0,0,.148.276v0a11.559,11.559,0,0,1,1.749,4.176h0c.006.028.018.053.025.081a1.919,1.919,0,0,0,.086.278c.017.041.039.078.059.118a1.913,1.913,0,0,0,.114.209,1.318,1.318,0,0,0,.084.113,1.8,1.8,0,0,0,.14.171c.036.038.073.072.111.107s.1.089.158.129a1.649,1.649,0,0,0,.137.093c.055.034.112.064.17.093s.1.05.156.071a1.887,1.887,0,0,0,.2.061c.051.014.1.031.152.041a2.018,2.018,0,0,0,.312.031c.02,0,.038.006.058.006h.886v1.48h-.871a2,2,0,0,0-1.974,1.6,11.573,11.573,0,0,1-1.748,4.176,2,2,0,0,0,.247,2.529l0,.005.637.637-1.047,1.047-.655-.655a1.924,1.924,0,0,0-.321-.265c-.017-.011-.036-.018-.054-.029a1.968,1.968,0,0,0-.291-.153c-.024-.01-.049-.014-.073-.023a1.949,1.949,0,0,0-.3-.089l-.039,0a1.981,1.981,0,0,0-1.44.29,11.609,11.609,0,0,1-4.152,1.681h0a2,2,0,0,0-1.562,1.5c0,.017-.012.033-.016.05-.012.06-.013.124-.02.186s-.021.141-.022.214v1Z" fill="url(#linear-gradient-3)"/>
    <path id="Path_9284" data-name="Path 9284" d="M892.588,798.973a6.475,6.475,0,1,0,6.474,6.475A6.483,6.483,0,0,0,892.588,798.973Zm0,8.95a2.475,2.475,0,1,1,2.474-2.475A2.477,2.477,0,0,1,892.588,807.923Z" fill="url(#linear-gradient-4)"/>
    <path id="Path_9285" data-name="Path 9285" d="M906.324,802.574a2,2,0,0,0-.2-1.517l-3.013-5.218a2,2,0,0,0-2.733-.732l-.652.377a10.2,10.2,0,0,0-2.221-1.316v-.72a2,2,0,0,0-2-2h-6.025a2,2,0,0,0-2,2v.815a12.45,12.45,0,0,0-2.148,1.262l-.725-.419a2,2,0,0,0-2.732.733l-3.013,5.218a2,2,0,0,0,.732,2.732l.76.439c-.04.4-.067.812-.067,1.22s.027.815.067,1.22l-.759.438a2,2,0,0,0-.733,2.733l3.013,5.218a2,2,0,0,0,2.732.732l.724-.418a12.49,12.49,0,0,0,2.149,1.263v.814a2,2,0,0,0,2,2h6.025a2,2,0,0,0,2-2v-.734a12.368,12.368,0,0,0,2.259-1.28l.615.355a2,2,0,0,0,2.732-.732l3.013-5.218a2,2,0,0,0-.733-2.733l-.579-.334a12.456,12.456,0,0,0,.075-1.324,7.387,7.387,0,0,0-.108-1.3l.613-.354A2,2,0,0,0,906.324,802.574Zm-5.676,8.75-.191-.11a2,2,0,0,0-2.732.732l0,.009a8.315,8.315,0,0,1-2.438,1.333,1.994,1.994,0,0,0-1.777,1.978v.182h-2.025v-.22a2,2,0,0,0-1.67-1.967,8.336,8.336,0,0,1-2.91-1.767c-.014-.013-.031-.022-.045-.035a2.037,2.037,0,0,0-.235-.18l-.094-.058a1.919,1.919,0,0,0-.246-.12c-.037-.015-.074-.029-.112-.042a2.014,2.014,0,0,0-.257-.068c-.038-.007-.076-.014-.115-.019a2,2,0,0,0-.268-.017c-.038,0-.075,0-.113,0a2.2,2.2,0,0,0-.266.034c-.04.008-.08.017-.119.027a1.894,1.894,0,0,0-.242.08c-.047.019-.092.039-.137.061s-.082.032-.121.055l-.191.11-1.012-1.753h0a2,2,0,0,0,1.163-2.276,8.414,8.414,0,0,1,0-3.683,1.994,1.994,0,0,0-.947-2.158c-.009-.006-.016-.013-.025-.018l-.192-.111,1.013-1.753.029.017a2,2,0,0,0,2.525-.179,8.313,8.313,0,0,1,2.917-1.773,2,2,0,0,0,1.67-1.967v-.221h2.025v.183a1.993,1.993,0,0,0,1.788,1.978,6.7,6.7,0,0,1,2.787,1.742c.031.031.068.052.1.081.053.046.1.091.161.131s.109.069.165.1.112.063.17.09.122.047.183.068.121.039.183.054.122.022.184.031.131.016.2.019c.021,0,.042.006.064.006.037,0,.074-.009.112-.011a2.055,2.055,0,0,0,.208-.02c.061-.01.121-.026.181-.041a1.9,1.9,0,0,0,.19-.057,1.924,1.924,0,0,0,.2-.089c.037-.018.077-.03.113-.051l.158-.091,1.013,1.753-.192.111c-.039.022-.07.052-.107.077a2.09,2.09,0,0,0-.18.129c-.048.041-.09.086-.134.13s-.093.094-.134.146a1.909,1.909,0,0,0-.112.16c-.035.053-.069.1-.1.161s-.053.116-.078.176-.049.119-.067.181-.03.121-.042.182-.026.129-.033.2,0,.13,0,.2,0,.125,0,.189a2.051,2.051,0,0,0,.037.217c.009.043.011.087.023.13l.106.372a4.05,4.05,0,0,1,.239,1.372,8.446,8.446,0,0,1-.11,1.29l-.008.011a2,2,0,0,0,.732,2.731l.158.091Z" fill="url(#linear-gradient-5)"/>
    <path id="Path_9286" data-name="Path 9286" d="M911.482,772.559a6.474,6.474,0,1,0,6.475,6.474A6.482,6.482,0,0,0,911.482,772.559Zm0,8.949a2.474,2.474,0,1,1,2.475-2.475A2.478,2.478,0,0,1,911.482,781.508Z" fill="url(#linear-gradient-6)"/>
    <path id="Path_9287" data-name="Path 9287" d="M925.218,781.906a2,2,0,0,0-.932-1.215l-.579-.334a12.456,12.456,0,0,0,.075-1.324,7.381,7.381,0,0,0-.108-1.3l.613-.354a2,2,0,0,0,.732-2.732l-3.013-5.218a2,2,0,0,0-2.732-.733l-.653.378a10.163,10.163,0,0,0-2.221-1.316v-.72a2,2,0,0,0-2-2h-6.025a2,2,0,0,0-2,2v.815a12.452,12.452,0,0,0-2.148,1.262l-.725-.419a2,2,0,0,0-2.732.733l-3.012,5.218a2,2,0,0,0,.732,2.732l.759.439c-.039.405-.067.812-.067,1.22s.028.815.068,1.22l-.76.438a2,2,0,0,0-.732,2.733l3.012,5.218a2,2,0,0,0,2.732.732l.725-.418a12.414,12.414,0,0,0,2.148,1.262v.815a2,2,0,0,0,2,2H914.4a2,2,0,0,0,2-2V790.3a12.366,12.366,0,0,0,2.259-1.28l.615.355a2,2,0,0,0,1,.268,2.006,2.006,0,0,0,1.732-1l3.013-5.218A2,2,0,0,0,925.218,781.906Zm-5.676,3-.191-.11a2,2,0,0,0-2.732.732l0,.009a8.334,8.334,0,0,1-2.438,1.333,1.993,1.993,0,0,0-1.777,1.978v.182h-2.025v-.22a2,2,0,0,0-1.669-1.967,8.35,8.35,0,0,1-2.911-1.767c-.015-.014-.033-.024-.049-.038a1.909,1.909,0,0,0-.228-.175c-.033-.022-.065-.042-.1-.061a2.078,2.078,0,0,0-.242-.118c-.038-.016-.076-.03-.115-.043a1.885,1.885,0,0,0-.255-.068c-.039-.007-.076-.014-.115-.019a2.041,2.041,0,0,0-.271-.018q-.054,0-.108,0a1.914,1.914,0,0,0-.271.035c-.039.007-.076.016-.113.025a2.017,2.017,0,0,0-.249.082c-.044.018-.087.038-.13.058s-.084.033-.125.057l-.191.11-1.012-1.753h0a2,2,0,0,0,1.163-2.276,8.413,8.413,0,0,1,0-3.683,1.994,1.994,0,0,0-.945-2.157.267.267,0,0,0-.027-.019l-.191-.111,1.012-1.753.031.018a2,2,0,0,0,2.523-.179,8.327,8.327,0,0,1,2.918-1.774,2,2,0,0,0,1.669-1.967v-.221H912.4v.183a1.993,1.993,0,0,0,1.788,1.978,6.7,6.7,0,0,1,2.787,1.742c.03.029.065.05.1.078a2.126,2.126,0,0,0,.166.135c.052.036.106.067.16.1s.114.064.174.091.121.047.182.068.12.039.181.053a1.743,1.743,0,0,0,.189.032c.064.008.128.016.193.018.022,0,.044.007.067.007.039,0,.077-.009.116-.012a1.984,1.984,0,0,0,.2-.019c.062-.01.124-.026.185-.042a1.754,1.754,0,0,0,.187-.056,1.725,1.725,0,0,0,.191-.086c.039-.019.08-.031.119-.053l.158-.092,1.013,1.753-.192.111c-.039.022-.07.052-.107.077a2.1,2.1,0,0,0-.18.129c-.048.041-.09.086-.133.13a1.851,1.851,0,0,0-.135.146c-.041.051-.076.106-.112.16s-.069.105-.1.161-.053.116-.078.176a1.846,1.846,0,0,0-.067.181c-.018.06-.03.121-.042.182s-.026.129-.033.2-.005.13-.005.2,0,.125.005.188a2.01,2.01,0,0,0,.037.218c.01.043.011.087.023.13l.106.372a4.051,4.051,0,0,1,.239,1.372,8.423,8.423,0,0,1-.11,1.289l-.008.011a2,2,0,0,0,.733,2.732l.158.091Z" fill="url(#linear-gradient-7)"/>
  </g>
</svg>
