<svg xmlns="http://www.w3.org/2000/svg" width="24" height="18" viewBox="0 0 24 18">
  <g id="Group_1321" data-name="Group 1321" transform="translate(0 0)">
    <g id="Group_1299" data-name="Group 1299">
      <path id="Path_2341" data-name="Path 2341" d="M18.475,10.8,15.8,9l2.68-1.8L21.19,9Zm5.078-.964a1,1,0,0,0,0-1.668l-4.529-3a1,1,0,0,0-1.11,0l-4.471,3a1,1,0,0,0,0,1.66l4.471,3a1,1,0,0,0,1.11,0Z" fill-rule="evenodd"/>
      <path id="Path_2342" data-name="Path 2342" d="M5.526,10.8,2.811,9,5.526,7.2,8.206,9Zm5.032-.968a1,1,0,0,0,0-1.66l-4.471-3a1,1,0,0,0-1.11,0l-4.529,3a1,1,0,0,0,0,1.668l4.529,3a1,1,0,0,0,1.11,0Z" fill-rule="evenodd"/>
      <path id="Path_2343" data-name="Path 2343" d="M12,5.8,9.282,4,12,2.2,14.676,4Zm5.031-.968a1,1,0,0,0,0-1.66l-4.471-3a1,1,0,0,0-1.109,0l-4.529,3a1,1,0,0,0,0,1.668l4.529,3a1,1,0,0,0,1.109,0Z" fill-rule="evenodd"/>
      <path id="Path_2344" data-name="Path 2344" d="M12,15.8,9.282,14,12,12.2,14.676,14Zm5.031-.968a1,1,0,0,0,0-1.66l-4.471-3a1,1,0,0,0-1.109,0l-4.529,3a1,1,0,0,0,0,1.668l4.529,3a1,1,0,0,0,1.109,0Z" fill-rule="evenodd"/>
    </g>
  </g>
</svg>
