<svg xmlns="http://www.w3.org/2000/svg" xmlns:xlink="http://www.w3.org/1999/xlink" width="158.902" height="139" viewBox="0 0 158.902 139">
  <defs>
    <linearGradient id="linear-gradient" x1="0.5" y1="-0.023" x2="0.5" y2="6.986" gradientUnits="objectBoundingBox">
      <stop offset="0" stop-color="#100699"/>
      <stop offset="1" stop-color="#328f8c"/>
    </linearGradient>
    <linearGradient id="linear-gradient-3" x1="0.5" y1="-5.882" x2="0.5" y2="1.127" xlink:href="#linear-gradient"/>
    <linearGradient id="linear-gradient-5" x1="0.5" y1="-3.819" x2="0.5" y2="3.189" xlink:href="#linear-gradient"/>
    <linearGradient id="linear-gradient-6" x1="0.5" y1="-2.101" x2="0.5" y2="4.907" xlink:href="#linear-gradient"/>
    <linearGradient id="linear-gradient-7" x1="0.5" y1="-1.026" x2="0.5" y2="1.991" xlink:href="#linear-gradient"/>
    <linearGradient id="linear-gradient-8" x1="0.5" y1="-0.916" x2="0.5" y2="5.924" xlink:href="#linear-gradient"/>
    <linearGradient id="linear-gradient-9" x1="0.5" y1="-1.146" x2="0.5" y2="6.365" xlink:href="#linear-gradient"/>
    <linearGradient id="linear-gradient-10" x1="0.5" y1="-3.983" x2="0.5" y2="5.255" xlink:href="#linear-gradient"/>
    <linearGradient id="linear-gradient-11" x1="0.5" y1="-5.202" x2="0.5" y2="9.367" xlink:href="#linear-gradient"/>
    <linearGradient id="linear-gradient-12" x1="0.5" y1="-3.337" x2="0.5" y2="2.075" xlink:href="#linear-gradient"/>
    <linearGradient id="linear-gradient-13" x1="0.5" y1="-4.1" x2="0.5" y2="1.416" xlink:href="#linear-gradient"/>
  </defs>
  <g id="Group_2028" data-name="Group 2028" transform="translate(-866.662 -317.456)">
    <path id="Path_9264" data-name="Path 9264" d="M986.189,337.721a10.133,10.133,0,1,0-10.133-10.132A10.143,10.143,0,0,0,986.189,337.721Zm0-16.265a6.133,6.133,0,1,1-6.133,6.133A6.139,6.139,0,0,1,986.189,321.456Z" fill="url(#linear-gradient)"/>
    <path id="Path_9265" data-name="Path 9265" d="M906.6,337.721a10.133,10.133,0,1,0-10.132-10.132A10.143,10.143,0,0,0,906.6,337.721Zm0-16.265a6.133,6.133,0,1,1-6.132,6.133A6.14,6.14,0,0,1,906.6,321.456Z" fill="url(#linear-gradient)"/>
    <path id="Path_9266" data-name="Path 9266" d="M986.189,436.191a10.132,10.132,0,1,0,10.132,10.133A10.145,10.145,0,0,0,986.189,436.191Zm0,16.265a6.132,6.132,0,1,1,6.132-6.132A6.139,6.139,0,0,1,986.189,452.456Z" fill="url(#linear-gradient-3)"/>
    <path id="Path_9267" data-name="Path 9267" d="M906.6,436.191a10.132,10.132,0,1,0,10.133,10.133A10.145,10.145,0,0,0,906.6,436.191Zm0,16.265a6.132,6.132,0,1,1,6.133-6.132A6.139,6.139,0,0,1,906.6,452.456Z" fill="url(#linear-gradient-3)"/>
    <path id="Path_9268" data-name="Path 9268" d="M1015.432,394.395a10.133,10.133,0,1,0,10.132,10.133A10.144,10.144,0,0,0,1015.432,394.395Zm0,16.265a6.133,6.133,0,1,1,6.132-6.132A6.139,6.139,0,0,1,1015.432,410.66Z" fill="url(#linear-gradient-5)"/>
    <path id="Path_9269" data-name="Path 9269" d="M876.794,359.58a10.133,10.133,0,1,0,10.133,10.132A10.144,10.144,0,0,0,876.794,359.58Zm0,16.265a6.133,6.133,0,1,1,6.133-6.133A6.139,6.139,0,0,1,876.794,375.845Z" fill="url(#linear-gradient-6)"/>
    <path id="Path_9270" data-name="Path 9270" d="M965.514,409.434v-25.5A2.938,2.938,0,0,0,962.579,381H938.77V369.422a.115.115,0,0,1,.115-.116h17.082a.116.116,0,0,1,.116.116V371.8a2,2,0,0,0,4,0v-2.379a4.12,4.12,0,0,0-4.116-4.116H938.886a4.12,4.12,0,0,0-4.115,4.116V381h-2.495a2.938,2.938,0,0,0-2.935,2.934v25.5a2.939,2.939,0,0,0,2.935,2.935h30.3A2.939,2.939,0,0,0,965.514,409.434Zm-4-1.065H933.341V385h28.173Z" fill="url(#linear-gradient-7)"/>
    <path id="Path_9271" data-name="Path 9271" d="M934.614,354.781a2,2,0,0,0,4,0v-8.687a2,2,0,0,0-1.033-1.751l-14.633-8.076a2,2,0,1,0-1.933,3.5l13.6,7.506Z" fill="url(#linear-gradient-8)"/>
    <path id="Path_9272" data-name="Path 9272" d="M961,357.582a2,2,0,0,0,1.528-.708l12.614-14.91a2,2,0,1,0-3.054-2.584l-12.613,14.91A2,2,0,0,0,961,357.582Z" fill="url(#linear-gradient-9)"/>
    <path id="Path_9273" data-name="Path 9273" d="M994.9,378.978a2,2,0,0,0-1.557-.745H975.583a2,2,0,0,0,0,4h16.8l8.566,10.629a2,2,0,0,0,3.115-2.51Z" fill="url(#linear-gradient-10)"/>
    <path id="Path_9274" data-name="Path 9274" d="M916.343,368.637a2,2,0,0,0-1.687-.925H895.138a2,2,0,0,0,0,4H913.56l3.075,4.823a2,2,0,0,0,3.373-2.151Z" fill="url(#linear-gradient-11)"/>
    <path id="Path_9275" data-name="Path 9275" d="M916.608,404.716l-10.769,4.471a2,2,0,0,0-1.234,1.847v17.773a2,2,0,0,0,4,0V412.369l9.536-3.959a2,2,0,1,0-1.533-3.694Z" fill="url(#linear-gradient-12)"/>
    <path id="Path_9276" data-name="Path 9276" d="M967.924,444.324H956.3V424.572a2,2,0,0,0-4,0v21.752a2,2,0,0,0,2,2h13.622a2,2,0,0,0,0-4Z" fill="url(#linear-gradient-13)"/>
  </g>
</svg>
