<svg xmlns="http://www.w3.org/2000/svg" width="30.061" height="15.746" viewBox="0 0 30.061 15.746">
  <g id="vector_icon" transform="translate(-8 -28)">
    <path id="Path_2320" data-name="Path 2320" d="M10.505,28a2.505,2.505,0,1,0,2.505,2.505A2.49,2.49,0,0,0,10.505,28Zm25.051,0a2.505,2.505,0,1,0,2.505,2.505A2.49,2.49,0,0,0,35.556,28Zm-14.672.358v4.294h4.294V28.358Zm-7.247,1.431a3.111,3.111,0,0,1,.089.716,3.215,3.215,0,0,1-.089.716h4.876a7.855,7.855,0,0,0-3.355,6.442v1.074h1.431V37.662a6.4,6.4,0,0,1,3.579-5.771v-2.1Zm12.257,0v2.091a6.421,6.421,0,0,1,3.579,5.782v1.074H30.9V37.662a7.853,7.853,0,0,0-3.355-6.442h4.876a3.215,3.215,0,0,1-.089-.716,3.111,3.111,0,0,1,.089-.716ZM13.726,39.452v4.294H18.02V39.452Zm14.315,0v4.294h4.294V39.452Z" fill="#333"/>
  </g>
</svg>
