<svg xmlns="http://www.w3.org/2000/svg" xmlns:xlink="http://www.w3.org/1999/xlink" width="459.45" height="109.5" viewBox="0 0 459.45 109.5">
  <defs>
    <linearGradient id="linear-gradient" x1="0.5" x2="0.5" y2="1" gradientUnits="objectBoundingBox">
      <stop offset="0" stop-color="#100699"/>
      <stop offset="1" stop-color="#328f8c"/>
    </linearGradient>
  </defs>
  <path id="Path_8709" data-name="Path 8709" d="M-191.625-105l-41.1,66.9v17.4h52.2V0h19.8V-20.7h17.1v-18h-17.1V-105Zm9.3,17.1h1.8v49.2h-31.5Zm42.45,3c0,13.05,10.35,22.5,23.25,22.5s23.25-9.45,23.25-22.5-10.35-22.5-23.25-22.5S-139.875-97.95-139.875-84.9Zm15,0a7.92,7.92,0,0,1,8.25-8.1,7.92,7.92,0,0,1,8.25,8.1,7.92,7.92,0,0,1-8.25,8.1A7.92,7.92,0,0,1-124.875-84.9Zm45.6,20.1v24.6c0,27.6,16.2,42.3,40.2,42.3s40.2-14.7,40.2-42.3V-64.8c0-26.7-16.2-42.3-40.2-42.3S-79.275-91.5-79.275-64.8Zm19.8-.9c0-13.95,7.5-23.7,20.4-23.7,12.45,0,20.4,9.15,20.4,23.7v26.4c0,14.25-6.3,23.7-20.4,23.7-13.65,0-20.4-8.85-20.4-23.7V-65.7Zm75-27.75c0,7.65,5.85,13.05,13.95,13.05h2.25v1.8c0,4.65-2.7,7.8-7.65,7.8h-6.3v10.2h5.55c13.95,0,20.1-8.55,20.1-20.1V-92.85c0-8.85-5.85-14.4-13.95-14.4S15.525-101.7,15.525-93.45ZM95.325-105l-41.1,66.9v17.4h52.2V0h19.8V-20.7h17.1v-18h-17.1V-105Zm9.3,17.1h1.8v49.2h-31.5Zm49.5-5.55c0,7.65,5.85,13.05,13.95,13.05h2.25v1.8c0,4.65-2.7,7.8-7.65,7.8h-6.3v10.2h5.55c13.95,0,20.1-8.55,20.1-20.1V-92.85c0-8.85-5.85-14.4-13.95-14.4S154.125-101.7,154.125-93.45Zm44.7,0c0,7.65,5.85,13.05,13.95,13.05h2.25v1.8c0,4.65-2.7,7.8-7.65,7.8h-6.3v10.2h5.55c13.95,0,20.1-8.55,20.1-20.1V-92.85c0-8.85-5.85-14.4-13.95-14.4S198.825-101.7,198.825-93.45Z" transform="translate(232.725 107.4)" fill="url(#linear-gradient)"/>
</svg>
