<svg id="Logo" xmlns="http://www.w3.org/2000/svg" width="176.917" height="65.882" viewBox="0 0 176.917 65.882">
  <path id="Path_1" data-name="Path 1" d="M5508.51,5378.126v-11.58h7.866v11.58h10.3v6.4h-10.3v20.427q0,2.156,2,2.157h7.221v6.473h-9.937a6.912,6.912,0,0,1-5.184-2.013,7.285,7.285,0,0,1-1.969-5.323v-21.721H5499v-6.4Z" transform="translate(-5499 -5362.087)" fill="#190aff"/>
  <path id="Path_2" data-name="Path 2" d="M5518.518,5381.151a16.428,16.428,0,0,1,6.543-6.546,19.351,19.351,0,0,1,9.476-2.3,19.15,19.15,0,0,1,9.439,2.3,16.48,16.48,0,0,1,6.506,6.546,21.9,21.9,0,0,1,0,19.779,16.457,16.457,0,0,1-6.506,6.544,19.119,19.119,0,0,1-9.439,2.3,19.32,19.32,0,0,1-9.476-2.3,16.349,16.349,0,0,1-6.543-6.58,21.831,21.831,0,0,1,0-19.743Zm8.4,18.52a10.573,10.573,0,0,0,15.158,0q2.9-3.2,2.9-8.665t-2.9-8.632a10.614,10.614,0,0,0-15.158.037,12.319,12.319,0,0,0-2.9,8.595Q5524.023,5396.473,5526.921,5399.671Z" transform="translate(-5484.837 -5357.272)" fill="#190aff"/>
  <path id="Path_3" data-name="Path 3" d="M5516.011,5365.943a6.223,6.223,0,0,1,4.515-1.826,6.322,6.322,0,0,1,4.565,1.753,6.061,6.061,0,0,1,1.813,4.566,6.092,6.092,0,0,1-3.238,5.528,6.539,6.539,0,0,1-3.141.79,6.243,6.243,0,0,1-3.141-.839,6.454,6.454,0,0,1-2.356-2.3,6.276,6.276,0,0,1,.982-7.677Zm1.692,7.356a4.27,4.27,0,1,0-1.1-2.863A3.857,3.857,0,0,0,5517.7,5373.3Z" transform="translate(-5453.64 -5364.117)" fill="#190aff"/>
  <path id="Path_4" data-name="Path 4" d="M5539.328,5364.117l-2.232,11h-1.458l.456-11Z" transform="translate(-5406.692 -5364.117)" fill="#190aff"/>
  <path id="Path_5" data-name="Path 5" d="M5561.367,5364.117l-2.23,11h-1.459l.454-11Zm5.876,0-2.231,11h-1.5l.456-11Z" transform="translate(-5390.326 -5364.117)" fill="#190aff"/>
  <path id="Path_6" data-name="Path 6" d="M5547.019,5373.312v5.177h.714q4.077-6.182,12.229-6.183a14.915,14.915,0,0,1,8.045,2.3,16.545,16.545,0,0,1,5.9,6.546,23.079,23.079,0,0,1,0,19.743,16.47,16.47,0,0,1-5.9,6.58,14.892,14.892,0,0,1-8.045,2.3q-8.152,0-12.087-6.042h-.713v19.42h-7.795v-49.843Zm18.306,26.432q2.93-3.2,2.931-8.737t-2.931-8.74a10.663,10.663,0,0,0-15.269.037,14.251,14.251,0,0,0,0,17.405,10.665,10.665,0,0,0,15.269.035Z" transform="translate(-5465.679 -5357.272)" fill="#190aff"/>
  <path id="Path_7" data-name="Path 7" d="M5570.94,5408.312h-7.795v-35.458h7.795Z" transform="translate(-5446.052 -5356.814)" fill="#190aff"/>
  <path id="Path_8" data-name="Path 8" d="M5573.417,5381.151a16.432,16.432,0,0,1,6.542-6.546,19.351,19.351,0,0,1,9.476-2.3,19.137,19.137,0,0,1,9.438,2.3,16.472,16.472,0,0,1,6.508,6.546,21.9,21.9,0,0,1,0,19.779,16.449,16.449,0,0,1-6.508,6.544,19.106,19.106,0,0,1-9.437,2.3,19.32,19.32,0,0,1-9.476-2.3,16.353,16.353,0,0,1-6.542-6.58,21.823,21.823,0,0,1,0-19.743Zm8.4,18.52a10.573,10.573,0,0,0,15.158,0q2.9-3.2,2.9-8.665t-2.9-8.632a10.614,10.614,0,0,0-15.158.037,12.318,12.318,0,0,0-2.9,8.595Q5578.923,5396.473,5581.82,5399.671Z" transform="translate(-5439.521 -5357.272)" fill="#190aff"/>
  <path id="Path_1-2" data-name="Path 1" d="M5508.51,5378.126v-11.58h7.866v11.58h10.3v6.4h-10.3v20.427q0,2.156,2,2.157h7.221v6.473h-9.937a6.912,6.912,0,0,1-5.184-2.013,7.285,7.285,0,0,1-1.969-5.323v-21.721H5499v-6.4Z" transform="translate(-5499 -5362.087)" fill="#190aff"/>
  <path id="Path_2-2" data-name="Path 2" d="M5518.518,5381.151a16.428,16.428,0,0,1,6.543-6.546,19.351,19.351,0,0,1,9.476-2.3,19.15,19.15,0,0,1,9.439,2.3,16.48,16.48,0,0,1,6.506,6.546,21.9,21.9,0,0,1,0,19.779,16.457,16.457,0,0,1-6.506,6.544,19.119,19.119,0,0,1-9.439,2.3,19.32,19.32,0,0,1-9.476-2.3,16.349,16.349,0,0,1-6.543-6.58,21.831,21.831,0,0,1,0-19.743Zm8.4,18.52a10.573,10.573,0,0,0,15.158,0q2.9-3.2,2.9-8.665t-2.9-8.632a10.614,10.614,0,0,0-15.158.037,12.319,12.319,0,0,0-2.9,8.595Q5524.023,5396.473,5526.921,5399.671Z" transform="translate(-5484.837 -5357.272)" fill="#190aff"/>
  <path id="Path_3-2" data-name="Path 3" d="M5516.011,5365.943a6.223,6.223,0,0,1,4.515-1.826,6.322,6.322,0,0,1,4.565,1.753,6.061,6.061,0,0,1,1.813,4.566,6.092,6.092,0,0,1-3.238,5.528,6.539,6.539,0,0,1-3.141.79,6.243,6.243,0,0,1-3.141-.839,6.454,6.454,0,0,1-2.356-2.3,6.276,6.276,0,0,1,.982-7.677Zm1.692,7.356a4.27,4.27,0,1,0-1.1-2.863A3.857,3.857,0,0,0,5517.7,5373.3Z" transform="translate(-5453.64 -5364.117)" fill="#190aff"/>
  <path id="Path_4-2" data-name="Path 4" d="M5539.328,5364.117l-2.232,11h-1.458l.456-11Z" transform="translate(-5406.692 -5364.117)" fill="#190aff"/>
  <path id="Path_5-2" data-name="Path 5" d="M5561.367,5364.117l-2.23,11h-1.459l.454-11Zm5.876,0-2.231,11h-1.5l.456-11Z" transform="translate(-5390.326 -5364.117)" fill="#190aff"/>
  <path id="Path_6-2" data-name="Path 6" d="M5547.019,5373.312v5.177h.714q4.077-6.182,12.229-6.183a14.915,14.915,0,0,1,8.045,2.3,16.545,16.545,0,0,1,5.9,6.546,23.079,23.079,0,0,1,0,19.743,16.47,16.47,0,0,1-5.9,6.58,14.892,14.892,0,0,1-8.045,2.3q-8.152,0-12.087-6.042h-.713v19.42h-7.795v-49.843Zm18.306,26.432q2.93-3.2,2.931-8.737t-2.931-8.74a10.663,10.663,0,0,0-15.269.037,14.251,14.251,0,0,0,0,17.405,10.665,10.665,0,0,0,15.269.035Z" transform="translate(-5465.679 -5357.272)" fill="#190aff"/>
  <path id="Path_7-2" data-name="Path 7" d="M5570.94,5408.312h-7.795v-35.458h7.795Z" transform="translate(-5446.052 -5356.814)" fill="#190aff"/>
  <path id="Path_8-2" data-name="Path 8" d="M5573.417,5381.151a16.432,16.432,0,0,1,6.542-6.546,19.351,19.351,0,0,1,9.476-2.3,19.137,19.137,0,0,1,9.438,2.3,16.472,16.472,0,0,1,6.508,6.546,21.9,21.9,0,0,1,0,19.779,16.449,16.449,0,0,1-6.508,6.544,19.106,19.106,0,0,1-9.437,2.3,19.32,19.32,0,0,1-9.476-2.3,16.353,16.353,0,0,1-6.542-6.58,21.823,21.823,0,0,1,0-19.743Zm8.4,18.52a10.573,10.573,0,0,0,15.158,0q2.9-3.2,2.9-8.665t-2.9-8.632a10.614,10.614,0,0,0-15.158.037,12.318,12.318,0,0,0-2.9,8.595Q5578.923,5396.473,5581.82,5399.671Z" transform="translate(-5439.521 -5357.272)" fill="#190aff"/>
</svg>
