<svg xmlns="http://www.w3.org/2000/svg" width="96.917" height="35.883" viewBox="0 0 96.917 35.883">
  <g id="Logo" transform="translate(0)">
    <path id="Path_1" data-name="Path 1" d="M5504.21,5372.853v-6.307h4.309v6.307h5.641v3.487h-5.641v11.125q0,1.175,1.1,1.175h3.956v3.525h-5.444a3.8,3.8,0,0,1-2.84-1.1,3.955,3.955,0,0,1-1.078-2.9v-11.83H5499v-3.487Z" transform="translate(-5499 -5364.117)" fill="#333"/>
    <path id="Path_2" data-name="Path 2" d="M5517.451,5377.123a8.97,8.97,0,0,1,3.584-3.565,10.645,10.645,0,0,1,5.191-1.253,10.535,10.535,0,0,1,5.171,1.253,9,9,0,0,1,3.564,3.565,11.866,11.866,0,0,1,0,10.773,8.989,8.989,0,0,1-3.564,3.564,10.525,10.525,0,0,1-5.171,1.254,10.635,10.635,0,0,1-5.191-1.254,8.929,8.929,0,0,1-3.584-3.584,11.825,11.825,0,0,1,0-10.753Zm4.6,10.087a5.816,5.816,0,0,0,8.3,0,6.743,6.743,0,0,0,1.587-4.72,6.671,6.671,0,0,0-1.587-4.7,5.837,5.837,0,0,0-8.3.02,7.753,7.753,0,0,0,0,9.4Z" transform="translate(-5499 -5364.117)" fill="#333"/>
    <path id="Path_3" data-name="Path 3" d="M5515.167,5365.112a3.418,3.418,0,0,1,2.473-.995,3.472,3.472,0,0,1,2.5.955,3.291,3.291,0,0,1,.994,2.487,3.316,3.316,0,0,1-1.774,3.011,3.6,3.6,0,0,1-1.721.43,3.43,3.43,0,0,1-1.72-.457,3.529,3.529,0,0,1-1.291-1.25,3.4,3.4,0,0,1,.538-4.181Zm.927,4.006a2.315,2.315,0,0,0,3.092,0,2.313,2.313,0,0,0,0-3.119,2.318,2.318,0,0,0-3.092,0,2.315,2.315,0,0,0,0,3.119Z" transform="translate(-5481 -5364.117)" fill="#333"/>
    <path id="Path_4" data-name="Path 4" d="M5537.659,5364.117l-1.223,5.99h-.8l.25-5.99Z" transform="translate(-5465 -5364.117)" fill="#333"/>
    <path id="Path_5" data-name="Path 5" d="M5559.7,5364.117l-1.222,5.99h-.8l.249-5.99Zm3.219,0-1.222,5.99h-.824l.25-5.99Z" transform="translate(-5466 -5364.117)" fill="#333"/>
    <path id="Path_6" data-name="Path 6" d="M5543.559,5372.853v2.82h.391a7.5,7.5,0,0,1,6.7-3.368,8.2,8.2,0,0,1,4.407,1.253,9.03,9.03,0,0,1,3.231,3.565,12.5,12.5,0,0,1,0,10.753,8.991,8.991,0,0,1-3.231,3.584,8.2,8.2,0,0,1-4.407,1.254,7.361,7.361,0,0,1-6.621-3.291h-.391V5400h-4.27v-27.147Zm10.028,14.4a7.856,7.856,0,0,0,0-9.519,5.864,5.864,0,0,0-8.364.02,7.726,7.726,0,0,0,0,9.48,5.865,5.865,0,0,0,8.364.019Z" transform="translate(-5499 -5364.117)" fill="#333"/>
    <path id="Path_7" data-name="Path 7" d="M5567.415,5392.165h-4.27v-19.312h4.27Z" transform="translate(-5499 -5364.117)" fill="#333"/>
    <path id="Path_8" data-name="Path 8" d="M5572.35,5377.123a8.973,8.973,0,0,1,3.584-3.565,10.645,10.645,0,0,1,5.191-1.253,10.528,10.528,0,0,1,5.17,1.253,8.994,8.994,0,0,1,3.565,3.565,11.866,11.866,0,0,1,0,10.773,8.986,8.986,0,0,1-3.565,3.564,10.518,10.518,0,0,1-5.17,1.254,10.635,10.635,0,0,1-5.191-1.254,8.932,8.932,0,0,1-3.584-3.584,11.825,11.825,0,0,1,0-10.753Zm4.6,10.087a5.816,5.816,0,0,0,8.3,0,6.743,6.743,0,0,0,1.587-4.72,6.672,6.672,0,0,0-1.587-4.7,5.837,5.837,0,0,0-8.3.02,7.755,7.755,0,0,0,0,9.4Z" transform="translate(-5499 -5364.117)" fill="#333"/>
    <path id="Path_1-2" data-name="Path 1" d="M5504.21,5372.853v-6.307h4.309v6.307h5.641v3.487h-5.641v11.125q0,1.175,1.1,1.175h3.956v3.525h-5.444a3.8,3.8,0,0,1-2.84-1.1,3.955,3.955,0,0,1-1.078-2.9v-11.83H5499v-3.487Z" transform="translate(-5499 -5364.117)" fill="#333"/>
    <path id="Path_2-2" data-name="Path 2" d="M5517.451,5377.123a8.97,8.97,0,0,1,3.584-3.565,10.645,10.645,0,0,1,5.191-1.253,10.535,10.535,0,0,1,5.171,1.253,9,9,0,0,1,3.564,3.565,11.866,11.866,0,0,1,0,10.773,8.989,8.989,0,0,1-3.564,3.564,10.525,10.525,0,0,1-5.171,1.254,10.635,10.635,0,0,1-5.191-1.254,8.929,8.929,0,0,1-3.584-3.584,11.825,11.825,0,0,1,0-10.753Zm4.6,10.087a5.816,5.816,0,0,0,8.3,0,6.743,6.743,0,0,0,1.587-4.72,6.671,6.671,0,0,0-1.587-4.7,5.837,5.837,0,0,0-8.3.02,7.753,7.753,0,0,0,0,9.4Z" transform="translate(-5499 -5364.117)" fill="#333"/>
    <path id="Path_3-2" data-name="Path 3" d="M5515.167,5365.112a3.418,3.418,0,0,1,2.473-.995,3.472,3.472,0,0,1,2.5.955,3.291,3.291,0,0,1,.994,2.487,3.316,3.316,0,0,1-1.774,3.011,3.6,3.6,0,0,1-1.721.43,3.43,3.43,0,0,1-1.72-.457,3.529,3.529,0,0,1-1.291-1.25,3.4,3.4,0,0,1,.538-4.181Zm.927,4.006a2.315,2.315,0,0,0,3.092,0,2.313,2.313,0,0,0,0-3.119,2.318,2.318,0,0,0-3.092,0,2.315,2.315,0,0,0,0,3.119Z" transform="translate(-5481 -5364.117)" fill="#333"/>
    <path id="Path_4-2" data-name="Path 4" d="M5537.659,5364.117l-1.223,5.99h-.8l.25-5.99Z" transform="translate(-5465 -5364.117)" fill="#333"/>
    <path id="Path_5-2" data-name="Path 5" d="M5559.7,5364.117l-1.222,5.99h-.8l.249-5.99Zm3.219,0-1.222,5.99h-.824l.25-5.99Z" transform="translate(-5466 -5364.117)" fill="#333"/>
    <path id="Path_6-2" data-name="Path 6" d="M5543.559,5372.853v2.82h.391a7.5,7.5,0,0,1,6.7-3.368,8.2,8.2,0,0,1,4.407,1.253,9.03,9.03,0,0,1,3.231,3.565,12.5,12.5,0,0,1,0,10.753,8.991,8.991,0,0,1-3.231,3.584,8.2,8.2,0,0,1-4.407,1.254,7.361,7.361,0,0,1-6.621-3.291h-.391V5400h-4.27v-27.147Zm10.028,14.4a7.856,7.856,0,0,0,0-9.519,5.864,5.864,0,0,0-8.364.02,7.726,7.726,0,0,0,0,9.48,5.865,5.865,0,0,0,8.364.019Z" transform="translate(-5499 -5364.117)" fill="#333"/>
    <path id="Path_7-2" data-name="Path 7" d="M5567.415,5392.165h-4.27v-19.312h4.27Z" transform="translate(-5499 -5364.117)" fill="#333"/>
    <path id="Path_8-2" data-name="Path 8" d="M5572.35,5377.123a8.973,8.973,0,0,1,3.584-3.565,10.645,10.645,0,0,1,5.191-1.253,10.528,10.528,0,0,1,5.17,1.253,8.994,8.994,0,0,1,3.565,3.565,11.866,11.866,0,0,1,0,10.773,8.986,8.986,0,0,1-3.565,3.564,10.518,10.518,0,0,1-5.17,1.254,10.635,10.635,0,0,1-5.191-1.254,8.932,8.932,0,0,1-3.584-3.584,11.825,11.825,0,0,1,0-10.753Zm4.6,10.087a5.816,5.816,0,0,0,8.3,0,6.743,6.743,0,0,0,1.587-4.72,6.672,6.672,0,0,0-1.587-4.7,5.837,5.837,0,0,0-8.3.02,7.755,7.755,0,0,0,0,9.4Z" transform="translate(-5499 -5364.117)" fill="#333"/>
  </g>
</svg>
