<svg xmlns="http://www.w3.org/2000/svg" width="208.808" height="37.4" viewBox="0 0 208.808 37.4">
  <g id="Group_966" data-name="Group 966" transform="translate(-185 -127)">
    <path id="Path_8736" data-name="Path 8736" d="M6.768-8.4v1.26H4.14V0H2.76V-7.14H.132V-8.4ZM9.252-5.052h.12a1.967,1.967,0,0,1,1.9-.972,2.349,2.349,0,0,1,1.2.306,2.114,2.114,0,0,1,.822.864,2.754,2.754,0,0,1,.294,1.3V0h-1.32V-3.48a1.507,1.507,0,0,0-.36-1.1,1.383,1.383,0,0,0-1.032-.366,1.494,1.494,0,0,0-1.182.5,2.067,2.067,0,0,0-.438,1.41V0H7.944V-8.4H9.252Zm5.676,2.064a3.386,3.386,0,0,1,.378-1.62,2.712,2.712,0,0,1,1.056-1.1A3.036,3.036,0,0,1,17.9-6.1a2.959,2.959,0,0,1,1.5.372,2.567,2.567,0,0,1,1.008,1.056,3.352,3.352,0,0,1,.36,1.584v.54H16.284a1.6,1.6,0,0,0,.51,1.128,1.662,1.662,0,0,0,1.182.444,1.585,1.585,0,0,0,.978-.276,1.933,1.933,0,0,0,.582-.732l1.092.588a3.434,3.434,0,0,1-.978,1.1,2.806,2.806,0,0,1-1.7.456,3.076,3.076,0,0,1-1.578-.4A2.76,2.76,0,0,1,15.306-1.35,3.448,3.448,0,0,1,14.928-2.988Zm4.5-.576a1.521,1.521,0,0,0-.468-1.014,1.509,1.509,0,0,0-1.068-.378,1.57,1.57,0,0,0-1.092.378,1.592,1.592,0,0,0-.5,1.014ZM.444,6.84a3.335,3.335,0,0,1,.924-2.514,3.454,3.454,0,0,1,2.508-.894,3.26,3.26,0,0,1,2.358.8,2.876,2.876,0,0,1,.834,2.172V6.54H5.676V6.384A1.712,1.712,0,0,0,5.22,5.136a1.794,1.794,0,0,0-1.344-.468,1.96,1.96,0,0,0-1.494.576,2.192,2.192,0,0,0-.546,1.572V8.784a2.192,2.192,0,0,0,.546,1.572,1.96,1.96,0,0,0,1.494.576,1.914,1.914,0,0,0,1.392-.468,1.71,1.71,0,0,0,.48-1.284V9.024h-2.2V7.836H7.116V9.024a3.084,3.084,0,0,1-.852,2.31,3.269,3.269,0,0,1-2.388.834,3.45,3.45,0,0,1-2.514-.894,3.331,3.331,0,0,1-.918-2.5ZM8.232,9.012a3.386,3.386,0,0,1,.378-1.62,2.712,2.712,0,0,1,1.056-1.1,3.036,3.036,0,0,1,1.542-.39,2.959,2.959,0,0,1,1.5.372,2.567,2.567,0,0,1,1.008,1.056,3.352,3.352,0,0,1,.36,1.584v.54H9.588a1.6,1.6,0,0,0,.51,1.128,1.662,1.662,0,0,0,1.182.444,1.585,1.585,0,0,0,.978-.276,1.933,1.933,0,0,0,.582-.732l1.092.588a3.434,3.434,0,0,1-.978,1.1,2.806,2.806,0,0,1-1.7.456,3.076,3.076,0,0,1-1.578-.4A2.76,2.76,0,0,1,8.61,10.65,3.448,3.448,0,0,1,8.232,9.012Zm4.5-.576A1.447,1.447,0,0,0,11.2,7.044a1.57,1.57,0,0,0-1.092.378,1.592,1.592,0,0,0-.5,1.014Zm2.34.6a3.312,3.312,0,0,1,.4-1.644,2.747,2.747,0,0,1,1.1-1.092,3.258,3.258,0,0,1,1.59-.384A3.224,3.224,0,0,1,19.74,6.3a2.758,2.758,0,0,1,1.092,1.092,3.312,3.312,0,0,1,.4,1.644,3.337,3.337,0,0,1-.4,1.656,2.758,2.758,0,0,1-1.092,1.092,3.224,3.224,0,0,1-1.584.384,3.258,3.258,0,0,1-1.59-.384,2.737,2.737,0,0,1-1.1-1.1A3.346,3.346,0,0,1,15.072,9.036Zm1.32,0a2.067,2.067,0,0,0,.486,1.446,1.782,1.782,0,0,0,2.544,0,2.067,2.067,0,0,0,.486-1.446,2.044,2.044,0,0,0-.486-1.44,1.789,1.789,0,0,0-2.544.006A2.049,2.049,0,0,0,16.392,9.036ZM27.156,12v-.876h-.12a2.29,2.29,0,0,1-2.052,1.044,2.509,2.509,0,0,1-1.35-.384,2.756,2.756,0,0,1-.99-1.1,3.52,3.52,0,0,1-.372-1.65,3.484,3.484,0,0,1,.372-1.644,2.765,2.765,0,0,1,.99-1.092,2.509,2.509,0,0,1,1.35-.384,2.264,2.264,0,0,1,2.028,1h.12V3.6h1.32V12ZM25.368,7.044a1.665,1.665,0,0,0-1.284.534,2.069,2.069,0,0,0-.492,1.458,2.069,2.069,0,0,0,.492,1.458,1.665,1.665,0,0,0,1.284.534,1.684,1.684,0,0,0,1.29-.534,2.053,2.053,0,0,0,.5-1.458,2.053,2.053,0,0,0-.5-1.458A1.684,1.684,0,0,0,25.368,7.044Zm4.752.576a2.414,2.414,0,0,1,.888-1.236,2.815,2.815,0,0,1,1.716-.48,2.651,2.651,0,0,1,1.83.594,2.126,2.126,0,0,1,.666,1.674V12H33.96v-.744H33.8a1.752,1.752,0,0,1-1.716.912,2.373,2.373,0,0,1-1.56-.5,1.692,1.692,0,0,1-.612-1.38,1.624,1.624,0,0,1,.624-1.368,2.624,2.624,0,0,1,1.644-.48h1.752v-.36a1.068,1.068,0,0,0-.312-.8,1.251,1.251,0,0,0-.912-.306,1.418,1.418,0,0,0-.93.282,1.284,1.284,0,0,0-.438.774Zm1.116,2.628a.74.74,0,0,0,.288.612,1.287,1.287,0,0,0,.816.228,1.622,1.622,0,0,0,1.152-.414,1.445,1.445,0,0,0,.444-1.11V9.456H32.268a1.221,1.221,0,0,0-.756.21A.69.69,0,0,0,31.236,10.248Zm6.492-4.164V4.152h1.32V6.084h1.728V7.152H39.048V10.56q0,.36.336.36H40.6V12H38.928a1.165,1.165,0,0,1-.87-.336,1.213,1.213,0,0,1-.33-.888V7.152h-1.6V6.084ZM42.084,7.62a2.414,2.414,0,0,1,.888-1.236,2.815,2.815,0,0,1,1.716-.48,2.651,2.651,0,0,1,1.83.594,2.126,2.126,0,0,1,.666,1.674V12h-1.26v-.744h-.156a1.752,1.752,0,0,1-1.716.912,2.373,2.373,0,0,1-1.56-.5,1.692,1.692,0,0,1-.612-1.38A1.624,1.624,0,0,1,42.5,8.916a2.624,2.624,0,0,1,1.644-.48H45.9v-.36a1.068,1.068,0,0,0-.312-.8,1.251,1.251,0,0,0-.912-.306,1.418,1.418,0,0,0-.93.282,1.284,1.284,0,0,0-.438.774ZM43.2,10.248a.74.74,0,0,0,.288.612,1.287,1.287,0,0,0,.816.228,1.622,1.622,0,0,0,1.152-.414,1.445,1.445,0,0,0,.444-1.11V9.456H44.232a1.221,1.221,0,0,0-.756.21A.69.69,0,0,0,43.2,10.248ZM3.144,15.6l2.052,7h.12l2.064-7H9.768V24H8.412V17.04h-.12L6.24,24H4.284L2.22,17.04H2.1V24H.756V15.6Zm8.316,4.02a2.414,2.414,0,0,1,.888-1.236,2.815,2.815,0,0,1,1.716-.48,2.651,2.651,0,0,1,1.83.594,2.126,2.126,0,0,1,.666,1.674V24H15.3v-.744h-.156a1.752,1.752,0,0,1-1.716.912,2.373,2.373,0,0,1-1.56-.5,1.692,1.692,0,0,1-.612-1.38,1.624,1.624,0,0,1,.624-1.368,2.624,2.624,0,0,1,1.644-.48h1.752v-.36a1.068,1.068,0,0,0-.312-.8,1.251,1.251,0,0,0-.912-.306,1.418,1.418,0,0,0-.93.282,1.284,1.284,0,0,0-.438.774Zm1.116,2.628a.74.74,0,0,0,.288.612,1.287,1.287,0,0,0,.816.228,1.622,1.622,0,0,0,1.152-.414,1.445,1.445,0,0,0,.444-1.11v-.108H13.608a1.221,1.221,0,0,0-.756.21A.69.69,0,0,0,12.576,22.248ZM19.668,18.9a1.223,1.223,0,0,1,.54-.642,1.964,1.964,0,0,1,.948-.2h.684v1.116h-.912a1.407,1.407,0,0,0-.99.336,1.269,1.269,0,0,0-.366.984V24H18.264V18.084h1.284V18.9Zm9.348-.816L26.232,20.46,28.968,24h-1.62l-2.064-2.736-.96.828V24H23.016V15.6h1.308v4.884l2.736-2.4Zm.408,2.928a3.386,3.386,0,0,1,.378-1.62,2.712,2.712,0,0,1,1.056-1.1A3.036,3.036,0,0,1,32.4,17.9a2.959,2.959,0,0,1,1.5.372,2.567,2.567,0,0,1,1.008,1.056,3.352,3.352,0,0,1,.36,1.584v.54H30.78a1.6,1.6,0,0,0,.51,1.128,1.662,1.662,0,0,0,1.182.444,1.585,1.585,0,0,0,.978-.276,1.933,1.933,0,0,0,.582-.732l1.092.588a3.434,3.434,0,0,1-.978,1.1,2.806,2.806,0,0,1-1.7.456,3.076,3.076,0,0,1-1.578-.4A2.76,2.76,0,0,1,29.8,22.65,3.448,3.448,0,0,1,29.424,21.012Zm4.5-.576a1.447,1.447,0,0,0-1.536-1.392,1.57,1.57,0,0,0-1.092.378,1.592,1.592,0,0,0-.5,1.014ZM37.5,18.084V16.152h1.32v1.932h1.728v1.068H38.82V22.56q0,.36.336.36h1.212V24H38.7a1.165,1.165,0,0,1-.87-.336,1.213,1.213,0,0,1-.33-.888V19.152H35.9V18.084Zm5.748,0v.864h.12a2.3,2.3,0,0,1,2.052-1.032,2.509,2.509,0,0,1,1.35.384,2.765,2.765,0,0,1,.99,1.092,3.484,3.484,0,0,1,.372,1.644,3.52,3.52,0,0,1-.372,1.65,2.756,2.756,0,0,1-.99,1.1,2.509,2.509,0,0,1-1.35.384,2.255,2.255,0,0,1-2.028-1.008h-.12V26.4H41.964V18.084Zm1.788,4.944a1.665,1.665,0,0,0,1.284-.534,2.069,2.069,0,0,0,.492-1.458,2.069,2.069,0,0,0-.492-1.458,1.8,1.8,0,0,0-2.562.006,2.058,2.058,0,0,0-.5,1.452,2.058,2.058,0,0,0,.5,1.452A1.661,1.661,0,0,0,45.036,23.028Zm5.82.972H49.548V15.6h1.308Zm1.68-4.38a2.414,2.414,0,0,1,.888-1.236,2.815,2.815,0,0,1,1.716-.48,2.651,2.651,0,0,1,1.83.594,2.126,2.126,0,0,1,.666,1.674V24h-1.26v-.744H56.22a1.752,1.752,0,0,1-1.716.912,2.373,2.373,0,0,1-1.56-.5,1.692,1.692,0,0,1-.612-1.38,1.624,1.624,0,0,1,.624-1.368,2.624,2.624,0,0,1,1.644-.48h1.752v-.36a1.068,1.068,0,0,0-.312-.8,1.251,1.251,0,0,0-.912-.306,1.418,1.418,0,0,0-.93.282,1.284,1.284,0,0,0-.438.774Zm1.116,2.628a.74.74,0,0,0,.288.612,1.287,1.287,0,0,0,.816.228,1.622,1.622,0,0,0,1.152-.414,1.445,1.445,0,0,0,.444-1.11v-.108H54.684a1.221,1.221,0,0,0-.756.21A.69.69,0,0,0,53.652,22.248Zm5.316-1.212a3.2,3.2,0,0,1,.408-1.614,2.9,2.9,0,0,1,1.11-1.11,3.108,3.108,0,0,1,1.554-.4,2.911,2.911,0,0,1,1.938.63,2.746,2.746,0,0,1,.942,1.65l-1.272.264a1.582,1.582,0,0,0-.48-1.008,1.546,1.546,0,0,0-1.1-.384,1.666,1.666,0,0,0-1.272.54,2.292,2.292,0,0,0,0,2.868,1.666,1.666,0,0,0,1.272.54,1.556,1.556,0,0,0,1.11-.378,1.767,1.767,0,0,0,.51-1.038l1.284.3a3.028,3.028,0,0,1-1,1.644,2.886,2.886,0,0,1-1.92.624,3.1,3.1,0,0,1-1.56-.4,2.932,2.932,0,0,1-1.116-1.116A3.2,3.2,0,0,1,58.968,21.036Zm7-.024a3.386,3.386,0,0,1,.378-1.62,2.712,2.712,0,0,1,1.056-1.1,3.036,3.036,0,0,1,1.542-.39,2.959,2.959,0,0,1,1.5.372,2.567,2.567,0,0,1,1.008,1.056,3.352,3.352,0,0,1,.36,1.584v.54H67.32a1.6,1.6,0,0,0,.51,1.128,1.662,1.662,0,0,0,1.182.444,1.585,1.585,0,0,0,.978-.276,1.933,1.933,0,0,0,.582-.732l1.092.588a3.434,3.434,0,0,1-.978,1.1,2.806,2.806,0,0,1-1.7.456,3.076,3.076,0,0,1-1.578-.4,2.76,2.76,0,0,1-1.068-1.116A3.448,3.448,0,0,1,65.964,21.012Zm4.5-.576a1.447,1.447,0,0,0-1.536-1.392,1.57,1.57,0,0,0-1.092.378,1.592,1.592,0,0,0-.5,1.014Z" transform="translate(322 138)" fill="#fff"/>
    <g id="Logo-header_footer" data-name="Logo-header&amp;footer" transform="translate(185 127)">
      <path id="Path_1" data-name="Path 1" d="M5504.21,5372.853v-6.307h4.309v6.307h5.641v3.487h-5.641v11.125q0,1.175,1.1,1.175h3.956v3.525h-5.444a3.8,3.8,0,0,1-2.84-1.1,3.955,3.955,0,0,1-1.078-2.9v-11.83H5499v-3.487Z" transform="translate(-5499 -5364.117)" fill="#fff"/>
      <path id="Path_2" data-name="Path 2" d="M5517.451,5377.123a8.97,8.97,0,0,1,3.584-3.565,10.645,10.645,0,0,1,5.191-1.253,10.535,10.535,0,0,1,5.171,1.253,9,9,0,0,1,3.564,3.565,11.866,11.866,0,0,1,0,10.773,8.989,8.989,0,0,1-3.564,3.564,10.525,10.525,0,0,1-5.171,1.254,10.635,10.635,0,0,1-5.191-1.254,8.929,8.929,0,0,1-3.584-3.584,11.825,11.825,0,0,1,0-10.753Zm4.6,10.087a5.816,5.816,0,0,0,8.3,0,6.743,6.743,0,0,0,1.587-4.72,6.671,6.671,0,0,0-1.587-4.7,5.837,5.837,0,0,0-8.3.02,7.753,7.753,0,0,0,0,9.4Z" transform="translate(-5499 -5364.117)" fill="#fff"/>
      <path id="Path_3" data-name="Path 3" d="M5515.167,5365.112a3.418,3.418,0,0,1,2.473-.995,3.472,3.472,0,0,1,2.5.955,3.291,3.291,0,0,1,.994,2.487,3.316,3.316,0,0,1-1.774,3.011,3.6,3.6,0,0,1-1.721.43,3.43,3.43,0,0,1-1.72-.457,3.529,3.529,0,0,1-1.291-1.25,3.4,3.4,0,0,1,.538-4.181Zm.927,4.006a2.315,2.315,0,0,0,3.092,0,2.313,2.313,0,0,0,0-3.119,2.318,2.318,0,0,0-3.092,0,2.315,2.315,0,0,0,0,3.119Z" transform="translate(-5481 -5364.117)" fill="#fff"/>
      <path id="Path_4" data-name="Path 4" d="M5537.659,5364.117l-1.223,5.99h-.8l.25-5.99Z" transform="translate(-5465 -5364.117)" fill="#fff"/>
      <path id="Path_5" data-name="Path 5" d="M5559.7,5364.117l-1.222,5.99h-.8l.249-5.99Zm3.219,0-1.222,5.99h-.824l.25-5.99Z" transform="translate(-5466 -5364.117)" fill="#fff"/>
      <path id="Path_6" data-name="Path 6" d="M5543.559,5372.853v2.82h.391a7.5,7.5,0,0,1,6.7-3.368,8.2,8.2,0,0,1,4.407,1.253,9.03,9.03,0,0,1,3.231,3.565,12.5,12.5,0,0,1,0,10.753,8.991,8.991,0,0,1-3.231,3.584,8.2,8.2,0,0,1-4.407,1.254,7.361,7.361,0,0,1-6.621-3.291h-.391V5400h-4.27v-27.147Zm10.028,14.4a7.856,7.856,0,0,0,0-9.519,5.864,5.864,0,0,0-8.364.02,7.726,7.726,0,0,0,0,9.48,5.865,5.865,0,0,0,8.364.019Z" transform="translate(-5499 -5364.117)" fill="#fff"/>
      <path id="Path_7" data-name="Path 7" d="M5567.415,5392.165h-4.27v-19.312h4.27Z" transform="translate(-5499 -5364.117)" fill="#fff"/>
      <path id="Path_8" data-name="Path 8" d="M5572.35,5377.123a8.973,8.973,0,0,1,3.584-3.565,10.645,10.645,0,0,1,5.191-1.253,10.528,10.528,0,0,1,5.17,1.253,8.994,8.994,0,0,1,3.565,3.565,11.866,11.866,0,0,1,0,10.773,8.986,8.986,0,0,1-3.565,3.564,10.518,10.518,0,0,1-5.17,1.254,10.635,10.635,0,0,1-5.191-1.254,8.932,8.932,0,0,1-3.584-3.584,11.825,11.825,0,0,1,0-10.753Zm4.6,10.087a5.816,5.816,0,0,0,8.3,0,6.743,6.743,0,0,0,1.587-4.72,6.672,6.672,0,0,0-1.587-4.7,5.837,5.837,0,0,0-8.3.02,7.755,7.755,0,0,0,0,9.4Z" transform="translate(-5499 -5364.117)" fill="#fff"/>
    </g>
  </g>
</svg>
