<svg xmlns="http://www.w3.org/2000/svg" width="24.135" height="28.048" viewBox="0 0 24.135 28.048">
  <g id="Logo" transform="translate(0)">
    <path id="Path_1" data-name="Path 1" d="M5504.21,5372.853v-6.307h4.309v6.307h5.641v3.487h-5.641v11.125q0,1.175,1.1,1.175h3.956v3.525h-5.444a3.8,3.8,0,0,1-2.84-1.1,3.955,3.955,0,0,1-1.078-2.9v-11.83H5499v-3.487Z" transform="translate(-5499 -5364.117)" fill="#333"/>
    <path id="Path_3" data-name="Path 3" d="M5515.167,5365.112a3.418,3.418,0,0,1,2.473-.995,3.472,3.472,0,0,1,2.5.955,3.291,3.291,0,0,1,.994,2.487,3.316,3.316,0,0,1-1.774,3.011,3.6,3.6,0,0,1-1.721.43,3.43,3.43,0,0,1-1.72-.457,3.529,3.529,0,0,1-1.291-1.25,3.4,3.4,0,0,1,.538-4.181Zm.927,4.006a2.315,2.315,0,0,0,3.092,0,2.313,2.313,0,0,0,0-3.119,2.318,2.318,0,0,0-3.092,0,2.315,2.315,0,0,0,0,3.119Z" transform="translate(-5497 -5364.117)" fill="#333"/>
  </g>
</svg>
